<svg xmlns="http://www.w3.org/2000/svg" width="16" height="11" viewBox="0 0 16 11" fill="none"><path d="M7.99999 6.8997C7.277 6.8997 6.6909 6.31489 6.6909 5.59349C6.6909 4.87208 7.277 4.28727 7.99999 4.28727C8.72298 4.28727 9.30908 4.87208 9.30908 5.59349C9.30908 6.31489 8.72298 6.8997 7.99999 6.8997Z" fill="#D6AD4D"></path><path d="M15.0447 4.59134C15.5546 4.52828 16 4.98117 16 5.56285C16 6.14452 15.5546 6.59742 15.0447 6.53435L10.4444 5.96545C10.2632 5.94304 10.126 5.76952 10.126 5.56285C10.126 5.35617 10.2632 5.18266 10.4444 5.16025L15.0447 4.59134Z" fill="#D6AD4D"></path><path d="M0.955336 4.59134C0.445362 4.52827 2.24239e-08 4.98117 0 5.56285C-2.24239e-08 6.14452 0.445362 6.59742 0.955336 6.53435L5.55558 5.96545C5.73677 5.94304 5.87402 5.76952 5.87402 5.56285C5.87402 5.35617 5.73677 5.18266 5.55558 5.16025L0.955336 4.59134Z" fill="#D6AD4D"></path><path d="M12.4655 0.837854C12.7614 0.474981 13.2204 0.52257 13.4386 0.938732C13.6568 1.35489 13.5333 1.94734 13.1768 2.19459L10.8376 3.81694C10.7086 3.90641 10.5539 3.86095 10.475 3.71036C10.396 3.55978 10.417 3.35009 10.524 3.21879L12.4655 0.837854Z" fill="#D6AD4D"></path><path d="M3.53452 0.837853C3.23863 0.47498 2.77956 0.522569 2.56138 0.938731C2.34321 1.35489 2.46674 1.94733 2.82324 2.19459L5.16239 3.81694C5.29139 3.90641 5.44607 3.86095 5.52502 3.71036C5.60396 3.55978 5.58304 3.35009 5.47598 3.21879L3.53452 0.837853Z" fill="#D6AD4D"></path><path d="M12.5199 10.3492C12.8158 10.712 13.2749 10.6644 13.493 10.2483C13.7112 9.83212 13.5877 9.23968 13.2312 8.99242L10.892 7.37007C10.763 7.2806 10.6083 7.32607 10.5294 7.47665C10.4505 7.62723 10.4714 7.83692 10.5784 7.96822L12.5199 10.3492Z" fill="#D6AD4D"></path><path d="M3.4801 10.3492C3.18421 10.712 2.72514 10.6644 2.50696 10.2483C2.28879 9.83212 2.41232 9.23967 2.76882 8.99242L5.10797 7.37007C5.23697 7.2806 5.39165 7.32606 5.4706 7.47665C5.54954 7.62723 5.52862 7.83692 5.42156 7.96822L3.4801 10.3492Z" fill="#D6AD4D"></path><path d="M9.16365 9.6573C9.16365 9.25674 8.82664 8.97527 8.4772 9.03408C8.15287 9.08867 7.85766 9.08839 7.52343 9.03158C7.17318 8.97205 6.83637 9.25572 6.83637 9.6573C6.83637 10.0589 7.17318 10.3425 7.52343 10.283C7.85766 10.2262 8.15287 10.2259 8.4772 10.2805C8.82664 10.3393 9.16365 10.0579 9.16365 9.6573Z" fill="#D6AD4D"></path><path d="M9.16365 1.52972C9.16365 1.12916 8.82664 0.847693 8.4772 0.906509C8.15288 0.961098 7.85766 0.960815 7.52343 0.904009C7.17318 0.84448 6.83638 1.12814 6.83638 1.52972C6.83638 1.9313 7.17318 2.21496 7.52343 2.15543C7.85766 2.09863 8.15288 2.09834 8.4772 2.15293C8.82664 2.21175 9.16365 1.93028 9.16365 1.52972Z" fill="#D6AD4D"></path></svg>