<svg xmlns="http://www.w3.org/2000/svg" width="32" height="32" viewBox="0 0 32 32" fill="none"><rect width="32" height="32" rx="8" fill="white"></rect><path d="M12.8359 17.8373L17.8359 12.8373C17.9231 12.7501 18.0267 12.681 18.1406 12.6338C18.2545 12.5866 18.3767 12.5623 18.5 12.5623C18.6233 12.5623 18.7454 12.5866 18.8594 12.6338C18.9733 12.681 19.0768 12.7501 19.1641 12.8373C19.2513 12.9245 19.3204 13.0281 19.3676 13.142C19.4148 13.2559 19.4391 13.3781 19.4391 13.5014C19.4391 13.6247 19.4148 13.7468 19.3676 13.8608C19.3204 13.9747 19.2513 14.0783 19.1641 14.1655L14.1641 19.1655C13.9879 19.3416 13.7491 19.4405 13.5 19.4405C13.2509 19.4405 13.0121 19.3416 12.8359 19.1655C12.6598 18.9893 12.5609 18.7505 12.5609 18.5014C12.5609 18.2523 12.6598 18.0135 12.8359 17.8373ZM23.0703 8.93108C22.1904 8.05312 20.9981 7.56006 19.7551 7.56006C18.512 7.56006 17.3198 8.05312 16.4398 8.93108L14.0867 11.2819C13.9106 11.458 13.8116 11.6969 13.8116 11.9459C13.8116 12.0693 13.8359 12.1914 13.8831 12.3053C13.9303 12.4193 13.9995 12.5228 14.0867 12.61C14.1739 12.6972 14.2774 12.7664 14.3914 12.8136C14.5053 12.8608 14.6274 12.8851 14.7508 12.8851C14.9998 12.8851 15.2387 12.7861 15.4148 12.61L17.7641 10.2616C18.2916 9.73391 19.0071 9.43745 19.7532 9.43738C20.4993 9.4373 21.2149 9.73363 21.7426 10.2612C22.2702 10.7887 22.5667 11.5042 22.5667 12.2503C22.5668 12.9965 22.2705 13.712 21.743 14.2397L19.3906 16.5873C19.3034 16.6745 19.2342 16.7781 19.187 16.892C19.1398 17.0059 19.1156 17.1281 19.1156 17.2514C19.1156 17.3747 19.1398 17.4968 19.187 17.6108C19.2342 17.7247 19.3034 17.8282 19.3906 17.9155C19.4778 18.0027 19.5814 18.0718 19.6953 18.119C19.8092 18.1662 19.9314 18.1905 20.0547 18.1905C20.178 18.1905 20.3001 18.1662 20.4141 18.119C20.528 18.0718 20.6315 18.0027 20.7187 17.9155L23.0687 15.567C23.9472 14.6865 24.4403 13.4935 24.4398 12.2497C24.4394 11.006 23.9454 9.81329 23.0664 8.93343L23.0703 8.93108ZM16.5875 19.3905L14.2383 21.7405C13.977 22.0017 13.6669 22.2089 13.3255 22.3502C12.9842 22.4915 12.6184 22.5643 12.2489 22.5642C11.8795 22.5642 11.5137 22.4914 11.1724 22.35C10.8311 22.2086 10.521 22.0013 10.2598 21.7401C9.73223 21.2124 9.4359 20.4968 9.43598 19.7507C9.43605 19.0046 9.73251 18.2891 10.2601 17.7615L12.6086 15.4123C12.6958 15.3251 12.765 15.2216 12.8122 15.1077C12.8594 14.9937 12.8836 14.8716 12.8836 14.7483C12.8836 14.6249 12.8594 14.5028 12.8122 14.3889C12.765 14.2749 12.6958 14.1714 12.6086 14.0842C12.5214 13.997 12.4179 13.9278 12.3039 13.8806C12.19 13.8334 12.0679 13.8091 11.9445 13.8091C11.8212 13.8091 11.6991 13.8334 11.5851 13.8806C11.4712 13.9278 11.3677 13.997 11.2805 14.0842L8.93359 16.4358C8.49822 16.8712 8.15289 17.3881 7.91729 17.957C7.68169 18.5258 7.56045 19.1355 7.56049 19.7513C7.56056 20.9948 8.05462 22.1874 8.93398 23.0666C9.81334 23.9459 11.006 24.4398 12.2495 24.4397C13.493 24.4397 14.6856 23.9456 15.5648 23.0662L17.9133 20.717C18.0894 20.5409 18.1883 20.302 18.1883 20.053C18.1883 19.8039 18.0894 19.565 17.9133 19.3889C17.7372 19.2128 17.4983 19.1138 17.2492 19.1138C17.0001 19.1138 16.7613 19.2128 16.5851 19.3889L16.5875 19.3905Z" fill="#0D1F3D"></path></svg>