<svg xmlns="http://www.w3.org/2000/svg" width="60" height="20" viewBox="0 0 60 20" fill="none"><ellipse cx="9.99999" cy="10" rx="1.2" ry="1.36364" transform="rotate(-90 9.99999 10)" fill="#8F773F"></ellipse><path d="M2.6618 10.9207C2.13058 10.9786 1.66666 10.5626 1.66666 10.0282C1.66666 9.49382 2.13058 9.07775 2.6618 9.13569L7.45372 9.65833C7.64246 9.67892 7.78543 9.83833 7.78543 10.0282C7.78543 10.2181 7.64246 10.3775 7.45372 10.3981L2.6618 10.9207Z" fill="#8F773F"></path><path d="M17.3382 10.9207C17.8694 10.9786 18.3333 10.5626 18.3333 10.0282C18.3333 9.49382 17.8694 9.07775 17.3382 9.13569L12.5463 9.65833C12.3575 9.67892 12.2145 9.83833 12.2145 10.0282C12.2145 10.2181 12.3575 10.3775 12.5463 10.3981L17.3382 10.9207Z" fill="#8F773F"></path><path d="M5.34845 14.3689C5.04023 14.7023 4.56203 14.6586 4.33477 14.2763C4.1075 13.8939 4.23618 13.3497 4.60754 13.1225L7.04415 11.6321C7.17853 11.5499 7.33965 11.5917 7.42189 11.73C7.50412 11.8684 7.48233 12.061 7.3708 12.1816L5.34845 14.3689Z" fill="#8F773F"></path><path d="M14.6515 14.3689C14.9597 14.7023 15.4379 14.6586 15.6652 14.2763C15.8925 13.8939 15.7638 13.3497 15.3924 13.1225L12.9558 11.6321C12.8214 11.5499 12.6603 11.5917 12.5781 11.73C12.4958 11.8684 12.5176 12.061 12.6292 12.1816L14.6515 14.3689Z" fill="#8F773F"></path><path d="M5.29175 5.63106C4.98353 5.2977 4.50533 5.34142 4.27807 5.72374C4.0508 6.10606 4.17948 6.65033 4.55084 6.87748L6.98745 8.3679C7.12182 8.45009 7.28295 8.40833 7.36519 8.26999C7.44742 8.13165 7.42563 7.93901 7.3141 7.81839L5.29175 5.63106Z" fill="#8F773F"></path><path d="M14.7082 5.63106C15.0164 5.2977 15.4946 5.34142 15.7219 5.72374C15.9492 6.10606 15.8205 6.65033 15.4491 6.87748L13.0125 8.3679C12.8781 8.45009 12.717 8.40833 12.6348 8.26999C12.5526 8.13165 12.5743 7.93901 12.6859 7.81839L14.7082 5.63106Z" fill="#8F773F"></path><path d="M8.78787 6.26667C8.78787 6.63465 9.13892 6.89323 9.50292 6.8392C9.84076 6.78905 10.1483 6.78931 10.4964 6.8415C10.8613 6.89619 11.2121 6.63559 11.2121 6.26667C11.2121 5.89774 10.8613 5.63715 10.4964 5.69184C10.1483 5.74402 9.84076 5.74428 9.50292 5.69413C9.13892 5.6401 8.78787 5.89868 8.78787 6.26667Z" fill="#8F773F"></path><path d="M8.78784 13.7333C8.78784 14.1013 9.13889 14.3599 9.50289 14.3059C9.84073 14.2557 10.1482 14.256 10.4964 14.3082C10.8612 14.3629 11.2121 14.1023 11.2121 13.7333C11.2121 13.3644 10.8612 13.1038 10.4964 13.1585C10.1482 13.2107 9.84073 13.211 9.50289 13.1608C9.13889 13.1068 8.78784 13.3654 8.78784 13.7333Z" fill="#8F773F"></path><ellipse cx="30" cy="10" rx="1.2" ry="1.36364" transform="rotate(-90 30 10)" fill="#8F773F"></ellipse><path d="M22.6618 10.9207C22.1306 10.9786 21.6667 10.5626 21.6667 10.0282C21.6667 9.49382 22.1306 9.07775 22.6618 9.13569L27.4537 9.65833C27.6425 9.67892 27.7854 9.83833 27.7854 10.0282C27.7854 10.2181 27.6425 10.3775 27.4537 10.3981L22.6618 10.9207Z" fill="#8F773F"></path><path d="M37.3382 10.9207C37.8694 10.9786 38.3333 10.5626 38.3333 10.0282C38.3333 9.49382 37.8694 9.07775 37.3382 9.13569L32.5463 9.65833C32.3575 9.67892 32.2145 9.83833 32.2145 10.0282C32.2145 10.2181 32.3575 10.3775 32.5463 10.3981L37.3382 10.9207Z" fill="#8F773F"></path><path d="M25.3485 14.3689C25.0402 14.7023 24.562 14.6586 24.3348 14.2763C24.1075 13.8939 24.2362 13.3497 24.6075 13.1225L27.0442 11.6321C27.1785 11.5499 27.3397 11.5917 27.4219 11.73C27.5041 11.8684 27.4823 12.061 27.3708 12.1816L25.3485 14.3689Z" fill="#8F773F"></path><path d="M34.6515 14.3689C34.9597 14.7023 35.4379 14.6586 35.6652 14.2763C35.8925 13.8939 35.7638 13.3497 35.3924 13.1225L32.9558 11.6321C32.8214 11.5499 32.6603 11.5917 32.5781 11.73C32.4958 11.8684 32.5176 12.061 32.6292 12.1816L34.6515 14.3689Z" fill="#8F773F"></path><path d="M25.2917 5.63106C24.9835 5.2977 24.5053 5.34142 24.2781 5.72374C24.0508 6.10606 24.1795 6.65033 24.5508 6.87748L26.9875 8.3679C27.1218 8.45009 27.283 8.40833 27.3652 8.26999C27.4474 8.13165 27.4256 7.93901 27.3141 7.81839L25.2917 5.63106Z" fill="#8F773F"></path><path d="M34.7082 5.63106C35.0164 5.2977 35.4946 5.34142 35.7219 5.72374C35.9492 6.10606 35.8205 6.65033 35.4491 6.87748L33.0125 8.3679C32.8781 8.45009 32.717 8.40833 32.6348 8.26999C32.5526 8.13165 32.5743 7.93901 32.6859 7.81839L34.7082 5.63106Z" fill="#8F773F"></path><path d="M28.7879 6.26667C28.7879 6.63465 29.1389 6.89323 29.5029 6.8392C29.8408 6.78905 30.1483 6.78931 30.4964 6.8415C30.8613 6.89619 31.2121 6.63559 31.2121 6.26667C31.2121 5.89774 30.8613 5.63715 30.4964 5.69184C30.1483 5.74402 29.8408 5.74428 29.5029 5.69413C29.1389 5.6401 28.7879 5.89868 28.7879 6.26667Z" fill="#8F773F"></path><path d="M28.7878 13.7333C28.7878 14.1013 29.1389 14.3599 29.5029 14.3059C29.8407 14.2557 30.1482 14.256 30.4964 14.3082C30.8612 14.3629 31.2121 14.1023 31.2121 13.7333C31.2121 13.3644 30.8612 13.1038 30.4964 13.1585C30.1482 13.2107 29.8407 13.211 29.5029 13.1608C29.1389 13.1068 28.7878 13.3654 28.7878 13.7333Z" fill="#8F773F"></path><ellipse cx="50" cy="10" rx="1.2" ry="1.36364" transform="rotate(-90 50 10)" fill="#8F773F"></ellipse><path d="M42.6618 10.9207C42.1306 10.9786 41.6667 10.5626 41.6667 10.0282C41.6667 9.49382 42.1306 9.07775 42.6618 9.13569L47.4537 9.65833C47.6425 9.67892 47.7854 9.83833 47.7854 10.0282C47.7854 10.2181 47.6425 10.3775 47.4537 10.3981L42.6618 10.9207Z" fill="#8F773F"></path><path d="M57.3382 10.9207C57.8694 10.9786 58.3333 10.5626 58.3333 10.0282C58.3333 9.49382 57.8694 9.07775 57.3382 9.13569L52.5463 9.65833C52.3575 9.67892 52.2145 9.83833 52.2145 10.0282C52.2145 10.2181 52.3575 10.3775 52.5463 10.3981L57.3382 10.9207Z" fill="#8F773F"></path><path d="M45.3485 14.3689C45.0402 14.7023 44.562 14.6586 44.3348 14.2763C44.1075 13.8939 44.2362 13.3497 44.6075 13.1225L47.0442 11.6321C47.1785 11.5499 47.3397 11.5917 47.4219 11.73C47.5041 11.8684 47.4823 12.061 47.3708 12.1816L45.3485 14.3689Z" fill="#8F773F"></path><path d="M54.6515 14.3689C54.9597 14.7023 55.4379 14.6586 55.6652 14.2763C55.8925 13.8939 55.7638 13.3497 55.3924 13.1225L52.9558 11.6321C52.8214 11.5499 52.6603 11.5917 52.5781 11.73C52.4958 11.8684 52.5176 12.061 52.6292 12.1816L54.6515 14.3689Z" fill="#8F773F"></path><path d="M45.2917 5.63106C44.9835 5.2977 44.5053 5.34142 44.2781 5.72374C44.0508 6.10606 44.1795 6.65033 44.5508 6.87748L46.9875 8.3679C47.1218 8.45009 47.283 8.40833 47.3652 8.26999C47.4474 8.13165 47.4256 7.93901 47.3141 7.81839L45.2917 5.63106Z" fill="#8F773F"></path><path d="M54.7082 5.63106C55.0164 5.2977 55.4946 5.34142 55.7219 5.72374C55.9492 6.10606 55.8205 6.65033 55.4491 6.87748L53.0125 8.3679C52.8781 8.45009 52.717 8.40833 52.6348 8.26999C52.5526 8.13165 52.5743 7.93901 52.6859 7.81839L54.7082 5.63106Z" fill="#8F773F"></path><path d="M48.7879 6.26667C48.7879 6.63465 49.1389 6.89323 49.5029 6.8392C49.8408 6.78905 50.1483 6.78931 50.4964 6.8415C50.8613 6.89619 51.2121 6.63559 51.2121 6.26667C51.2121 5.89774 50.8613 5.63715 50.4964 5.69184C50.1483 5.74402 49.8408 5.74428 49.5029 5.69413C49.1389 5.6401 48.7879 5.89868 48.7879 6.26667Z" fill="#8F773F"></path><path d="M48.7878 13.7333C48.7878 14.1013 49.1389 14.3599 49.5029 14.3059C49.8407 14.2557 50.1482 14.256 50.4964 14.3082C50.8612 14.3629 51.2121 14.1023 51.2121 13.7333C51.2121 13.3644 50.8612 13.1038 50.4964 13.1585C50.1482 13.2107 49.8407 13.211 49.5029 13.1608C49.1389 13.1068 48.7878 13.3654 48.7878 13.7333Z" fill="#8F773F"></path></svg>