<svg xmlns="http://www.w3.org/2000/svg" width="600" height="400" viewBox="0 0 600 400" fill="none"><rect width="600" height="400" rx="8" fill="#0D1F3D"></rect><g clip-path="url(#clip0_52_1117)"><path d="M204.21 293.132C204.241 292.744 204.257 292.279 204.272 291.729C204.288 291.186 204.296 290.605 204.303 289.985C204.311 289.364 204.319 288.721 204.319 288.07C204.319 287.419 204.319 286.775 204.303 286.155C204.296 285.535 204.28 284.954 204.272 284.411C204.257 283.868 204.241 283.403 204.21 283.008C204.853 283.008 205.433 283.008 205.952 282.992C206.471 282.985 206.958 282.977 207.415 282.969C207.872 282.969 208.313 282.961 208.739 282.946C209.165 282.938 209.606 282.93 210.07 282.93C211.177 282.93 212.16 283.047 213.035 283.279C213.91 283.512 214.645 283.845 215.257 284.279C215.861 284.713 216.325 285.24 216.642 285.868C216.96 286.496 217.115 287.209 217.115 288C217.115 288.791 216.952 289.527 216.619 290.171C216.286 290.806 215.806 291.349 215.172 291.791C214.537 292.233 213.77 292.566 212.865 292.806C211.959 293.039 210.93 293.163 209.768 293.163C208.894 293.163 207.98 293.163 207.044 293.147C206.107 293.14 205.155 293.132 204.203 293.132H204.21ZM206.618 284.488C206.602 285.45 206.587 286.395 206.587 287.318C206.587 287.55 206.587 288.016 206.587 288.705C206.587 289.395 206.602 290.341 206.618 291.55C207.013 291.566 207.493 291.589 208.034 291.62C208.584 291.643 209.157 291.659 209.768 291.659C210.55 291.659 211.247 291.574 211.866 291.411C212.485 291.248 213.012 291.008 213.438 290.698C213.863 290.388 214.188 290 214.413 289.55C214.637 289.101 214.754 288.581 214.754 288.016C214.754 287.45 214.645 286.953 214.421 286.504C214.196 286.054 213.879 285.682 213.461 285.372C213.043 285.062 212.524 284.829 211.92 284.674C211.317 284.519 210.628 284.434 209.854 284.434C209.397 284.434 208.94 284.442 208.46 284.457C207.988 284.473 207.539 284.488 207.121 284.488H206.602H206.618Z" fill="url(#paint0_linear_52_1117)"></path><path d="M229.02 293.132C228.896 292.791 228.765 292.442 228.633 292.085C228.502 291.729 228.362 291.372 228.223 291.008C227.789 291 227.317 290.992 226.814 290.977C226.311 290.961 225.792 290.961 225.274 290.961C224.755 290.961 224.236 290.961 223.725 290.961C223.214 290.961 222.735 290.969 222.293 290.985C222.138 291.364 221.991 291.736 221.844 292.093C221.697 292.45 221.558 292.791 221.426 293.116H218.763C219.584 291.411 220.381 289.721 221.14 288.054C221.898 286.38 222.634 284.698 223.354 282.992C223.601 283.023 223.888 283.039 224.229 283.062C224.569 283.078 224.917 283.093 225.274 283.093C225.63 283.093 225.978 283.093 226.319 283.078C226.659 283.062 226.953 283.031 227.193 282.992C227.905 284.698 228.649 286.388 229.423 288.054C230.197 289.721 230.986 291.411 231.815 293.116H229.036L229.02 293.132ZM222.773 282.256C223.137 281.876 223.447 281.527 223.702 281.217C223.958 280.907 224.221 280.581 224.484 280.248C224.972 280.264 225.459 280.264 225.939 280.248C226.226 280.581 226.52 280.907 226.799 281.217C227.077 281.527 227.426 281.876 227.82 282.256C227.294 282.209 226.768 282.209 226.233 282.256C226.063 282.023 225.901 281.806 225.753 281.612C225.606 281.419 225.436 281.202 225.243 280.969C225.065 281.202 224.894 281.419 224.755 281.612C224.608 281.806 224.453 282.023 224.29 282.256C223.795 282.217 223.284 282.217 222.773 282.256ZM222.851 289.612C223.214 289.62 223.601 289.628 224.012 289.636C224.422 289.643 224.84 289.636 225.258 289.636C225.676 289.636 226.086 289.636 226.504 289.636C226.915 289.636 227.302 289.62 227.666 289.612C227.286 288.659 226.891 287.736 226.481 286.829C226.071 285.922 225.653 285.07 225.219 284.256C225.08 284.519 224.925 284.845 224.747 285.225C224.569 285.612 224.383 286.039 224.174 286.504C223.973 286.969 223.756 287.473 223.532 288C223.307 288.527 223.083 289.07 222.851 289.612ZM227.302 280.899C227.426 280.752 227.557 280.597 227.689 280.426C227.82 280.256 227.952 280.078 228.091 279.899C228.231 279.721 228.354 279.55 228.478 279.38C228.602 279.209 228.711 279.047 228.811 278.907C228.935 278.922 229.105 278.938 229.307 278.946C229.508 278.953 229.725 278.961 229.941 278.961C230.158 278.961 230.375 278.961 230.584 278.946C230.793 278.938 230.963 278.922 231.087 278.907C230.886 279.054 230.677 279.209 230.452 279.38C230.228 279.55 230.003 279.729 229.771 279.899C229.547 280.078 229.33 280.248 229.129 280.426C228.927 280.597 228.749 280.76 228.594 280.899C228.54 280.891 228.455 280.884 228.339 280.876C228.223 280.868 228.099 280.876 227.967 280.876C227.836 280.876 227.712 280.876 227.596 280.876C227.48 280.876 227.387 280.884 227.309 280.899H227.302Z" fill="url(#paint1_linear_52_1117)"></path><path d="M245.849 288.093C245.849 288.938 245.71 289.69 245.439 290.349C245.16 291.008 244.765 291.574 244.254 292.031C243.736 292.488 243.109 292.837 242.358 293.078C241.607 293.318 240.755 293.442 239.803 293.442C238.851 293.442 237.961 293.318 237.202 293.078C236.444 292.837 235.817 292.488 235.306 292.031C234.803 291.574 234.416 291.016 234.152 290.349C233.889 289.69 233.758 288.938 233.758 288.093C233.758 287.054 233.758 286.101 233.734 285.24C233.719 284.38 233.688 283.636 233.649 283.008C233.858 283.047 234.075 283.07 234.292 283.085C234.516 283.101 234.741 283.109 234.965 283.109C235.174 283.109 235.383 283.109 235.592 283.085C235.801 283.07 235.995 283.047 236.173 283.008C236.126 283.636 236.095 284.372 236.088 285.225C236.072 286.078 236.064 287.054 236.064 288.147C236.064 289.326 236.382 290.248 237.009 290.915C237.636 291.581 238.565 291.915 239.796 291.915C241.026 291.915 241.94 291.581 242.575 290.915C243.202 290.248 243.519 289.326 243.519 288.147C243.519 287.054 243.519 286.078 243.504 285.225C243.496 284.372 243.465 283.636 243.426 283.008C243.635 283.047 243.852 283.07 244.069 283.085C244.293 283.101 244.518 283.109 244.742 283.109C244.951 283.109 245.16 283.109 245.369 283.085C245.578 283.07 245.772 283.047 245.95 283.008C245.934 283.318 245.919 283.667 245.903 284.062C245.888 284.457 245.88 284.876 245.872 285.318C245.872 285.76 245.865 286.217 245.857 286.69C245.849 287.163 245.857 287.628 245.857 288.093H245.849Z" fill="url(#paint2_linear_52_1117)"></path><path d="M262.995 293.132C262.871 292.791 262.74 292.442 262.608 292.085C262.477 291.729 262.337 291.372 262.198 291.008C261.764 291 261.292 290.992 260.789 290.977C260.286 290.961 259.767 290.961 259.249 290.961C258.73 290.961 258.211 290.961 257.7 290.961C257.19 290.961 256.71 290.969 256.268 290.985C256.114 291.364 255.966 291.736 255.819 292.093C255.672 292.45 255.533 292.791 255.401 293.116H252.738C253.559 291.411 254.356 289.721 255.115 288.054C255.874 286.38 256.609 284.698 257.329 282.992C257.577 283.023 257.863 283.039 258.204 283.062C258.544 283.078 258.893 283.093 259.249 283.093C259.605 283.093 259.953 283.093 260.294 283.078C260.634 283.062 260.928 283.031 261.168 282.992C261.881 284.698 262.624 286.388 263.398 288.054C264.172 289.721 264.961 291.411 265.79 293.116H263.011L262.995 293.132ZM256.748 282.256C257.112 281.876 257.422 281.527 257.677 281.217C257.933 280.907 258.196 280.581 258.459 280.248C258.947 280.264 259.434 280.264 259.914 280.248C260.201 280.581 260.495 280.907 260.774 281.217C261.052 281.527 261.401 281.876 261.795 282.256C261.269 282.209 260.743 282.209 260.209 282.256C260.038 282.023 259.876 281.806 259.729 281.612C259.581 281.419 259.411 281.202 259.218 280.969C259.04 281.202 258.869 281.419 258.73 281.612C258.583 281.806 258.428 282.023 258.266 282.256C257.77 282.217 257.259 282.217 256.748 282.256ZM256.833 289.612C257.197 289.62 257.584 289.628 257.995 289.636C258.405 289.643 258.823 289.636 259.241 289.636C259.659 289.636 260.069 289.636 260.487 289.636C260.897 289.636 261.285 289.62 261.648 289.612C261.269 288.659 260.874 287.736 260.464 286.829C260.054 285.922 259.636 285.07 259.202 284.256C259.063 284.519 258.908 284.845 258.73 285.225C258.552 285.612 258.366 286.039 258.157 286.504C257.956 286.969 257.739 287.473 257.515 288C257.29 288.527 257.066 289.07 256.833 289.612ZM261.285 280.899C261.408 280.752 261.54 280.597 261.672 280.426C261.803 280.256 261.935 280.078 262.074 279.899C262.213 279.721 262.337 279.55 262.461 279.38C262.585 279.209 262.693 279.047 262.794 278.907C262.918 278.922 263.088 278.938 263.289 278.946C263.491 278.953 263.707 278.961 263.924 278.961C264.141 278.961 264.358 278.961 264.567 278.946C264.776 278.938 264.946 278.922 265.07 278.907C264.869 279.054 264.66 279.209 264.435 279.38C264.211 279.55 263.986 279.729 263.754 279.899C263.529 280.078 263.313 280.248 263.111 280.426C262.91 280.597 262.732 280.76 262.577 280.899C262.523 280.891 262.438 280.884 262.322 280.876C262.206 280.868 262.082 280.876 261.95 280.876C261.819 280.876 261.695 280.876 261.579 280.876C261.463 280.876 261.37 280.884 261.292 280.899H261.285Z" fill="url(#paint3_linear_52_1117)"></path><path d="M276.929 293.132C275.861 291.729 274.777 290.341 273.67 288.969C272.563 287.597 271.433 286.24 270.28 284.891C270.272 285.62 270.264 286.341 270.264 287.07C270.264 289.093 270.31 291.116 270.403 293.132H267.957C268.011 291.434 268.042 289.744 268.042 288.062C268.042 286.38 268.011 284.69 267.957 283.008C268.189 283.039 268.468 283.054 268.786 283.078C269.103 283.093 269.42 283.109 269.745 283.109C270.032 283.109 270.318 283.109 270.597 283.085C270.876 283.07 271.116 283.047 271.325 283.008C273.415 285.822 275.598 288.589 277.881 291.326C277.889 290.527 277.897 289.729 277.897 288.93C277.897 288.341 277.897 287.55 277.881 286.566C277.873 285.581 277.835 284.388 277.757 283.008C277.974 283.047 278.191 283.07 278.4 283.085C278.609 283.101 278.826 283.109 279.035 283.109C279.453 283.109 279.832 283.078 280.172 283.016C280.126 284.504 280.103 285.992 280.103 287.473C280.103 289.364 280.141 291.256 280.211 293.14H276.929V293.132Z" fill="url(#paint4_linear_52_1117)"></path><path d="M293.355 288.186C293.727 288.225 294.129 288.31 294.555 288.442C294.981 288.581 295.422 288.752 295.863 288.969C296.305 289.186 296.738 289.442 297.164 289.729C297.59 290.016 297.977 290.341 298.333 290.698C298.689 291.054 298.991 291.434 299.246 291.837C299.502 292.24 299.68 292.674 299.788 293.132H296.847C296.839 292.907 296.777 292.643 296.661 292.349C296.545 292.054 296.39 291.752 296.189 291.434C295.987 291.124 295.732 290.814 295.422 290.504C295.113 290.194 294.756 289.922 294.354 289.682C293.951 289.442 293.502 289.248 292.999 289.101C292.496 288.954 291.946 288.876 291.35 288.876H291.041C290.932 288.876 290.816 288.884 290.7 288.907C290.708 289.589 290.723 290.279 290.747 290.985C290.77 291.69 290.801 292.411 290.832 293.132H288.254C288.285 292.705 288.3 292.217 288.324 291.674C288.339 291.124 288.355 290.55 288.362 289.938C288.37 289.333 288.378 288.705 288.378 288.07C288.378 287.434 288.378 286.806 288.362 286.202C288.355 285.597 288.339 285.016 288.324 284.465C288.308 283.915 288.285 283.426 288.254 283C288.479 283.039 288.703 283.062 288.92 283.078C289.136 283.093 289.353 283.101 289.57 283.101C290.011 283.101 290.421 283.07 290.793 283.008C290.754 283.659 290.731 284.349 290.708 285.078C290.692 285.806 290.677 286.574 290.677 287.372H290.84C291.637 287.372 292.357 287.24 292.999 286.985C293.642 286.729 294.207 286.388 294.702 285.961C295.198 285.535 295.616 285.062 295.956 284.543C296.297 284.023 296.583 283.519 296.8 283.023C297.017 283.062 297.257 283.085 297.528 283.101C297.799 283.116 298.077 283.124 298.364 283.124C298.635 283.124 298.913 283.124 299.192 283.101C299.471 283.078 299.742 283.062 300.005 283.023C299.641 283.605 299.192 284.171 298.65 284.721C298.108 285.271 297.543 285.775 296.939 286.233C296.336 286.682 295.724 287.07 295.097 287.388C294.47 287.705 293.889 287.915 293.348 288.016V288.194L293.355 288.186Z" fill="url(#paint5_linear_52_1117)"></path><path d="M311.492 293.132C311.531 292.612 311.554 292.016 311.57 291.341C311.585 290.659 311.601 289.938 311.609 289.178C311.067 289.14 310.517 289.116 309.975 289.101C309.426 289.085 308.876 289.078 308.311 289.078C307.692 289.078 307.088 289.085 306.484 289.109C305.88 289.124 305.284 289.155 304.688 289.194C304.696 289.954 304.711 290.674 304.727 291.357C304.742 292.039 304.773 292.628 304.82 293.14H302.35C302.381 292.713 302.397 292.225 302.42 291.682C302.435 291.132 302.451 290.558 302.459 289.946C302.466 289.341 302.474 288.713 302.474 288.078C302.474 287.442 302.474 286.814 302.459 286.209C302.451 285.605 302.435 285.023 302.42 284.473C302.405 283.922 302.381 283.434 302.35 283.008C302.567 283.047 302.784 283.07 302.993 283.085C303.202 283.101 303.419 283.109 303.628 283.109C303.837 283.109 304.022 283.109 304.216 283.085C304.409 283.07 304.603 283.047 304.796 283.008C304.758 283.589 304.735 284.279 304.711 285.078C304.696 285.876 304.68 286.705 304.673 287.581C305.261 287.62 305.857 287.643 306.461 287.667C307.065 287.682 307.676 287.698 308.303 287.698C308.853 287.698 309.41 287.698 309.967 287.674C310.525 287.659 311.074 287.636 311.616 287.597C311.609 286.729 311.593 285.891 311.578 285.093C311.562 284.295 311.531 283.605 311.5 283.016C311.717 283.054 311.934 283.078 312.143 283.093C312.352 283.109 312.568 283.116 312.777 283.116C312.986 283.116 313.172 283.116 313.358 283.093C313.552 283.078 313.737 283.054 313.931 283.016C313.9 283.442 313.884 283.93 313.869 284.481C313.853 285.031 313.846 285.605 313.838 286.217C313.83 286.829 313.822 287.457 313.822 288.093C313.822 288.729 313.822 289.357 313.846 289.961C313.861 290.566 313.877 291.147 313.9 291.698C313.923 292.248 313.946 292.729 313.977 293.147H311.508L311.492 293.132Z" fill="url(#paint6_linear_52_1117)"></path><path d="M326.394 293.132C326.27 292.791 326.138 292.442 326.007 292.085C325.875 291.729 325.736 291.372 325.596 291.008C325.163 291 324.691 290.992 324.188 290.977C323.684 290.961 323.166 290.961 322.647 290.961C322.128 290.961 321.61 290.961 321.099 290.961C320.588 290.961 320.108 290.969 319.667 290.985C319.512 291.364 319.365 291.736 319.218 292.093C319.071 292.45 318.931 292.791 318.8 293.116H316.137C316.958 291.411 317.755 289.721 318.513 288.054C319.272 286.38 320.007 284.698 320.727 282.992C321.006 283.023 321.339 283.047 321.718 283.07C322.098 283.093 322.485 283.101 322.887 283.101C323.204 283.101 323.506 283.101 323.801 283.078C324.095 283.062 324.35 283.031 324.567 282.992C325.279 284.698 326.022 286.388 326.796 288.054C327.57 289.721 328.36 291.411 329.188 293.116H326.409L326.394 293.132ZM320.232 289.612C320.604 289.62 320.991 289.628 321.393 289.636C321.796 289.636 322.214 289.636 322.639 289.636C323.065 289.636 323.483 289.636 323.886 289.636C324.288 289.636 324.675 289.62 325.039 289.612C324.66 288.659 324.265 287.736 323.855 286.829C323.444 285.922 323.026 285.07 322.593 284.256C322.454 284.519 322.299 284.845 322.121 285.225C321.943 285.612 321.757 286.039 321.548 286.504C321.347 286.969 321.13 287.473 320.905 288C320.681 288.527 320.456 289.07 320.224 289.612H320.232ZM321.749 282.256C321.873 282.109 322.005 281.954 322.136 281.783C322.268 281.612 322.399 281.434 322.539 281.264C322.678 281.085 322.802 280.915 322.926 280.736C323.05 280.566 323.158 280.403 323.259 280.264C323.375 280.279 323.53 280.295 323.731 280.302C323.924 280.31 324.126 280.318 324.335 280.318C324.567 280.318 324.799 280.318 325.024 280.302C325.248 280.295 325.418 280.279 325.542 280.264C325.341 280.411 325.132 280.566 324.907 280.736C324.683 280.907 324.459 281.085 324.226 281.264C324.002 281.442 323.785 281.612 323.584 281.783C323.383 281.954 323.204 282.116 323.05 282.256C322.995 282.248 322.91 282.24 322.794 282.233C322.678 282.233 322.554 282.233 322.423 282.233C322.291 282.233 322.167 282.233 322.051 282.233C321.935 282.233 321.842 282.24 321.765 282.256H321.749Z" fill="url(#paint7_linear_52_1117)"></path><path d="M337.796 293.364C336.682 293.364 335.691 293.24 334.824 292.992C333.957 292.744 333.221 292.388 332.625 291.922C332.029 291.457 331.572 290.899 331.271 290.24C330.961 289.581 330.806 288.845 330.806 288.016C330.806 287.186 330.976 286.395 331.317 285.736C331.658 285.078 332.138 284.527 332.765 284.085C333.392 283.643 334.142 283.302 335.033 283.078C335.923 282.853 336.914 282.736 338.021 282.736C338.81 282.736 339.662 282.814 340.575 282.961C341.489 283.109 342.487 283.411 343.579 283.868C343.532 284.264 343.509 284.628 343.509 284.946C343.509 285.264 343.532 285.628 343.579 286.023C343.037 285.698 342.51 285.426 342.007 285.217C341.504 285.008 341.016 284.837 340.56 284.705C340.103 284.581 339.67 284.488 339.267 284.442C338.864 284.395 338.493 284.364 338.145 284.364C337.386 284.364 336.697 284.442 336.085 284.605C335.474 284.76 334.955 285 334.514 285.302C334.081 285.612 333.748 285.992 333.515 286.442C333.283 286.891 333.167 287.419 333.167 288.008C333.167 288.558 333.268 289.062 333.469 289.519C333.67 289.969 333.98 290.364 334.382 290.69C334.793 291.016 335.296 291.271 335.907 291.442C336.519 291.62 337.231 291.705 338.044 291.705C339.012 291.705 339.956 291.543 340.885 291.225C341.814 290.907 342.704 290.341 343.555 289.543C343.54 289.736 343.525 289.922 343.525 290.116C343.525 290.31 343.54 290.55 343.579 290.829C343.617 291.109 343.656 291.38 343.703 291.651C343.323 291.93 342.921 292.178 342.503 292.388C342.085 292.597 341.636 292.775 341.148 292.915C340.668 293.062 340.149 293.171 339.6 293.24C339.05 293.31 338.439 293.349 337.781 293.349L337.796 293.364Z" fill="url(#paint8_linear_52_1117)"></path><path d="M351.32 293.132C351.351 292.705 351.366 292.217 351.389 291.674C351.405 291.124 351.42 290.543 351.428 289.93C351.436 289.318 351.444 288.69 351.444 288.054C351.444 287.419 351.444 286.791 351.428 286.178C351.42 285.566 351.405 284.985 351.389 284.442C351.374 283.891 351.351 283.403 351.32 282.977C351.784 282.977 352.241 282.977 352.69 282.977C353.139 282.977 353.619 282.969 354.106 282.961C354.594 282.953 355.12 282.954 355.67 282.946C356.22 282.946 356.816 282.946 357.458 282.946C359.061 282.946 360.284 283.147 361.135 283.543C361.987 283.938 362.412 284.589 362.412 285.488C362.412 285.884 362.327 286.233 362.165 286.512C362.002 286.791 361.77 287.031 361.484 287.209C361.197 287.388 360.864 287.527 360.469 287.62C360.082 287.713 359.672 287.767 359.231 287.783V287.961C359.773 287.969 360.276 288.031 360.748 288.132C361.22 288.233 361.615 288.388 361.956 288.597C362.296 288.798 362.56 289.054 362.753 289.364C362.947 289.674 363.039 290.047 363.039 290.481C363.039 290.891 362.954 291.24 362.784 291.535C362.614 291.829 362.382 292.078 362.087 292.279C361.793 292.481 361.453 292.643 361.066 292.767C360.678 292.891 360.268 292.985 359.842 293.054C359.417 293.124 358.983 293.171 358.542 293.194C358.101 293.217 357.675 293.225 357.265 293.225C356.56 293.225 355.941 293.225 355.407 293.209C354.873 293.194 354.385 293.194 353.936 293.178C353.487 293.163 353.061 293.163 352.651 293.147C352.241 293.14 351.807 293.132 351.335 293.132H351.32ZM353.712 287.442C354.292 287.45 354.896 287.457 355.531 287.465C356.166 287.473 356.808 287.465 357.474 287.465C359.13 287.465 359.959 286.969 359.959 285.969C359.959 285.434 359.742 285.062 359.316 284.845C358.89 284.636 358.271 284.527 357.474 284.527H355.275C354.633 284.527 354.122 284.527 353.743 284.543C353.727 285 353.712 285.38 353.712 285.705C353.712 286.031 353.712 286.271 353.712 286.434C353.712 286.76 353.712 287.093 353.727 287.442H353.712ZM353.712 288.798C353.712 289.264 353.712 289.729 353.727 290.209C353.735 290.682 353.75 291.14 353.766 291.574C354.037 291.581 354.3 291.589 354.548 291.597C354.795 291.605 355.059 291.605 355.337 291.612C355.616 291.612 355.918 291.62 356.251 291.628C356.584 291.628 356.955 291.628 357.381 291.628C357.992 291.628 358.503 291.589 358.898 291.504C359.293 291.426 359.603 291.31 359.827 291.171C360.051 291.031 360.214 290.868 360.299 290.682C360.392 290.496 360.439 290.302 360.439 290.101C360.439 289.922 360.392 289.752 360.307 289.589C360.222 289.434 360.067 289.287 359.835 289.171C359.602 289.054 359.308 288.954 358.921 288.884C358.534 288.814 358.054 288.783 357.466 288.783H355.523C354.888 288.783 354.284 288.783 353.704 288.798H353.712Z" fill="url(#paint9_linear_52_1117)"></path><path d="M365.633 293.132C365.664 292.705 365.679 292.217 365.702 291.674C365.718 291.124 365.733 290.55 365.741 289.938C365.749 289.333 365.757 288.705 365.757 288.07C365.757 287.434 365.757 286.806 365.741 286.202C365.726 285.597 365.718 285.016 365.702 284.465C365.687 283.915 365.664 283.426 365.633 283C365.857 283.039 366.082 283.062 366.306 283.078C366.531 283.093 366.747 283.101 366.964 283.101C367.405 283.101 367.816 283.07 368.187 283.008C368.156 283.434 368.141 283.922 368.118 284.473C368.102 285.023 368.087 285.597 368.079 286.209C368.071 286.822 368.063 287.45 368.063 288.085C368.063 288.721 368.063 289.349 368.087 289.953C368.102 290.558 368.118 291.14 368.141 291.69C368.164 292.24 368.187 292.721 368.218 293.14H365.64L365.633 293.132Z" fill="url(#paint10_linear_52_1117)"></path><path d="M371.384 293.132C371.415 292.705 371.431 292.217 371.454 291.667C371.469 291.116 371.485 290.535 371.493 289.922C371.5 289.31 371.508 288.682 371.508 288.047C371.508 287.411 371.508 286.783 371.493 286.178C371.485 285.574 371.469 284.992 371.454 284.45C371.438 283.907 371.415 283.426 371.384 283.008C371.663 283.039 372.073 283.054 372.6 283.078C373.126 283.093 373.73 283.109 374.388 283.124C375.053 283.14 375.758 283.147 376.509 283.155C377.26 283.163 377.995 283.155 378.707 283.155C379.419 283.155 380.093 283.14 380.712 283.124C381.331 283.109 381.85 283.085 382.268 283.047C382.214 283.705 382.214 284.388 382.268 285.085C381.796 284.985 381.208 284.899 380.511 284.837C379.806 284.767 379.071 284.713 378.297 284.667C377.523 284.62 376.749 284.589 375.967 284.566C375.185 284.543 374.481 284.535 373.838 284.535C373.823 285.023 373.807 285.504 373.807 285.985C373.807 286.457 373.807 286.946 373.807 287.434C374.442 287.442 375.1 287.442 375.789 287.434C376.478 287.426 377.151 287.411 377.817 287.395C378.483 287.38 379.11 287.357 379.714 287.326C380.317 287.295 380.844 287.271 381.3 287.248C381.246 287.829 381.246 288.395 381.3 288.961C380.836 288.93 380.31 288.907 379.706 288.884C379.102 288.86 378.467 288.845 377.809 288.829C377.144 288.814 376.47 288.806 375.789 288.798C375.108 288.791 374.45 288.798 373.815 288.798C373.815 289.264 373.815 289.729 373.815 290.194C373.815 290.659 373.838 291.132 373.861 291.605C374.504 291.612 375.216 291.605 375.99 291.581C376.772 291.558 377.546 291.527 378.32 291.481C379.094 291.434 379.83 291.38 380.519 291.302C381.208 291.233 381.796 291.147 382.26 291.054C382.206 291.744 382.206 292.434 382.26 293.132H371.369H371.384ZM374.248 282.256C374.612 281.876 374.922 281.527 375.177 281.217C375.433 280.907 375.696 280.581 375.959 280.248C376.447 280.264 376.935 280.264 377.414 280.248C377.701 280.581 377.995 280.907 378.274 281.217C378.552 281.527 378.901 281.876 379.296 282.256C378.769 282.209 378.243 282.209 377.709 282.256C377.538 282.023 377.376 281.806 377.229 281.612C377.082 281.419 376.911 281.202 376.718 280.969C376.54 281.202 376.377 281.419 376.23 281.612C376.083 281.806 375.928 282.023 375.766 282.256C375.27 282.217 374.759 282.217 374.248 282.256ZM376.602 295.674C376.269 295.674 376.013 295.62 375.851 295.512C375.68 295.403 375.603 295.225 375.603 294.985C375.603 294.512 375.936 294.279 376.609 294.279C377.345 294.279 377.709 294.512 377.709 294.985C377.709 295.233 377.623 295.403 377.445 295.512C377.267 295.62 376.989 295.674 376.609 295.674H376.602Z" fill="url(#paint11_linear_52_1117)"></path><path d="M388.817 293.132C388.856 292.597 388.879 291.985 388.894 291.279C388.91 290.581 388.925 289.946 388.925 289.372C388.925 288.798 388.925 288.31 388.925 287.922C388.925 287.535 388.925 287.054 388.925 286.465C388.925 285.876 388.91 285.233 388.894 284.535C387.896 284.543 387.013 284.581 386.239 284.643C385.465 284.705 384.722 284.791 384.018 284.899C384.072 284.581 384.103 284.264 384.103 283.946C384.103 283.628 384.072 283.31 384.018 282.992C385.148 283.023 386.208 283.039 387.191 283.054C388.174 283.07 389.142 283.078 390.102 283.078C391.062 283.078 392.045 283.078 393.028 283.054C394.011 283.039 395.064 283.023 396.186 282.992C396.132 283.31 396.109 283.628 396.109 283.946C396.109 284.264 396.14 284.581 396.186 284.899C395.474 284.791 394.731 284.705 393.957 284.643C393.183 284.581 392.293 284.543 391.286 284.535C391.271 285.233 391.255 285.845 391.255 286.364C391.255 286.884 391.255 287.279 391.255 287.543C391.255 288.062 391.255 288.636 391.271 289.279C391.279 289.915 391.294 290.589 391.317 291.287C391.34 291.985 391.371 292.605 391.402 293.14H388.825L388.817 293.132Z" fill="url(#paint12_linear_52_1117)"></path><path d="M398.833 236.954C396.72 236.465 395.025 235.705 393.817 234.953C392.648 235.744 390.953 236.465 388.84 236.954L388.422 236.69C390.04 236.085 391.588 234.271 392.648 233.14L394.646 232.798C395.737 233.853 397.432 236.008 399.205 236.69L398.826 236.954H398.833Z" fill="url(#paint13_linear_52_1117)"></path><path d="M330.612 245.729C329.56 243.612 328.089 241.992 326.123 240.667C324.203 239.38 321.896 238.744 319.264 238.744H308.295L309.278 239.992C309.727 240.558 310.068 241.279 310.331 242.178C310.594 243.085 310.71 244.295 310.71 245.806V259.55C310.71 261.101 310.594 262.271 310.331 263.178C310.068 264.085 309.727 264.837 309.278 265.403L308.295 266.651H319.264C323.258 266.535 326.463 265.14 328.724 262.457C330.984 259.814 332.153 256.527 332.153 252.713C332.23 250.186 331.665 247.806 330.605 245.729H330.612ZM324.273 261.705C322.918 262.612 321.254 263.062 319.295 263.062H314.356V242.411H319.256C322.237 242.488 324.497 243.465 326.115 245.434C327.771 247.395 328.6 249.853 328.6 252.76C328.6 254.721 328.22 256.419 327.47 257.969C326.719 259.519 325.658 260.729 324.265 261.705H324.273Z" fill="url(#paint14_linear_52_1117)"></path><path d="M349.129 238.783L350.073 239.992C350.561 240.597 350.901 241.349 351.126 242.217C351.389 243.202 351.544 244.403 351.544 245.845V257.171C351.544 261.512 348.525 263.062 345.661 263.062C342.27 263.062 339.778 260.605 339.778 257.171V245.845C339.778 243.085 340.227 241.318 341.21 239.992L342.154 238.783H333.786L334.731 239.992C335.218 240.597 335.559 241.349 335.783 242.217C336.047 243.163 336.163 244.295 336.163 245.845V257.171C336.163 262.643 340.157 266.643 345.661 266.643C351.165 266.643 355.12 262.566 355.12 257.171V245.845C355.12 243.085 355.569 241.318 356.552 239.992L357.497 238.783H349.129Z" fill="url(#paint15_linear_52_1117)"></path><path d="M374.132 238.783L374.813 239.915C375.115 240.403 375.262 240.969 375.262 241.574C375.262 242.256 375.076 242.891 374.775 243.426L370.556 249.961L366.368 243.465C365.989 242.822 365.764 242.178 365.764 241.612C365.764 241.085 365.95 240.519 366.29 239.953L367.01 238.783H358.604L359.811 240.07C360.26 240.558 361.623 242.597 362.335 243.698C362.559 244.078 362.784 244.38 362.9 244.527L368.783 254.078V259.814C368.744 262.419 368.295 264.155 367.312 265.442L366.368 266.651H374.697L373.83 265.442C373.342 264.76 372.963 264.008 372.739 263.217C372.514 262.31 372.398 261.217 372.359 259.822V254.124L378.243 244.535C378.73 243.705 380.766 240.643 381.331 240.078L382.539 238.791H374.132V238.783Z" fill="url(#paint16_linear_52_1117)"></path><path d="M402.75 261.969C401.543 262.69 399.995 263.14 398.114 263.256C395.776 263.442 394.266 263.481 393.399 263.481C392.981 263.481 392.61 263.481 392.269 263.442H391.627C390.945 263.403 390.342 263.442 389.777 263.442V254.535H392.532C393.926 254.535 395.095 254.574 395.884 254.682C396.488 254.798 397.053 255.023 397.618 255.473L398.826 256.38V249.016L397.579 250C397.053 250.45 396.488 250.682 395.884 250.752C395.172 250.868 394.034 250.938 392.532 250.938H389.777V242.403H395.095C396.488 242.403 397.773 242.442 398.826 242.55C399.693 242.667 400.413 242.93 400.978 243.341L402.185 244.209V238.806H383.746L384.729 240.054C385.178 240.62 385.519 241.372 385.782 242.279C386.045 243.225 386.2 244.434 386.2 245.868V259.612C386.2 261.163 386.084 262.333 385.821 263.24C385.596 264.109 385.217 264.86 384.729 265.465L383.746 266.713H387.369C390.992 266.713 393.554 266.752 394.986 266.791C396.194 266.868 397.548 266.868 399.019 266.868C400.413 266.868 401.473 266.605 402.224 266.116C402.944 265.628 403.432 264.985 403.617 264.302C403.803 263.659 403.881 263.132 403.881 262.643V261.318L402.75 261.961V261.969Z" fill="url(#paint17_linear_52_1117)"></path><path d="M426.391 263.209C426.128 262.225 426.012 261.093 426.012 259.55V245.845C426.012 243.085 426.461 241.318 427.444 239.992L428.388 238.783H419.982L420.926 239.992C421.414 240.597 421.754 241.349 421.979 242.217C422.242 243.202 422.397 244.403 422.397 245.845V258.264C421.189 256.078 419.533 253.659 417.907 251.357C414.888 247.016 411.761 242.519 411.761 239.574V238.822H404.67L405.615 240.031C406.102 240.636 406.443 241.388 406.667 242.256C406.931 243.163 407.047 244.372 407.047 245.884V259.628C407.047 262.388 406.598 264.194 405.615 265.481L404.67 266.69H413.038L412.094 265.481C411.606 264.876 411.265 264.124 411.041 263.256C410.778 262.271 410.662 261.14 410.662 259.597V247.364C411.947 249.628 413.681 252.085 415.337 254.426C418.356 258.69 421.484 263.109 421.484 265.907V266.659H423.821L423.899 266.922V266.659H428.35L427.405 265.45C426.956 264.845 426.616 264.093 426.384 263.225L426.391 263.209Z" fill="url(#paint18_linear_52_1117)"></path><path d="M192.893 258.225L192.328 259.279C191.647 260.527 190.78 261.434 189.611 262.07C188.481 262.713 187.01 263.016 185.237 263.016C183.24 263.016 181.583 262.566 180.182 261.62C178.711 260.636 177.62 259.434 176.861 257.845C176.033 256.256 175.654 254.558 175.654 252.597C175.654 250.636 176.033 248.899 176.823 247.271C177.543 245.721 178.634 244.481 180.066 243.535C181.459 242.628 183.155 242.178 185.082 242.178C186.592 242.178 188.024 242.558 189.378 243.271C190.694 243.992 191.6 245.008 192.204 246.364L192.846 247.876L195.107 243.271L194.766 242.891C193.675 241.643 192.312 240.628 190.617 239.76C188.999 238.93 187.11 238.512 185.074 238.512C182.396 238.512 180.097 239.155 178.139 240.434C176.18 241.752 174.671 243.419 173.618 245.535C172.526 247.651 172 250.031 172 252.597C172 255.163 172.526 257.465 173.587 259.62C174.678 261.736 176.188 263.473 178.108 264.752C180.027 266.039 182.365 266.674 185.044 266.674C187.226 266.674 189.193 266.256 190.849 265.504C192.506 264.752 193.907 263.69 195.068 262.256L195.447 261.806L192.885 258.217L192.893 258.225Z" fill="url(#paint19_linear_52_1117)"></path><path d="M270.233 263.287C269.97 262.341 269.854 261.209 269.854 259.698V246.178C269.854 243.457 270.303 241.682 271.286 240.442L272.23 239.233H263.932L264.876 240.442C265.325 241.047 265.704 241.76 265.929 242.628C266.192 243.612 266.347 244.783 266.347 246.178V258.411C265.139 256.225 263.521 253.884 261.935 251.574C258.954 247.31 255.866 242.891 255.866 239.985V239.233H248.852L249.797 240.442C250.246 241.047 250.625 241.76 250.849 242.628C251.113 243.535 251.229 244.705 251.229 246.178V259.698C251.229 262.419 250.78 264.194 249.797 265.473L248.852 266.682H257.112L256.168 265.473C255.719 264.868 255.339 264.155 255.115 263.287C254.852 262.341 254.735 261.209 254.735 259.698V247.69C256.02 249.915 257.677 252.333 259.334 254.636C262.314 258.829 265.364 263.209 265.364 265.922V266.674H272.153L271.208 265.465C270.79 264.86 270.457 264.147 270.225 263.279L270.233 263.287Z" fill="url(#paint20_linear_52_1117)"></path><path d="M220.644 235.767L220.606 235.992C221.132 236.938 221.209 238.147 220.83 239.202C220.567 239.884 220.11 240.411 219.545 240.791C219.506 240.791 219.468 240.829 219.468 240.829C219.429 240.829 219.429 240.868 219.39 240.868C219.173 240.977 218.887 241.093 218.531 241.194C218.678 240.93 218.833 240.682 219.019 240.457L219.963 239.248H211.672L212.617 240.457C213.066 241.062 213.445 241.775 213.67 242.643C213.933 243.628 214.088 244.798 214.088 246.194V257.372C214.088 261.636 211.107 263.147 208.321 263.147C204.969 263.147 202.554 260.729 202.554 257.372V246.194C202.554 243.473 203.003 241.698 203.986 240.457L204.93 239.248H196.562L197.506 240.457C197.955 241.062 198.335 241.775 198.559 242.643C198.822 243.55 198.939 244.682 198.939 246.194V257.372C198.939 262.767 202.863 266.698 208.29 266.698C213.716 266.698 217.602 262.698 217.602 257.372V246.194C217.602 244.341 217.811 242.922 218.26 241.814C218.895 241.736 219.591 241.643 220.133 241.55C220.249 241.55 220.358 241.512 220.474 241.473C220.621 241.434 220.737 241.434 220.853 241.395C223.872 240.643 224.476 238.372 224.662 236.411V236.372L220.667 235.767H220.644Z" fill="url(#paint21_linear_52_1117)"></path><path d="M242.543 241.566C242.59 241.566 242.629 241.55 242.675 241.543C242.791 241.543 242.899 241.504 243.016 241.465C243.163 241.426 243.279 241.426 243.395 241.388C246.414 240.636 247.018 238.364 247.203 236.403V236.364L243.209 235.76L243.17 235.985C243.697 236.93 243.774 238.14 243.395 239.194C243.132 239.876 242.675 240.403 242.11 240.783C242.071 240.783 242.033 240.822 242.033 240.822C241.994 240.822 241.994 240.86 241.955 240.86C241.901 240.891 241.831 240.922 241.769 240.946C239.679 239.419 237.086 238.55 234.191 238.55C226.613 238.55 221.147 244.481 221.147 252.597C221.147 260.713 226.651 266.643 234.191 266.643C241.731 266.643 247.234 260.713 247.234 252.597C247.234 247.977 245.462 244.07 242.543 241.558V241.566ZM234.191 263.023C228.648 263.023 224.801 258.721 224.801 252.605C224.801 246.488 228.648 242.186 234.191 242.186C239.733 242.186 243.619 246.488 243.619 252.605C243.619 258.721 239.733 263.023 234.191 263.023Z" fill="url(#paint22_linear_52_1117)"></path><path d="M288.145 250.829C284.794 251.054 283.284 254.791 283.284 254.791C283.81 254.643 284.492 254.527 285.281 254.411C286.071 254.333 286.938 254.264 287.882 254.333C289.276 254.45 289.996 254.597 290.522 254.674C291.164 254.822 291.536 254.899 292.558 254.752V260.419C292.031 261.062 291.311 261.55 290.336 261.969C289.314 262.419 287.998 262.651 286.45 262.651C284.53 262.651 282.943 262.202 281.589 261.326C280.195 260.419 279.104 259.248 278.384 257.736C277.633 256.225 277.254 254.566 277.254 252.674C277.254 250.783 277.633 249.085 278.384 247.581C279.104 246.07 280.118 244.899 281.473 243.992C282.789 243.124 284.376 242.705 286.295 242.705C287.727 242.705 289.082 243.047 290.444 243.76C291.691 244.442 292.596 245.419 293.123 246.705L293.912 248.519L294.779 246.744L296.064 244.14L296.328 243.574L295.91 243.124C294.779 241.837 293.386 240.86 291.799 240.031C290.143 239.202 288.293 238.822 286.295 238.822C283.694 238.822 281.395 239.426 279.437 240.713C277.478 242 276.008 243.659 274.947 245.775C273.894 247.891 273.36 250.194 273.36 252.721C273.36 255.248 273.887 257.519 274.947 259.628C276 261.744 277.471 263.442 279.437 264.69C281.395 265.977 283.694 266.581 286.295 266.581C287.805 266.581 289.159 266.395 290.328 266.016C291.459 265.674 292.48 265.225 293.309 264.659C294.098 264.171 294.741 263.674 295.267 263.186C295.716 262.767 296.095 262.395 296.289 262.132L296.436 261.907V251.411C293.045 252.659 291.536 250.581 288.138 250.845L288.145 250.829Z" fill="url(#paint23_linear_52_1117)"></path><path d="M293.239 96V141.194L270.674 118.597L293.239 96Z" fill="url(#paint24_linear_52_1117)"></path><path d="M339.073 109.233L307.157 141.194V109.233H339.073Z" fill="url(#paint25_linear_52_1117)"></path><path d="M362.126 151.047H316.996L339.561 128.45L362.126 151.047Z" fill="url(#paint26_linear_52_1117)"></path><path d="M348.912 164.984V196.938L316.996 164.984H348.912Z" fill="url(#paint27_linear_52_1117)"></path><path d="M329.722 197.434L307.157 220.031V174.837L329.722 197.434Z" fill="url(#paint28_linear_52_1117)"></path><path d="M293.239 174.837V206.798H261.331L293.239 174.837Z" fill="url(#paint29_linear_52_1117)"></path><path d="M283.4 164.984L260.835 187.581L238.271 164.984H283.4Z" fill="url(#paint30_linear_52_1117)"></path><path d="M283.4 151.047H251.492V119.093L283.4 151.047Z" fill="url(#paint31_linear_52_1117)"></path><path d="M310.045 158.016L316.996 164.984H307.157V174.837L300.198 167.868L293.239 174.837V164.984H283.4L290.359 158.016L283.4 151.047H293.239V141.194L300.198 148.163L307.157 141.194V151.047H316.996L310.045 158.016Z" fill="url(#paint32_linear_52_1117)"></path></g><defs><linearGradient id="paint0_linear_52_1117" x1="300.194" y1="278.907" x2="300.194" y2="295.674" gradientUnits="userSpaceOnUse"><stop stop-color="#FFDE9D"></stop><stop offset="1" stop-color="#D2AA5C"></stop></linearGradient><linearGradient id="paint1_linear_52_1117" x1="300.194" y1="278.907" x2="300.194" y2="295.674" gradientUnits="userSpaceOnUse"><stop stop-color="#FFDE9D"></stop><stop offset="1" stop-color="#D2AA5C"></stop></linearGradient><linearGradient id="paint2_linear_52_1117" x1="300.194" y1="278.907" x2="300.194" y2="295.674" gradientUnits="userSpaceOnUse"><stop stop-color="#FFDE9D"></stop><stop offset="1" stop-color="#D2AA5C"></stop></linearGradient><linearGradient id="paint3_linear_52_1117" x1="300.194" y1="278.907" x2="300.194" y2="295.674" gradientUnits="userSpaceOnUse"><stop stop-color="#FFDE9D"></stop><stop offset="1" stop-color="#D2AA5C"></stop></linearGradient><linearGradient id="paint4_linear_52_1117" x1="300.194" y1="278.907" x2="300.194" y2="295.674" gradientUnits="userSpaceOnUse"><stop stop-color="#FFDE9D"></stop><stop offset="1" stop-color="#D2AA5C"></stop></linearGradient><linearGradient id="paint5_linear_52_1117" x1="300.194" y1="278.907" x2="300.194" y2="295.674" gradientUnits="userSpaceOnUse"><stop stop-color="#FFDE9D"></stop><stop offset="1" stop-color="#D2AA5C"></stop></linearGradient><linearGradient id="paint6_linear_52_1117" x1="300.194" y1="278.907" x2="300.194" y2="295.674" gradientUnits="userSpaceOnUse"><stop stop-color="#FFDE9D"></stop><stop offset="1" stop-color="#D2AA5C"></stop></linearGradient><linearGradient id="paint7_linear_52_1117" x1="300.194" y1="278.907" x2="300.194" y2="295.674" gradientUnits="userSpaceOnUse"><stop stop-color="#FFDE9D"></stop><stop offset="1" stop-color="#D2AA5C"></stop></linearGradient><linearGradient id="paint8_linear_52_1117" x1="300.194" y1="278.907" x2="300.194" y2="295.674" gradientUnits="userSpaceOnUse"><stop stop-color="#FFDE9D"></stop><stop offset="1" stop-color="#D2AA5C"></stop></linearGradient><linearGradient id="paint9_linear_52_1117" x1="300.194" y1="278.907" x2="300.194" y2="295.674" gradientUnits="userSpaceOnUse"><stop stop-color="#FFDE9D"></stop><stop offset="1" stop-color="#D2AA5C"></stop></linearGradient><linearGradient id="paint10_linear_52_1117" x1="300.194" y1="278.907" x2="300.194" y2="295.674" gradientUnits="userSpaceOnUse"><stop stop-color="#FFDE9D"></stop><stop offset="1" stop-color="#D2AA5C"></stop></linearGradient><linearGradient id="paint11_linear_52_1117" x1="300.194" y1="278.907" x2="300.194" y2="295.674" gradientUnits="userSpaceOnUse"><stop stop-color="#FFDE9D"></stop><stop offset="1" stop-color="#D2AA5C"></stop></linearGradient><linearGradient id="paint12_linear_52_1117" x1="300.194" y1="278.907" x2="300.194" y2="295.674" gradientUnits="userSpaceOnUse"><stop stop-color="#FFDE9D"></stop><stop offset="1" stop-color="#D2AA5C"></stop></linearGradient><linearGradient id="paint13_linear_52_1117" x1="300.194" y1="232.798" x2="300.194" y2="266.923" gradientUnits="userSpaceOnUse"><stop stop-color="#FFDE9D"></stop><stop offset="1" stop-color="#D2AA5C"></stop></linearGradient><linearGradient id="paint14_linear_52_1117" x1="300.194" y1="232.798" x2="300.194" y2="266.923" gradientUnits="userSpaceOnUse"><stop stop-color="#FFDE9D"></stop><stop offset="1" stop-color="#D2AA5C"></stop></linearGradient><linearGradient id="paint15_linear_52_1117" x1="300.194" y1="232.798" x2="300.194" y2="266.923" gradientUnits="userSpaceOnUse"><stop stop-color="#FFDE9D"></stop><stop offset="1" stop-color="#D2AA5C"></stop></linearGradient><linearGradient id="paint16_linear_52_1117" x1="300.194" y1="232.798" x2="300.194" y2="266.923" gradientUnits="userSpaceOnUse"><stop stop-color="#FFDE9D"></stop><stop offset="1" stop-color="#D2AA5C"></stop></linearGradient><linearGradient id="paint17_linear_52_1117" x1="300.194" y1="232.798" x2="300.194" y2="266.923" gradientUnits="userSpaceOnUse"><stop stop-color="#FFDE9D"></stop><stop offset="1" stop-color="#D2AA5C"></stop></linearGradient><linearGradient id="paint18_linear_52_1117" x1="300.194" y1="232.798" x2="300.194" y2="266.923" gradientUnits="userSpaceOnUse"><stop stop-color="#FFDE9D"></stop><stop offset="1" stop-color="#D2AA5C"></stop></linearGradient><linearGradient id="paint19_linear_52_1117" x1="300.194" y1="232.798" x2="300.194" y2="266.923" gradientUnits="userSpaceOnUse"><stop stop-color="#FFDE9D"></stop><stop offset="1" stop-color="#D2AA5C"></stop></linearGradient><linearGradient id="paint20_linear_52_1117" x1="300.194" y1="232.798" x2="300.194" y2="266.923" gradientUnits="userSpaceOnUse"><stop stop-color="#FFDE9D"></stop><stop offset="1" stop-color="#D2AA5C"></stop></linearGradient><linearGradient id="paint21_linear_52_1117" x1="300.194" y1="232.798" x2="300.194" y2="266.923" gradientUnits="userSpaceOnUse"><stop stop-color="#FFDE9D"></stop><stop offset="1" stop-color="#D2AA5C"></stop></linearGradient><linearGradient id="paint22_linear_52_1117" x1="300.194" y1="232.798" x2="300.194" y2="266.923" gradientUnits="userSpaceOnUse"><stop stop-color="#FFDE9D"></stop><stop offset="1" stop-color="#D2AA5C"></stop></linearGradient><linearGradient id="paint23_linear_52_1117" x1="300.194" y1="232.798" x2="300.194" y2="266.923" gradientUnits="userSpaceOnUse"><stop stop-color="#FFDE9D"></stop><stop offset="1" stop-color="#D2AA5C"></stop></linearGradient><linearGradient id="paint24_linear_52_1117" x1="300.198" y1="96" x2="300.198" y2="220.031" gradientUnits="userSpaceOnUse"><stop stop-color="#FFDE9D"></stop><stop offset="1" stop-color="#D2AA5C"></stop></linearGradient><linearGradient id="paint25_linear_52_1117" x1="300.198" y1="96" x2="300.198" y2="220.031" gradientUnits="userSpaceOnUse"><stop stop-color="#FFDE9D"></stop><stop offset="1" stop-color="#D2AA5C"></stop></linearGradient><linearGradient id="paint26_linear_52_1117" x1="300.198" y1="96" x2="300.198" y2="220.031" gradientUnits="userSpaceOnUse"><stop stop-color="#FFDE9D"></stop><stop offset="1" stop-color="#D2AA5C"></stop></linearGradient><linearGradient id="paint27_linear_52_1117" x1="300.198" y1="96" x2="300.198" y2="220.031" gradientUnits="userSpaceOnUse"><stop stop-color="#FFDE9D"></stop><stop offset="1" stop-color="#D2AA5C"></stop></linearGradient><linearGradient id="paint28_linear_52_1117" x1="300.198" y1="96" x2="300.198" y2="220.031" gradientUnits="userSpaceOnUse"><stop stop-color="#FFDE9D"></stop><stop offset="1" stop-color="#D2AA5C"></stop></linearGradient><linearGradient id="paint29_linear_52_1117" x1="300.198" y1="96" x2="300.198" y2="220.031" gradientUnits="userSpaceOnUse"><stop stop-color="#FFDE9D"></stop><stop offset="1" stop-color="#D2AA5C"></stop></linearGradient><linearGradient id="paint30_linear_52_1117" x1="300.198" y1="96" x2="300.198" y2="220.031" gradientUnits="userSpaceOnUse"><stop stop-color="#FFDE9D"></stop><stop offset="1" stop-color="#D2AA5C"></stop></linearGradient><linearGradient id="paint31_linear_52_1117" x1="300.198" y1="96" x2="300.198" y2="220.031" gradientUnits="userSpaceOnUse"><stop stop-color="#FFDE9D"></stop><stop offset="1" stop-color="#D2AA5C"></stop></linearGradient><linearGradient id="paint32_linear_52_1117" x1="300.198" y1="96" x2="300.198" y2="220.031" gradientUnits="userSpaceOnUse"><stop stop-color="#FFDE9D"></stop><stop offset="1" stop-color="#D2AA5C"></stop></linearGradient><clipPath id="clip0_52_1117"><rect width="257" height="200" fill="white" transform="translate(172 96)"></rect></clipPath></defs></svg>