<svg xmlns="http://www.w3.org/2000/svg" width="168" height="40" viewBox="0 0 168 40" fill="none"><g clip-path="url(#clip0_37_55)"><path d="M154.09 12.4C153.096 12.1675 152.299 11.8075 151.732 11.4475C151.182 11.825 150.382 12.1675 149.391 12.4L149.196 12.275C149.958 11.9875 150.686 11.125 151.182 10.585L152.121 10.4225C152.637 10.925 153.434 11.95 154.268 12.275L154.09 12.4Z" fill="url(#paint0_linear_37_55)"></path><path d="M121.992 16.5825C121.497 15.575 120.804 14.8025 119.881 14.1725C118.976 13.5625 117.895 13.255 116.652 13.255H111.489L111.95 13.8475C112.162 14.1175 112.323 14.46 112.446 14.89C112.569 15.3225 112.624 15.8975 112.624 16.615V23.16C112.624 23.8975 112.569 24.455 112.446 24.885C112.323 25.3175 112.162 25.675 111.95 25.945L111.489 26.5375H116.652C118.532 26.4825 120.041 25.8175 121.104 24.5425C122.168 23.285 122.718 21.72 122.718 19.905C122.752 18.7 122.488 17.5675 121.99 16.58L121.992 16.5825ZM119.013 24.185C118.374 24.6175 117.594 24.8325 116.672 24.8325H114.348V14.9975H116.654C118.056 15.0325 119.121 15.5 119.883 16.435C120.663 17.37 121.055 18.5375 121.055 19.9225C121.055 20.8575 120.878 21.6675 120.522 22.4025C120.167 23.14 119.671 23.715 119.015 24.1825L119.013 24.185Z" fill="url(#paint1_linear_37_55)"></path><path d="M130.705 13.2725L131.149 13.8475C131.379 14.135 131.539 14.495 131.645 14.9075C131.768 15.375 131.84 15.95 131.84 16.6325V22.025C131.84 24.0925 130.421 24.83 129.072 24.83C127.476 24.83 126.304 23.6625 126.304 22.025V16.6325C126.304 15.32 126.517 14.475 126.978 13.845L127.422 13.27H123.485L123.929 13.845C124.158 14.1325 124.319 14.4925 124.425 14.905C124.548 15.355 124.602 15.8925 124.602 16.63V22.0225C124.602 24.63 126.482 26.535 129.072 26.535C131.662 26.535 133.525 24.5925 133.525 22.0225V16.63C133.525 15.3175 133.737 14.4725 134.198 13.8425L134.642 13.2675H130.705V13.2725Z" fill="url(#paint2_linear_37_55)"></path><path d="M142.469 13.2725L142.787 13.8125C142.93 14.045 142.999 14.315 142.999 14.6025C142.999 14.925 142.911 15.2325 142.77 15.4825L140.784 18.5925L138.816 15.5C138.638 15.195 138.532 14.8875 138.532 14.62C138.532 14.3675 138.621 14.0975 138.781 13.83L139.119 13.2725H135.163L135.73 13.8825C135.942 14.115 136.581 15.0875 136.919 15.6075C137.025 15.7875 137.131 15.93 137.185 16.0025L139.953 20.55V23.2825C139.936 24.5225 139.724 25.35 139.262 25.96L138.818 26.535H142.738L142.331 25.96C142.102 25.6375 141.924 25.2775 141.815 24.9C141.709 24.4675 141.655 23.9475 141.638 23.2825V20.5675L144.405 16C144.635 15.605 145.594 14.1475 145.861 13.8775L146.428 13.2675H142.472L142.469 13.2725Z" fill="url(#paint3_linear_37_55)"></path><path d="M155.935 24.3125C155.368 24.655 154.64 24.87 153.752 24.925C152.652 25.015 151.944 25.0325 151.534 25.0325C151.34 25.0325 151.162 25.0325 151.002 25.015H150.701C150.382 24.9975 150.096 25.015 149.832 25.015V20.7725H151.127C151.784 20.7725 152.334 20.79 152.706 20.845C152.99 20.9 153.256 21.0075 153.523 21.2225L154.09 21.655V18.15L153.505 18.6175C153.256 18.8325 152.99 18.94 152.706 18.9775C152.368 19.0325 151.838 19.0675 151.127 19.0675H149.832V15.005H152.334C152.99 15.005 153.594 15.0225 154.09 15.0775C154.497 15.1325 154.835 15.2575 155.101 15.455L155.669 15.8675V13.2975H146.993L147.454 13.89C147.666 14.16 147.827 14.52 147.95 14.95C148.074 15.4 148.145 15.975 148.145 16.6575V23.2025C148.145 23.94 148.091 24.4975 147.967 24.9275C147.861 25.34 147.684 25.7 147.452 25.9875L146.991 26.58H148.693C150.395 26.58 151.601 26.5975 152.277 26.615C152.844 26.65 153.483 26.65 154.174 26.65C154.83 26.65 155.326 26.525 155.681 26.29C156.019 26.0575 156.248 25.75 156.337 25.4275C156.426 25.1225 156.46 24.87 156.46 24.6375V24.0075L155.928 24.3125H155.935Z" fill="url(#paint4_linear_37_55)"></path><path d="M167.06 24.905C166.937 24.4375 166.883 23.8975 166.883 23.16V16.635C166.883 15.3225 167.095 14.4775 167.556 13.8475L168 13.2725H164.043L164.487 13.8475C164.717 14.135 164.877 14.495 164.983 14.9075C165.106 15.375 165.178 15.95 165.178 16.6325V22.5475C164.611 21.505 163.829 20.355 163.066 19.2575C161.648 17.19 160.175 15.05 160.175 13.6475V13.2875H156.84L157.284 13.8625C157.514 14.15 157.674 14.51 157.78 14.9225C157.904 15.355 157.958 15.93 157.958 16.6475V23.1925C157.958 24.505 157.746 25.3675 157.284 25.98L156.84 26.555H160.777L160.333 25.98C160.104 25.6925 159.944 25.3325 159.837 24.92C159.714 24.4525 159.66 23.9125 159.66 23.175V17.35C160.264 18.4275 161.078 19.5975 161.86 20.7125C163.279 22.745 164.751 24.8475 164.751 26.1775V26.5375H165.851L165.886 26.6625V26.5375H167.98L167.536 25.9625C167.324 25.675 167.164 25.315 167.058 24.9025L167.06 24.905Z" fill="url(#paint5_linear_37_55)"></path><path d="M57.1981 22.5325L56.9317 23.035C56.6135 23.6275 56.204 24.06 55.6539 24.365C55.1211 24.67 54.4304 24.815 53.5967 24.815C52.6568 24.815 51.8749 24.6 51.2187 24.15C50.528 23.6825 50.0125 23.1075 49.6573 22.3525C49.2675 21.5975 49.0899 20.7875 49.0899 19.8525C49.0899 18.9175 49.2675 18.09 49.64 17.3175C49.9779 16.58 50.491 15.9875 51.1644 15.5375C51.8206 15.105 52.6198 14.89 53.5227 14.89C54.2331 14.89 54.9065 15.07 55.5454 15.4125C56.167 15.755 56.5913 16.24 56.875 16.8875L57.1759 17.6075L58.2391 15.415L58.0788 15.235C57.5632 14.6425 56.9268 14.1575 56.1276 13.7425C55.3653 13.3475 54.4773 13.15 53.5202 13.15C52.2597 13.15 51.1792 13.455 50.2567 14.0675C49.3341 14.6975 48.6237 15.4875 48.1279 16.495C47.6123 17.5025 47.3656 18.635 47.3656 19.8575C47.3656 21.08 47.6148 22.1775 48.1106 23.2025C48.6262 24.21 49.3341 25.035 50.2394 25.6475C51.1447 26.26 52.2449 26.565 53.5029 26.565C54.5316 26.565 55.4541 26.3675 56.2336 26.0075C57.0131 25.6475 57.6693 25.145 58.2194 24.4625L58.397 24.2475L57.1907 22.54L57.1981 22.5325Z" fill="url(#paint6_linear_37_55)"></path><path d="M93.5878 24.94C93.4644 24.49 93.4102 23.95 93.4102 23.2325V16.7975C93.4102 15.5025 93.6223 14.6575 94.0836 14.065L94.5276 13.49H90.6252L91.0692 14.065C91.2813 14.3525 91.4589 14.695 91.565 15.1075C91.6884 15.575 91.7599 16.1325 91.7599 16.7975V22.6225C91.1925 21.58 90.4303 20.465 89.6853 19.3675C88.2842 17.335 86.8288 15.2325 86.8288 13.8475V13.4875H83.5283L83.9723 14.0625C84.1845 14.35 84.3621 14.6925 84.4682 15.105C84.5915 15.5375 84.6458 16.095 84.6458 16.795V23.23C84.6458 24.525 84.4336 25.37 83.9723 25.98L83.5283 26.555H87.4135L86.9694 25.98C86.7573 25.6925 86.5797 25.35 86.4736 24.9375C86.3503 24.4875 86.296 23.9475 86.296 23.23V17.5125C86.9004 18.5725 87.6799 19.725 88.4594 20.82C89.8605 22.815 91.2986 24.9 91.2986 26.195V26.555H94.4906L94.0466 25.98C93.8517 25.6925 93.6914 25.35 93.5853 24.9375L93.5878 24.94Z" fill="url(#paint7_linear_37_55)"></path><path d="M70.2572 11.835L70.2399 11.9425C70.489 12.3925 70.5236 12.9675 70.346 13.47C70.2226 13.7925 70.008 14.045 69.7441 14.225C69.7268 14.225 69.7095 14.2425 69.7095 14.2425C69.6923 14.2425 69.6923 14.26 69.675 14.26C69.5739 14.31 69.4407 14.3675 69.2705 14.415C69.3395 14.2875 69.4135 14.1725 69.4999 14.0625L69.9439 13.4875H66.0415L66.4855 14.0625C66.6976 14.35 66.8752 14.6925 66.9813 15.105C67.1046 15.5725 67.1762 16.13 67.1762 16.795V22.1175C67.1762 24.15 65.7751 24.8675 64.4627 24.8675C62.884 24.8675 61.7493 23.7175 61.7493 22.1175V16.795C61.7493 15.5 61.9614 14.655 62.4227 14.0625L62.8668 13.4875H58.9298L59.3738 14.0625C59.586 14.35 59.7636 14.6925 59.8696 15.105C59.993 15.5375 60.0472 16.075 60.0472 16.795V22.1175C60.0472 24.6875 61.8924 26.5575 64.4455 26.5575C66.9986 26.5575 68.8264 24.6525 68.8264 22.1175V16.795C68.8264 15.9125 68.9251 15.2375 69.1348 14.71C69.4333 14.6725 69.7638 14.6275 70.0154 14.5825C70.0697 14.5825 70.1215 14.565 70.1758 14.5475C70.2473 14.53 70.2991 14.53 70.3534 14.5125C71.7717 14.1525 72.0554 13.075 72.1442 12.14V12.1225L70.2646 11.835H70.2572Z" fill="url(#paint8_linear_37_55)"></path><path d="M80.5559 14.5975C80.5756 14.595 80.5978 14.59 80.6175 14.5875C80.6718 14.5875 80.7236 14.57 80.7779 14.5525C80.8494 14.535 80.9012 14.535 80.9555 14.5175C82.3739 14.1575 82.6576 13.08 82.7464 12.145V12.1275L80.8667 11.84L80.8494 11.9475C81.0986 12.3975 81.1331 12.9725 80.9555 13.475C80.8321 13.7975 80.6175 14.05 80.3511 14.23C80.3339 14.23 80.3166 14.2475 80.3166 14.2475C80.2993 14.2475 80.2993 14.265 80.2821 14.265C80.2549 14.2775 80.2253 14.2925 80.1933 14.3075C79.209 13.5825 77.9904 13.1675 76.6288 13.1675C73.0643 13.1675 70.4915 15.99 70.4915 19.855C70.4915 23.72 73.0816 26.5425 76.6288 26.5425C80.176 26.5425 82.7661 23.72 82.7661 19.855C82.7661 17.655 81.9323 15.795 80.5583 14.5975H80.5559ZM76.6263 24.815C74.019 24.815 72.2084 22.765 72.2084 19.8525C72.2084 16.94 74.0165 14.89 76.6263 14.89C79.2362 14.89 81.0616 16.94 81.0616 19.8525C81.0616 22.765 79.2337 24.815 76.6263 24.815Z" fill="url(#paint9_linear_37_55)"></path><path d="M102.014 19.0075C100.435 19.115 99.725 20.895 99.725 20.895C99.9742 20.8225 100.292 20.77 100.665 20.715C101.037 20.68 101.444 20.6425 101.888 20.68C102.545 20.735 102.883 20.805 103.129 20.8425C103.43 20.915 103.608 20.95 104.086 20.8775V23.575C103.837 23.88 103.502 24.115 103.04 24.3125C102.562 24.5275 101.94 24.635 101.213 24.635C100.307 24.635 99.5622 24.42 98.9234 24.005C98.2672 23.5725 97.7516 23.0175 97.4162 22.2975C97.061 21.5775 96.8833 20.7875 96.8833 19.8875C96.8833 18.9875 97.061 18.18 97.4162 17.46C97.7541 16.74 98.2327 16.1825 98.8716 15.7525C99.4932 15.34 100.238 15.14 101.141 15.14C101.814 15.14 102.453 15.3025 103.092 15.6425C103.677 15.965 104.104 16.4325 104.353 17.045L104.725 17.9075L105.132 17.0625L105.737 15.8225L105.86 15.5525L105.665 15.3375C105.132 14.725 104.476 14.26 103.731 13.8625C102.952 13.4675 102.081 13.2875 101.141 13.2875C99.9175 13.2875 98.8346 13.575 97.912 14.1875C96.9894 14.7975 96.2987 15.59 95.8004 16.5975C95.3046 17.605 95.0555 18.7 95.0555 19.905C95.0555 21.11 95.3046 22.1875 95.8004 23.195C96.2963 24.2025 96.9894 25.01 97.912 25.605C98.8346 26.215 99.9175 26.505 101.141 26.505C101.851 26.505 102.49 26.415 103.038 26.235C103.571 26.0725 104.049 25.8575 104.439 25.5875C104.812 25.355 105.112 25.12 105.362 24.8875C105.574 24.69 105.751 24.51 105.84 24.385L105.912 24.2775V19.28C104.316 19.8725 103.605 18.885 102.009 19.01L102.014 19.0075Z" fill="url(#paint10_linear_37_55)"></path><path d="M17.5179 0V14.575L10.3267 7.2875L17.5179 0Z" fill="url(#paint11_linear_37_55)"></path><path d="M32.1223 4.2675L21.9535 14.575V4.2675H32.1223Z" fill="url(#paint12_linear_37_55)"></path><path d="M39.4714 17.7525H25.089L32.2802 10.465L39.4714 17.7525Z" fill="url(#paint13_linear_37_55)"></path><path d="M35.2603 22.2475V32.5525L25.089 22.2475H35.2603Z" fill="url(#paint14_linear_37_55)"></path><path d="M29.1447 32.7125L21.9535 40V25.425L29.1447 32.7125Z" fill="url(#paint15_linear_37_55)"></path><path d="M17.5179 25.425V35.7325H7.34908L17.5179 25.425Z" fill="url(#paint16_linear_37_55)"></path><path d="M14.3824 22.2475L7.19119 29.535L0 22.2475H14.3824Z" fill="url(#paint17_linear_37_55)"></path><path d="M14.3824 17.7525H4.2111V7.4475L14.3824 17.7525Z" fill="url(#paint18_linear_37_55)"></path><path d="M22.8712 20L25.089 22.2475H21.9535V25.425L19.7357 23.1775L17.5179 25.425V22.2475H14.3824L16.6002 20L14.3824 17.7525H17.5179V14.575L19.7357 16.8225L21.9535 14.575V17.7525H25.089L22.8712 20Z" fill="url(#paint19_linear_37_55)"></path></g><defs><linearGradient id="paint0_linear_37_55" x1="107.683" y1="10.4225" x2="107.683" y2="26.6625" gradientUnits="userSpaceOnUse"><stop stop-color="#FFDE9D"></stop><stop offset="1" stop-color="#D2AA5C"></stop></linearGradient><linearGradient id="paint1_linear_37_55" x1="107.683" y1="10.4225" x2="107.683" y2="26.6625" gradientUnits="userSpaceOnUse"><stop stop-color="#FFDE9D"></stop><stop offset="1" stop-color="#D2AA5C"></stop></linearGradient><linearGradient id="paint2_linear_37_55" x1="107.683" y1="10.4225" x2="107.683" y2="26.6625" gradientUnits="userSpaceOnUse"><stop stop-color="#FFDE9D"></stop><stop offset="1" stop-color="#D2AA5C"></stop></linearGradient><linearGradient id="paint3_linear_37_55" x1="107.683" y1="10.4225" x2="107.683" y2="26.6625" gradientUnits="userSpaceOnUse"><stop stop-color="#FFDE9D"></stop><stop offset="1" stop-color="#D2AA5C"></stop></linearGradient><linearGradient id="paint4_linear_37_55" x1="107.683" y1="10.4225" x2="107.683" y2="26.6625" gradientUnits="userSpaceOnUse"><stop stop-color="#FFDE9D"></stop><stop offset="1" stop-color="#D2AA5C"></stop></linearGradient><linearGradient id="paint5_linear_37_55" x1="107.683" y1="10.4225" x2="107.683" y2="26.6625" gradientUnits="userSpaceOnUse"><stop stop-color="#FFDE9D"></stop><stop offset="1" stop-color="#D2AA5C"></stop></linearGradient><linearGradient id="paint6_linear_37_55" x1="107.683" y1="10.4225" x2="107.683" y2="26.6625" gradientUnits="userSpaceOnUse"><stop stop-color="#FFDE9D"></stop><stop offset="1" stop-color="#D2AA5C"></stop></linearGradient><linearGradient id="paint7_linear_37_55" x1="107.683" y1="10.4225" x2="107.683" y2="26.6625" gradientUnits="userSpaceOnUse"><stop stop-color="#FFDE9D"></stop><stop offset="1" stop-color="#D2AA5C"></stop></linearGradient><linearGradient id="paint8_linear_37_55" x1="107.683" y1="10.4225" x2="107.683" y2="26.6625" gradientUnits="userSpaceOnUse"><stop stop-color="#FFDE9D"></stop><stop offset="1" stop-color="#D2AA5C"></stop></linearGradient><linearGradient id="paint9_linear_37_55" x1="107.683" y1="10.4225" x2="107.683" y2="26.6625" gradientUnits="userSpaceOnUse"><stop stop-color="#FFDE9D"></stop><stop offset="1" stop-color="#D2AA5C"></stop></linearGradient><linearGradient id="paint10_linear_37_55" x1="107.683" y1="10.4225" x2="107.683" y2="26.6625" gradientUnits="userSpaceOnUse"><stop stop-color="#FFDE9D"></stop><stop offset="1" stop-color="#D2AA5C"></stop></linearGradient><linearGradient id="paint11_linear_37_55" x1="19.7357" y1="0" x2="19.7357" y2="40" gradientUnits="userSpaceOnUse"><stop stop-color="#FFDE9D"></stop><stop offset="1" stop-color="#D2AA5C"></stop></linearGradient><linearGradient id="paint12_linear_37_55" x1="19.7357" y1="0" x2="19.7357" y2="40" gradientUnits="userSpaceOnUse"><stop stop-color="#FFDE9D"></stop><stop offset="1" stop-color="#D2AA5C"></stop></linearGradient><linearGradient id="paint13_linear_37_55" x1="19.7357" y1="0" x2="19.7357" y2="40" gradientUnits="userSpaceOnUse"><stop stop-color="#FFDE9D"></stop><stop offset="1" stop-color="#D2AA5C"></stop></linearGradient><linearGradient id="paint14_linear_37_55" x1="19.7357" y1="0" x2="19.7357" y2="40" gradientUnits="userSpaceOnUse"><stop stop-color="#FFDE9D"></stop><stop offset="1" stop-color="#D2AA5C"></stop></linearGradient><linearGradient id="paint15_linear_37_55" x1="19.7357" y1="0" x2="19.7357" y2="40" gradientUnits="userSpaceOnUse"><stop stop-color="#FFDE9D"></stop><stop offset="1" stop-color="#D2AA5C"></stop></linearGradient><linearGradient id="paint16_linear_37_55" x1="19.7357" y1="0" x2="19.7357" y2="40" gradientUnits="userSpaceOnUse"><stop stop-color="#FFDE9D"></stop><stop offset="1" stop-color="#D2AA5C"></stop></linearGradient><linearGradient id="paint17_linear_37_55" x1="19.7357" y1="0" x2="19.7357" y2="40" gradientUnits="userSpaceOnUse"><stop stop-color="#FFDE9D"></stop><stop offset="1" stop-color="#D2AA5C"></stop></linearGradient><linearGradient id="paint18_linear_37_55" x1="19.7357" y1="0" x2="19.7357" y2="40" gradientUnits="userSpaceOnUse"><stop stop-color="#FFDE9D"></stop><stop offset="1" stop-color="#D2AA5C"></stop></linearGradient><linearGradient id="paint19_linear_37_55" x1="19.7357" y1="0" x2="19.7357" y2="40" gradientUnits="userSpaceOnUse"><stop stop-color="#FFDE9D"></stop><stop offset="1" stop-color="#D2AA5C"></stop></linearGradient><clipPath id="clip0_37_55"><rect width="168" height="40" fill="white"></rect></clipPath></defs></svg>