<svg xmlns="http://www.w3.org/2000/svg" width="200" height="200" viewBox="0 0 200 200" fill="none"><path d="M30.0638 52.7652C27.8841 52.9021 25.6977 52.1423 23.5112 50.4586C21.2291 48.6995 19.8626 46.653 19.4389 44.3121C19.0153 42.0055 19.5756 39.8152 21.1334 37.796C22.3018 36.2697 23.723 35.0034 25.4039 34.0315L29.7631 38.193L29.606 38.3573C26.34 36.0917 23.6479 36.3176 21.5639 39.0212C20.5117 40.3833 20.1632 41.8412 20.4843 43.3675C20.8055 44.8939 21.7825 46.2833 23.3814 47.5222C25.4039 49.0828 27.4469 49.8289 29.524 49.7399C31.6011 49.6509 33.2888 48.7816 34.5734 47.1184C36.1927 45.0102 36.22 42.9911 34.628 41.0267L34.792 40.8966C37.5046 43.9219 37.7642 46.8651 35.5436 49.7536C34.0814 51.6564 32.2639 52.6557 30.0638 52.7789V52.7652Z" fill="#0D1F3D"></path><path d="M39.7594 19.8152L39.8756 19.9452C38.878 21.0677 38.919 21.9849 40.142 23.3675L45.6355 29.5482C48.6624 32.95 48.7786 36.167 45.6902 38.9254C42.4993 41.7727 39.0488 41.4989 35.9399 38.0013L30.1936 31.54C29.1824 30.4038 28.547 30.3011 27.3171 31.1567L27.2009 31.0267L32.2708 26.4955L32.3869 26.6256C31.3347 27.8371 31.3142 28.4668 32.4074 29.6919L37.9556 35.9274C40.593 38.8911 43.1963 39.3839 45.4784 37.3442C47.8015 35.2703 47.6033 32.6967 44.8703 29.6167L39.7457 23.8535C38.4885 22.4366 37.3953 22.3887 35.8443 23.5386L35.7281 23.4086L39.7662 19.8083L39.7594 19.8152Z" fill="#0D1F3D"></path><path d="M52.1198 30.2601C49.824 29.5756 47.9724 28.0492 46.6058 25.681C45.2324 23.3196 44.8293 20.9514 45.3691 18.6105C45.9157 16.2765 47.3027 14.4421 49.5097 13.1553C51.7372 11.8617 54.0193 11.5605 56.3151 12.245C58.6109 12.9295 60.442 14.4695 61.8086 16.8377C63.1751 19.1991 63.6056 21.5605 63.0658 23.8946C62.5192 26.2286 61.1321 28.0629 58.8978 29.3634C56.6909 30.6502 54.4088 30.9514 52.113 30.2669L52.1198 30.2601ZM58.5767 28.7885C60.1687 27.8576 61.0296 26.516 61.1253 24.7638C61.2005 23.0253 60.524 20.8966 59.0892 18.4257C56.1853 13.4154 53.1105 11.8343 49.8513 13.7303C46.6195 15.6126 46.4623 19.0691 49.3662 24.0794C50.8011 26.5503 52.3043 28.193 53.8485 28.9938C55.3927 29.7946 56.9847 29.7193 58.5767 28.7885Z" fill="#0D1F3D"></path><path d="M72.0644 3.99038L77.2504 2.29291L77.3051 2.46403C75.754 3.16218 75.4124 4.07252 75.9864 5.82474L80.6394 20.0889L80.5643 20.1095L64.3161 9.32234L67.9989 20.6023C68.6617 22.6215 69.4953 23.0664 71.3606 22.6694L71.4153 22.8405L66.1336 24.5722L66.0789 24.4011C67.7324 23.6755 68.0604 22.8199 67.4045 20.8008L63.4757 8.77477C62.5054 8.15876 61.5557 7.85759 60.6948 7.90551L60.6401 7.73439L65.013 6.30386L78.3641 15.1334L75.3919 6.01639C74.7975 4.18887 74.0254 3.7782 72.1259 4.15465L72.0712 3.98354L72.0644 3.99038Z" fill="#0D1F3D"></path><path d="M98.4045 9.04858L98.425 9.22654C96.9628 9.56877 96.6143 10.089 96.7783 11.6016L97.2976 16.3039C95.7466 17.7002 93.8061 18.5215 91.4966 18.7816C88.784 19.0828 86.5019 18.4668 84.6639 16.9678C82.8191 15.4688 81.7464 13.3196 81.4389 10.527C81.1246 7.65912 81.7259 5.27719 83.2701 3.39491C84.8143 1.51949 87.0622 0.431191 90.0003 0.102649C91.8861 -0.10269 93.7036 0.027358 95.4801 0.485948L95.5279 6.00956L95.3298 6.0301C94.7422 2.29977 92.7607 0.506482 89.6518 0.848713C85.9075 1.25939 83.9875 4.5585 84.5478 9.66459C84.8416 12.3545 85.6683 14.5037 87.0075 16.0917C88.3536 17.7002 89.9319 18.3915 91.7631 18.1862C93.0682 18.0424 94.2502 17.4538 94.6533 16.7214L94.1819 12.4161C94.0794 11.4579 93.8061 10.8282 93.362 10.5202C92.9247 10.2395 92.0159 10.0821 90.6699 10.0821L90.6494 9.90415L98.4113 9.04858H98.4045Z" fill="#0D1F3D"></path><path d="M113.156 1.02668C118.957 1.8891 121.875 5.62627 121.055 11.1362C120.638 13.9425 119.49 15.9685 117.638 17.2553C115.759 18.5352 113.395 18.9801 110.573 18.5558L103.877 17.5564L103.905 17.3785C105.408 17.4264 105.845 17.0568 106.105 15.2772L107.984 2.66254C108.209 1.16357 107.854 0.595465 106.46 0.212165L106.488 0.0342051L113.163 1.02668H113.156ZM109.972 17.9808C112.343 18.3367 114.161 17.9671 115.425 16.872C116.682 15.8042 117.522 13.7782 117.96 10.8282C118.855 4.8186 117.112 2.10128 112.439 1.40313L111.038 1.19095L108.571 17.7618L109.972 17.974V17.9808Z" fill="#0D1F3D"></path><path d="M141.375 8.84321L141.314 9.00749C139.852 8.6721 139.066 9.13753 138.444 10.8761L135.649 18.6653C134.112 22.9568 131.352 24.5927 127.45 23.1896C123.433 21.7453 122.018 18.5694 123.597 14.1683L126.514 6.02323C127.027 4.5927 126.815 3.98353 125.476 3.30591L125.537 3.14164L131.932 5.44143L131.871 5.60571C130.306 5.25663 129.746 5.53726 129.193 7.09099L126.377 14.9555C125.038 18.6926 125.851 21.2183 128.728 22.2587C131.652 23.3128 133.818 21.9096 135.212 18.0287L137.815 10.7597C138.458 8.97326 137.973 7.99448 136.23 7.17313L136.292 7.00885L141.382 8.83637L141.375 8.84321Z" fill="#0D1F3D"></path><path d="M153.141 15.5989L157.275 18.0424L157.186 18.193C156.257 17.7276 155.02 17.9397 153.517 18.8432L146.718 22.9021L143.698 28.0219C143.063 29.295 143.37 29.9726 145.017 31.1567L144.928 31.3073L137.815 27.0978L137.904 26.9473C138.875 27.4332 139.612 27.6317 140.104 27.5427C140.576 27.4401 141.047 26.9883 141.512 26.2012L144.252 21.5605L144.539 13.4702C144.621 11.4921 144.382 10.705 143.466 10.0684L143.555 9.91783L149.424 13.3949L149.335 13.5455C148.304 13.0527 147.607 13.1417 147.238 13.7714C147.074 14.052 146.985 14.5037 146.958 15.1334L146.684 22.2655L152.547 18.7953C153.175 18.4325 153.578 18.0835 153.797 17.7139C154.193 17.0362 153.934 16.386 153.052 15.7426L153.141 15.592V15.5989Z" fill="#0D1F3D"></path><path d="M162.359 36.872L157.562 41.4579L147.935 33.1759L148.051 33.039C149.294 33.8809 149.862 33.7987 151.037 32.4367L159.332 22.7584C160.322 21.6085 160.322 20.9445 159.345 19.8699L159.462 19.733L168.836 27.796L165.515 32.4503L165.379 32.334C166.246 30.5818 166.663 29.1649 166.595 28.0766C166.513 26.9678 165.891 25.9069 164.723 24.9007L162.693 23.1553L157.542 29.1649L158.942 30.3696C160.555 31.7522 161.901 31.6153 163.739 30.0958L163.889 30.2258L159.161 35.7358L159.011 35.6057C160.268 33.5181 160.213 32.1013 158.621 30.7323L157.22 29.5277L151.788 35.8658L153.784 37.5838C155.184 38.7885 156.462 39.3155 157.63 39.1581C158.799 38.9938 160.336 38.2135 162.215 36.7625L162.352 36.8788L162.359 36.872Z" fill="#0D1F3D"></path><path d="M179.864 40.4585L183.267 44.7296L183.13 44.8391C181.934 43.6276 180.964 43.6208 179.522 44.7775L167.811 54.1409L167.763 54.0793L172.157 35.0513L162.898 42.4572C161.238 43.785 161.115 44.7227 162.14 46.3312L162.003 46.4407L158.532 42.0876L158.669 41.978C159.926 43.2717 160.842 43.2854 162.502 41.9575L172.375 34.0588C172.608 32.9294 172.56 31.937 172.218 31.143L172.355 31.0335L175.225 34.6338L171.644 50.26L179.126 44.2778C180.629 43.08 180.745 42.2108 179.72 40.5612L179.857 40.4517L179.864 40.4585Z" fill="#0D1F3D"></path><path d="M175.471 63.0732C176.441 61.1088 178.19 59.5961 180.739 58.5421C183.403 57.4401 185.849 57.2826 188.091 58.0766C190.297 58.8638 191.903 60.4449 192.88 62.8063C193.611 64.5859 194.001 66.4544 194.008 68.3915L188.234 70.0958L188.173 69.8768C191.76 68.1724 192.914 65.7289 191.616 62.5667C190.96 60.9787 189.881 59.9452 188.398 59.4592C186.915 58.9801 185.228 59.1238 183.355 59.8973C180.998 60.8692 179.331 62.2724 178.368 64.1204C177.404 65.9685 177.315 67.8713 178.115 69.8083C179.126 72.2655 180.862 73.2991 183.349 72.9021L183.376 73.1074C179.406 73.9561 176.728 72.7036 175.348 69.336C174.432 67.1115 174.48 65.0376 175.471 63.0663V63.0732Z" fill="#0D1F3D"></path><path d="M199.112 87.9397L198.941 87.974C198.462 86.5503 197.656 86.1191 195.846 86.4955L187.756 88.1793C183.301 89.1033 180.458 87.6043 179.618 83.5386C178.75 79.3497 180.711 76.4818 185.289 75.5304L193.755 73.7713C195.237 73.4633 195.654 72.9637 195.524 71.4647L195.695 71.4305L197.075 78.0972L196.905 78.1314C196.385 76.6119 195.852 76.2833 194.24 76.6187L186.075 78.3162C182.187 79.1238 180.465 81.1362 181.087 84.1341C181.716 87.18 184.039 88.3025 188.077 87.4675L195.627 85.9C197.485 85.5167 198.066 84.5927 197.848 82.6694L198.018 82.6351L199.118 87.9397H199.112Z" fill="#0D1F3D"></path><path d="M183.902 93.4428C185.638 91.7932 187.886 90.9513 190.619 90.9445C193.345 90.9376 195.6 91.7658 197.349 93.4017C199.098 95.0376 199.986 97.1663 199.993 99.7193C200 102.3 199.125 104.428 197.383 106.078C195.647 107.728 193.399 108.549 190.666 108.556C187.933 108.563 185.685 107.762 183.936 106.119C182.187 104.476 181.299 102.354 181.292 99.7741C181.285 97.221 182.16 95.0923 183.902 93.4359V93.4428ZM181.948 99.7741C181.948 101.622 182.693 103.039 184.162 103.997C185.631 104.928 187.803 105.4 190.66 105.393C196.447 105.373 199.344 103.491 199.337 99.7193C199.323 95.9753 196.413 94.1067 190.632 94.1272C187.776 94.1341 185.603 94.6269 184.141 95.5646C182.679 96.5092 181.948 97.926 181.955 99.7741H181.948Z" fill="#0D1F3D"></path><path d="M196.645 123.881L195.518 129.233L195.347 129.199C195.525 127.502 194.903 126.756 193.099 126.372L178.436 123.285L178.45 123.21L195.9 114.497L184.305 112.053C182.228 111.615 181.429 112.122 180.841 113.936L180.67 113.901L181.818 108.453L181.989 108.487C181.791 110.281 182.365 110.999 184.442 111.437L196.802 114.045C197.82 113.511 198.551 112.834 198.948 112.067L199.119 112.101L198.169 116.605L183.854 123.778L193.222 125.756C195.101 126.153 195.846 125.688 196.461 123.853L196.631 123.888L196.645 123.881Z" fill="#0D1F3D"></path><path d="M179.119 144.189L178.955 144.12C179.393 142.683 179.112 142.115 177.725 141.506L173.4 139.603C172.97 137.563 173.223 135.462 174.159 133.333C175.252 130.828 176.926 129.158 179.147 128.309C181.367 127.461 183.759 127.597 186.328 128.727C188.965 129.884 190.728 131.602 191.575 133.881C192.423 136.16 192.245 138.652 191.056 141.362C190.298 143.101 189.273 144.613 187.981 145.927L183.185 143.21L183.267 143.025C186.786 144.381 189.32 143.559 190.584 140.684C192.095 137.228 190.209 133.915 185.515 131.855C183.041 130.767 180.773 130.404 178.73 130.78C176.666 131.143 175.279 132.17 174.541 133.86C174.015 135.065 173.933 136.386 174.364 137.098L178.32 138.836C179.201 139.22 179.885 139.302 180.37 139.069C180.834 138.83 181.422 138.118 182.098 136.954L182.262 137.023L179.126 144.182L179.119 144.189Z" fill="#0D1F3D"></path><path d="M178.668 161.02C175.026 165.619 170.332 166.283 165.98 162.82C163.766 161.061 162.584 159.049 162.393 156.804C162.222 154.538 163.021 152.266 164.798 150.027L169.007 144.716L169.143 144.825C168.358 146.105 168.453 146.667 169.861 147.789L179.83 155.722C181.019 156.667 181.681 156.646 182.713 155.626L182.85 155.736L178.655 161.027L178.668 161.02ZM165.604 149.781C164.115 151.663 163.52 153.422 163.834 155.065C164.128 156.687 165.461 158.426 167.797 160.281C172.546 164.059 175.764 163.901 178.702 160.199L179.584 159.09L166.485 148.672L165.604 149.781Z" fill="#0D1F3D"></path><path d="M157.822 181.581L157.705 181.444C158.73 180.342 158.717 179.425 157.521 178.015L152.185 171.697C149.247 168.22 149.206 165.003 152.369 162.32C155.628 159.555 159.079 159.918 162.099 163.491L167.681 170.096C168.658 171.253 169.294 171.383 170.544 170.548L170.66 170.684L165.474 175.086L165.358 174.949C166.444 173.765 166.479 173.135 165.413 171.882L160.022 165.51C157.459 162.478 154.87 161.923 152.533 163.901C150.162 165.914 150.285 168.494 152.95 171.643L157.931 177.536C159.154 178.987 160.24 179.055 161.826 177.947L161.942 178.083L157.815 181.581H157.822Z" fill="#0D1F3D"></path><path d="M146.076 188.432L141.895 190.794L141.806 190.636C142.674 190.062 143.111 188.884 143.077 187.125L142.967 179.199L140.05 174.018C139.264 172.834 138.526 172.758 136.681 173.593L136.592 173.436L143.787 169.37L143.876 169.528C142.967 170.13 142.428 170.664 142.257 171.136C142.106 171.595 142.264 172.238 142.715 173.025L145.359 177.721L152.212 182.012C153.879 183.073 154.686 183.258 155.69 182.779L155.779 182.936L149.834 186.29L149.745 186.133C150.688 185.482 150.962 184.839 150.6 184.196C150.436 183.908 150.094 183.607 149.561 183.272L143.535 179.473L143.603 186.29C143.603 187.016 143.699 187.543 143.91 187.919C144.293 188.604 144.99 188.706 145.987 188.261L146.076 188.412V188.432Z" fill="#0D1F3D"></path><path d="M123.084 185.791L121.52 179.336L133.484 175.127L133.545 175.291C132.199 175.955 131.98 176.482 132.575 178.179L136.797 190.212C137.303 191.643 137.87 191.978 139.291 191.67L139.346 191.834L127.689 195.934L125.332 190.726L125.496 190.664C126.576 192.293 127.594 193.361 128.571 193.847C129.568 194.326 130.798 194.326 132.254 193.812L134.782 192.923L132.158 185.448L130.416 186.057C128.414 186.762 127.86 188.001 128.257 190.356L128.065 190.424L125.66 183.573L125.851 183.504C127.027 185.64 128.277 186.297 130.259 185.606L132.001 184.997L129.24 177.118L126.76 177.988C125.018 178.604 123.925 179.446 123.48 180.541C123.036 181.636 122.941 183.361 123.262 185.715L123.091 185.777L123.084 185.791Z" fill="#0D1F3D"></path><path d="M111.257 199.185L105.859 200.007L105.832 199.836C107.478 199.404 107.963 198.563 107.69 196.735L105.442 181.896L105.517 181.882L119.777 195.202L118.001 183.463C117.68 181.362 116.928 180.787 115.028 180.869L115.001 180.691L120.495 179.856L120.522 180.034C118.773 180.479 118.308 181.266 118.622 183.368L120.515 195.879C121.369 196.646 122.257 197.098 123.118 197.2L123.146 197.378L118.602 198.07L106.884 187.153L108.319 196.639C108.606 198.542 109.303 199.076 111.229 199.014L111.257 199.192V199.185Z" fill="#0D1F3D"></path><path d="M93.7587 184.093C94.9681 185.914 95.4054 188.193 95.0364 190.931C94.6538 193.792 93.5742 195.996 91.7566 197.543C89.9732 199.062 87.8003 199.671 85.2722 199.329C83.3658 199.076 81.5619 198.474 79.881 197.508L81.3022 191.649L81.5277 191.704C81.1997 195.667 82.744 197.892 86.1194 198.344C87.8208 198.569 89.2558 198.152 90.4105 197.105C91.5721 196.057 92.2827 194.524 92.5492 192.512C92.8909 189.979 92.5082 187.837 91.3945 186.078C90.2807 184.319 88.6818 183.292 86.6046 183.012C83.9739 182.662 82.211 183.648 81.3091 186.01L81.1177 185.934C82.375 182.067 84.7938 180.376 88.3948 180.856C90.7727 181.17 92.5424 182.252 93.745 184.1L93.7587 184.093Z" fill="#0D1F3D"></path><path d="M60.442 192.163L60.4967 191.992C61.9657 192.293 62.7378 191.8 63.3186 190.048L65.9081 182.19C67.3362 177.864 70.0556 176.153 73.9912 177.454C78.043 178.795 79.5394 181.93 78.0704 186.379L75.3578 194.6C74.8795 196.044 75.105 196.646 76.4647 197.289L76.41 197.461L69.9599 195.325L70.0146 195.154C71.5861 195.462 72.1396 195.168 72.652 193.6L75.269 185.667C76.5125 181.896 75.6379 179.391 72.734 178.433C69.7823 177.454 67.6573 178.912 66.3591 182.827L63.9403 190.157C63.3459 191.958 63.8515 192.929 65.6212 193.696L65.5665 193.867L60.4352 192.17L60.442 192.163Z" fill="#0D1F3D"></path><path d="M63.2911 176.222C63.8446 178.556 63.4483 180.924 62.0954 183.292C60.7357 185.661 58.8977 187.201 56.6019 187.899C54.313 188.597 52.0308 188.303 49.817 187.029C47.5828 185.743 46.182 183.915 45.6286 181.588C45.0752 179.254 45.4919 176.899 46.8517 174.524C48.2114 172.156 50.0289 170.602 52.3246 169.911C54.6136 169.213 56.8957 169.507 59.13 170.794C61.3438 172.067 62.7445 173.895 63.298 176.229L63.2911 176.222ZM58.7952 171.355C57.1964 170.438 55.6043 170.37 54.0397 171.164C52.5023 171.971 50.9991 173.621 49.5779 176.099C46.6945 181.123 46.8722 184.579 50.1382 186.461C53.3837 188.323 56.4516 186.735 59.3282 181.704C60.7494 179.227 61.4121 177.098 61.337 175.359C61.255 173.621 60.3941 172.279 58.7952 171.355Z" fill="#0D1F3D"></path><path d="M30.6172 172.053L26.5518 168.398L26.6679 168.268C28.0481 169.268 29.0047 169.11 30.2346 167.734L40.2445 156.564L40.2992 156.612L39.0966 176.112L47.0089 167.276C48.4232 165.695 48.3959 164.743 47.1182 163.326L47.2344 163.196L51.375 166.913L51.2588 167.043C49.8035 165.975 48.9015 166.112 47.4803 167.7L39.042 177.118C38.9941 178.268 39.2128 179.24 39.6774 179.973L39.5612 180.103L36.1381 177.023L37.1015 161.013L30.7061 168.152C29.4215 169.582 29.4557 170.459 30.7334 171.916L30.6172 172.046V172.053Z" fill="#0D1F3D"></path><path d="M21.8167 146.66L21.9602 146.557C22.9851 147.659 23.6137 147.7 24.8368 146.797L28.6426 143.997C30.6241 144.647 32.3049 145.921 33.6851 147.796C35.2977 150 35.9058 152.286 35.53 154.634C35.1542 156.981 33.8355 158.994 31.5738 160.657C29.2507 162.361 26.8934 163.032 24.4952 162.628C22.0969 162.224 20.0334 160.821 18.2842 158.433C17.1637 156.899 16.3643 155.257 15.8791 153.484L20.6279 150.684L20.744 150.849C17.8128 153.224 17.2525 155.838 19.1042 158.364C21.3316 161.403 25.1443 161.43 29.2781 158.385C31.4577 156.783 32.9062 154.997 33.6032 153.039C34.3206 151.068 34.1293 149.357 33.036 147.864C32.2571 146.803 31.157 146.071 30.3235 146.092L26.8388 148.652C26.0667 149.22 25.6567 149.774 25.6089 150.308C25.5816 150.828 25.9027 151.691 26.5723 152.861L26.4288 152.964L21.8099 146.66H21.8167Z" fill="#0D1F3D"></path><path d="M7.49539 137.858C5.34309 132.396 7.11959 127.995 12.2919 125.948C14.9225 124.908 17.2525 124.887 19.2886 125.852C21.3316 126.838 22.8963 128.672 23.9417 131.335L26.422 137.645L26.258 137.707C25.5474 136.386 25.0076 136.188 23.3404 136.845L11.4925 141.52C10.085 142.074 9.77067 142.663 10.1328 144.073L9.96882 144.141L7.49539 137.851V137.858ZM23.7435 132.149C22.8621 129.911 21.6391 128.522 20.0607 127.967C18.5097 127.413 16.3369 127.693 13.5628 128.788C7.91901 131.013 6.44315 133.888 8.17182 138.289L8.69111 139.61L24.256 133.463L23.7367 132.142L23.7435 132.149Z" fill="#0D1F3D"></path><path d="M0.163882 109.493L0.341532 109.466C0.778825 110.903 1.57825 111.348 3.39575 111.02L11.5267 109.548C16.0021 108.741 18.8035 110.315 19.5414 114.401C20.2998 118.611 18.2637 121.424 13.6653 122.252L5.16542 123.792C3.67589 124.059 3.25226 124.552 3.34109 126.051L3.17027 126.078L1.96088 119.377L2.1317 119.343C2.61682 120.876 3.13611 121.218 4.75546 120.924L12.9615 119.439C16.863 118.734 18.6395 116.762 18.0997 113.751C17.5463 110.684 15.2573 109.507 11.2055 110.24L3.62123 111.608C1.7559 111.944 1.14779 112.854 1.31861 114.778L1.14779 114.812L0.18438 109.48L0.163882 109.493Z" fill="#0D1F3D"></path><path d="M0.116031 95.9069L0.163859 91.102H0.34151C0.409837 92.1423 1.20243 93.1143 2.73979 93.963L9.64765 97.8302L15.5853 97.8918C16.9996 97.8029 17.4369 97.2005 17.6351 95.1814H17.8127L17.7239 103.463H17.5462C17.4848 102.375 17.2866 101.636 16.9655 101.253C16.6375 100.897 16.0089 100.712 15.1001 100.705L9.71597 100.65L2.5758 104.449C0.819799 105.366 0.259517 105.968 0.170692 107.084H-0.00695801L0.061369 100.246H0.239019C0.327844 101.389 0.751472 101.951 1.48257 101.958C1.81054 101.958 2.241 101.814 2.80128 101.513L9.10103 98.1861L3.17025 94.8323C2.54164 94.4695 2.03602 94.2916 1.60556 94.2847C0.819799 94.2779 0.389339 94.8254 0.273183 95.9137H0.116031V95.9069Z" fill="#0D1F3D"></path><path d="M13.8976 77.2758L20.2589 79.1444L17.9221 91.6358L17.7513 91.6016C17.8538 90.1026 17.4985 89.6509 15.7356 89.3155L3.21811 86.961C1.72858 86.6803 1.15464 87.0089 0.710511 88.3983L0.539693 88.3641L2.82181 76.2012L8.49979 76.7556L8.46562 76.9267C6.51147 77.0499 5.08344 77.399 4.17469 78.0014C3.25911 78.6242 2.651 79.6988 2.36402 81.2115L1.87207 83.8467L9.64768 85.3046L9.98932 83.4907C10.3788 81.4031 9.58619 80.3011 7.35189 79.4661L7.38606 79.2676L14.5126 80.6091L14.4784 80.8076C12.046 80.7597 10.8502 81.5195 10.4608 83.5797L10.1191 85.3935L18.3115 86.9336L18.7967 84.3463C19.1383 82.5325 18.9606 81.1567 18.2296 80.2259C17.5053 79.2881 16.0636 78.3504 13.8635 77.4469L13.8976 77.269V77.2758Z" fill="#0D1F3D"></path><path d="M8.2401 60.3011L10.2284 55.2087L10.3924 55.2703C9.94144 56.913 10.4266 57.7549 12.1416 58.4326L26.0939 63.9083L26.0666 63.9767L7.42017 69.6783L18.455 74.0109C20.4296 74.7844 21.3042 74.4216 22.1856 72.731L22.3496 72.7926L20.3203 77.9808L20.1563 77.9192C20.6483 76.1807 20.1973 75.3799 18.2227 74.6064L6.45676 69.9931C5.36353 70.3559 4.52994 70.8966 4.01065 71.5879L3.84667 71.5263L5.52751 67.2347L20.8259 62.5256L11.9093 59.028C10.1191 58.3299 9.31283 58.6584 8.39725 60.3696L8.23326 60.308L8.2401 60.3011Z" fill="#0D1F3D"></path><path d="M93.4977 45.2224V85.1012L73.5583 65.1618L93.4977 45.2224Z" fill="#0D1F3D"></path><path d="M133.992 56.9056L105.79 85.1012V56.9056H133.992Z" fill="#0D1F3D"></path><path d="M154.369 93.7952H114.49L134.43 73.8558L154.369 93.7952Z" fill="#0D1F3D"></path><path d="M142.686 106.094V134.29L114.49 106.094H142.686Z" fill="#0D1F3D"></path><path d="M125.729 134.728L105.79 154.667V114.788L125.729 134.728Z" fill="#0D1F3D"></path><path d="M93.4975 114.788V142.991H65.2951L93.4975 114.788Z" fill="#0D1F3D"></path><path d="M84.7969 106.094L64.8575 126.033L44.9249 106.094H84.7969Z" fill="#0D1F3D"></path><path d="M84.7968 93.7952H56.6012V65.5996L84.7968 93.7952Z" fill="#0D1F3D"></path><path d="M108.341 99.9446L114.49 106.094L105.79 106.094L105.79 114.788L99.6471 108.639L93.4975 114.788L93.4977 106.094L84.7969 106.094L90.9463 99.9446L84.7968 93.7952L93.4977 93.7952L93.4977 85.1012L99.6471 91.2506L105.79 85.1012L105.79 93.7952L114.49 93.7952L108.341 99.9446Z" fill="#0D1F3D"></path></svg>