<svg xmlns="http://www.w3.org/2000/svg" width="80" height="80" viewBox="0 0 80 80" fill="none"><g clip-path="url(#clip0_568_441)"><path d="M12.0254 21.106C11.1536 21.1607 10.279 20.8568 9.4044 20.1833C8.49156 19.4797 7.94494 18.6611 7.77549 17.7247C7.60604 16.8021 7.83015 15.926 8.45329 15.1183C8.92065 14.5078 9.48913 14.0013 10.1615 13.6125L11.9052 15.2771L11.8423 15.3428C10.5359 14.4366 9.45907 14.5269 8.62548 15.6084C8.20458 16.1532 8.06519 16.7364 8.19365 17.3469C8.3221 17.9575 8.71293 18.5132 9.35248 19.0088C10.1615 19.633 10.9787 19.9315 11.8095 19.8959C12.6404 19.8603 13.3154 19.5126 13.8293 18.8473C14.477 18.004 14.4879 17.1963 13.8511 16.4106L13.9167 16.3586C15.0017 17.5687 15.1056 18.746 14.2174 19.9013C13.6325 20.6625 12.9055 21.0622 12.0254 21.1115V21.106Z" fill="#0D1F3D"></path><path d="M15.9037 7.92597L15.9501 7.97799C15.5511 8.427 15.5675 8.79387 16.0567 9.34691L18.2541 11.8192C19.4649 13.1799 19.5113 14.4667 18.276 15.57C16.9996 16.709 15.6194 16.5995 14.3759 15.2004L12.0774 12.6159C11.6729 12.1614 11.4187 12.1204 10.9267 12.4626L10.8803 12.4106L12.9082 10.5981L12.9547 10.6501C12.5338 11.1347 12.5256 11.3866 12.9629 11.8767L15.1821 14.3709C16.2371 15.5564 17.2784 15.7535 18.1913 14.9376C19.1205 14.108 19.0413 13.0786 17.948 11.8466L15.8982 9.5413C15.3953 8.97457 14.958 8.9554 14.3376 9.41536L14.2912 9.36334L15.9064 7.92323L15.9037 7.92597Z" fill="#0D1F3D"></path><path d="M20.8478 12.1039C19.9295 11.8301 19.1889 11.2196 18.6422 10.2723C18.0929 9.32775 17.9316 8.38045 18.1476 7.44411C18.3662 6.5105 18.921 5.77676 19.8038 5.26204C20.6948 4.74459 21.6076 4.62412 22.5259 4.89791C23.4443 5.17169 24.1767 5.78771 24.7233 6.73501C25.27 7.67956 25.4421 8.62412 25.2262 9.55773C25.0076 10.4913 24.4528 11.2251 23.5591 11.7453C22.6763 12.26 21.7634 12.3805 20.8451 12.1067L20.8478 12.1039ZM23.4306 11.5153C24.0674 11.1429 24.4118 10.6063 24.45 9.90544C24.4801 9.21002 24.2095 8.35855 23.6356 7.37019C22.474 5.36608 21.2441 4.73364 19.9405 5.49202C18.6477 6.24493 18.5848 7.62754 19.7464 9.63165C20.3204 10.62 20.9216 11.2771 21.5393 11.5974C22.157 11.9178 22.7938 11.8876 23.4306 11.5153Z" fill="#0D1F3D"></path><path d="M28.8257 1.59606L30.9001 0.917074L30.9219 0.98552C30.3015 1.26478 30.1649 1.62891 30.3945 2.3298L32.2557 8.03549L32.2256 8.0437L25.7264 3.72885L27.1995 8.24082C27.4646 9.04849 27.798 9.22645 28.5442 9.06765L28.566 9.1361L26.4534 9.82878L26.4315 9.76033C27.0929 9.47012 27.2241 9.12789 26.9617 8.32022L25.3902 3.50982C25.0021 3.26341 24.6222 3.14295 24.2778 3.16211L24.256 3.09366L26.0051 2.52145L31.3456 6.05328L30.1567 2.40646C29.9189 1.67546 29.6101 1.51119 28.8503 1.66177L28.8284 1.59332L28.8257 1.59606Z" fill="#0D1F3D"></path><path d="M39.3617 3.61934L39.3699 3.69052C38.785 3.82742 38.6456 4.03549 38.7112 4.64056L38.919 6.52146C38.2985 7.07998 37.5224 7.40852 36.5986 7.51256C35.5135 7.63303 34.6007 7.38662 33.8655 6.78703C33.1276 6.18744 32.6985 5.32776 32.5755 4.21071C32.4498 3.06356 32.6903 2.11078 33.3079 1.35787C33.9256 0.607703 34.8248 0.172385 36 0.040968C36.7544 -0.0411675 37.4814 0.0108517 38.192 0.194288L38.2111 2.40373L38.1318 2.41195C37.8968 0.919818 37.1042 0.202501 35.8606 0.339394C34.3629 0.503665 33.5949 1.82331 33.819 3.86575C33.9365 4.94172 34.2673 5.80141 34.8029 6.43659C35.3414 7.07998 35.9727 7.3565 36.7052 7.27437C37.2272 7.21687 37.7 6.98142 37.8613 6.68847L37.6727 4.96636C37.6317 4.58306 37.5224 4.33118 37.3447 4.20798C37.1698 4.09573 36.8063 4.03275 36.2679 4.03275L36.2597 3.96157L39.3644 3.61934H39.3617Z" fill="#0D1F3D"></path><path d="M45.2624 0.410579C47.5828 0.755548 48.7498 2.25042 48.4218 4.45438C48.2551 5.5769 47.796 6.38731 47.0553 6.90202C46.3037 7.414 45.3581 7.59196 44.2293 7.42221L41.5509 7.02249L41.5618 6.9513C42.1631 6.97047 42.338 6.82263 42.4419 6.11078L43.1935 1.06493C43.2837 0.465336 43.1415 0.238094 42.584 0.0847746L42.5949 0.0135905L45.2651 0.410579H45.2624ZM43.9888 7.19224C44.9372 7.3346 45.6642 7.18676 46.1698 6.7487C46.6727 6.3216 47.0088 5.51119 47.1838 4.33118C47.5418 1.92735 46.8449 0.840421 44.9754 0.561161L44.4151 0.476287L43.4285 7.10462L43.9888 7.1895V7.19224Z" fill="#0D1F3D"></path><path d="M56.55 3.53719L56.5254 3.6029C55.9405 3.46875 55.6262 3.65492 55.3775 4.35034L54.2597 7.46601C53.6447 9.18264 52.5406 9.83699 50.98 9.27573C49.3729 8.69804 48.8072 7.42768 49.4385 5.66724L50.6056 2.4092C50.8105 1.83699 50.7258 1.59332 50.1901 1.32227L50.2147 1.25656L52.7729 2.17648L52.7483 2.24219C52.1224 2.10256 51.8983 2.21481 51.6769 2.8363L50.5509 5.9821C50.0152 7.47696 50.3405 8.48723 51.4911 8.90338C52.6608 9.32501 53.5272 8.76375 54.0848 7.21139L55.1261 4.30379C55.383 3.58921 55.1889 3.1977 54.492 2.86916L54.5166 2.80345L56.5527 3.53446L56.55 3.53719Z" fill="#0D1F3D"></path><path d="M61.2564 6.23946L62.9099 7.21687L62.8744 7.2771C62.5027 7.09093 62.008 7.1758 61.4067 7.5372L58.6873 9.16074L57.4793 11.2087C57.2251 11.7179 57.3481 11.9889 58.0068 12.4626L57.9712 12.5228L55.1261 10.839L55.1616 10.7788C55.5497 10.9732 55.8449 11.0526 56.0417 11.017C56.2303 10.9759 56.4188 10.7952 56.6047 10.4804L57.7007 8.62413L57.8154 5.38799C57.8482 4.59675 57.7526 4.28189 57.3864 4.02727L57.4219 3.96704L59.7696 5.35787L59.7341 5.4181C59.3214 5.22098 59.0426 5.25657 58.895 5.50845C58.8294 5.6207 58.7939 5.8014 58.783 6.05328L58.6736 8.90612L61.0186 7.51803C61.2701 7.37293 61.4313 7.2333 61.5188 7.08545C61.6773 6.81441 61.5734 6.55431 61.2209 6.29695L61.2564 6.23672V6.23946Z" fill="#0D1F3D"></path><path d="M64.9433 14.7487L63.0247 16.5831L59.1738 13.2703L59.2203 13.2155C59.7177 13.5523 59.9445 13.5194 60.4146 12.9746L63.7326 9.10325C64.1289 8.64329 64.1289 8.37772 63.7381 7.94788L63.7845 7.89312L67.5343 11.1183L66.206 12.98L66.1514 12.9335C66.4985 12.2326 66.6652 11.6659 66.6379 11.2306C66.6051 10.787 66.3563 10.3627 65.889 9.9602L65.0773 9.26205L63.0165 11.6659L63.5768 12.1477C64.2218 12.7008 64.7602 12.646 65.4954 12.0382L65.5555 12.0902L63.6643 14.2942L63.6041 14.2422C64.107 13.4072 64.0852 12.8404 63.4483 12.2928L62.8881 11.811L60.7153 14.3462L61.5133 15.0334C62.0736 15.5153 62.5847 15.7261 63.0521 15.6631C63.5194 15.5974 64.1343 15.2853 64.8859 14.7049L64.9406 14.7514L64.9433 14.7487Z" fill="#0D1F3D"></path><path d="M71.9455 16.1833L73.3066 17.8917L73.2519 17.9355C72.7736 17.4509 72.3855 17.4482 71.8088 17.9109L67.1243 21.6563L67.1052 21.6316L68.8626 14.0204L65.1592 16.9828C64.4951 17.5139 64.4459 17.889 64.8559 18.5324L64.8012 18.5762L63.4128 16.8349L63.4675 16.7911C63.9704 17.3086 64.3366 17.3141 65.0007 16.7829L68.95 13.6234C69.043 13.1717 69.0238 12.7747 68.8872 12.4571L68.9418 12.4133L70.0897 13.8534L68.6576 20.1039L71.6503 17.711C72.2516 17.2319 72.2981 16.8842 71.8881 16.2244L71.9428 16.1806L71.9455 16.1833Z" fill="#0D1F3D"></path><path d="M70.1881 25.2292C70.5762 24.4434 71.2759 23.8384 72.2953 23.4167C73.3612 22.9759 74.3397 22.913 75.2361 23.2306C76.1189 23.5454 76.7612 24.1779 77.152 25.1224C77.4445 25.8343 77.6002 26.5817 77.603 27.3565L75.2935 28.0382L75.2689 27.9506C76.7038 27.2689 77.1657 26.2915 76.6464 25.0266C76.384 24.3914 75.9522 23.978 75.3591 23.7836C74.766 23.592 74.091 23.6494 73.3421 23.9588C72.3992 24.3476 71.7323 24.9089 71.347 25.6481C70.9616 26.3873 70.9261 27.1484 71.2458 27.9232C71.6503 28.9061 72.3445 29.3195 73.3394 29.1607L73.3503 29.2429C71.7624 29.5824 70.691 29.0813 70.1389 27.7343C69.7727 26.8445 69.7918 26.0149 70.1881 25.2264V25.2292Z" fill="#0D1F3D"></path><path d="M79.6446 35.1758L79.5762 35.1895C79.3849 34.62 79.0624 34.4475 78.3382 34.5981L75.1022 35.2716C73.3202 35.6412 72.1833 35.0416 71.8471 33.4154C71.5 31.7398 72.2844 30.5926 74.1155 30.2121L77.5018 29.5084C78.0949 29.3852 78.2616 29.1854 78.2097 28.5858L78.278 28.5721L78.8301 31.2388L78.7618 31.2525C78.5541 30.6447 78.3409 30.5132 77.6959 30.6474L74.4298 31.3264C72.8747 31.6494 72.186 32.4544 72.4347 33.6536C72.6861 34.8719 73.6154 35.3209 75.2306 34.9869L78.2507 34.3599C78.9941 34.2066 79.2264 33.837 79.1389 33.0677L79.2073 33.054L79.6473 35.1758H79.6446Z" fill="#0D1F3D"></path><path d="M73.5607 37.377C74.2549 36.7172 75.1541 36.3804 76.2474 36.3777C77.3379 36.375 78.2398 36.7062 78.9394 37.3606C79.6391 38.0149 79.9944 38.8664 79.9971 39.8876C79.9999 40.9198 79.65 41.7713 78.9531 42.4311C78.2589 43.0909 77.3597 43.4195 76.2665 43.4222C75.1732 43.4249 74.2741 43.1046 73.5744 42.4475C72.8747 41.7904 72.5194 40.9417 72.5167 39.9095C72.514 38.8883 72.8638 38.0368 73.5607 37.3743V37.377ZM72.7791 39.9095C72.7791 40.6488 73.077 41.2155 73.6646 41.5988C74.2522 41.9711 75.1213 42.16 76.2637 42.1573C78.5787 42.1491 79.7375 41.3962 79.7348 39.8876C79.7293 38.39 78.565 37.6426 76.2528 37.6508C75.1104 37.6535 74.2413 37.8507 73.6564 38.2258C73.0715 38.6036 72.7791 39.1703 72.7818 39.9095H72.7791Z" fill="#0D1F3D"></path><path d="M78.658 49.5522L78.207 51.6932L78.1387 51.6796C78.2097 51.0006 77.961 50.7021 77.2395 50.5488L71.3743 49.3141L71.3798 49.2839L78.3601 45.7987L73.722 44.8212C72.8912 44.646 72.5714 44.8486 72.3363 45.5742L72.268 45.5605L72.7272 43.3811L72.7955 43.3948C72.7162 44.1121 72.9458 44.3996 73.7767 44.5748L78.7208 45.618C79.128 45.4044 79.4205 45.1334 79.579 44.8267L79.6473 44.8404L79.2674 46.6419L73.5416 49.5112L77.2887 50.3024C78.0403 50.4612 78.3382 50.275 78.5842 49.5413L78.6525 49.555L78.658 49.5522Z" fill="#0D1F3D"></path><path d="M71.6476 57.6754L71.582 57.6481C71.7569 57.0731 71.6449 56.8459 71.0901 56.6022L69.36 55.8411C69.1878 55.0252 69.289 54.1847 69.6634 53.3332C70.1007 52.3312 70.7703 51.6631 71.6585 51.3236C72.5468 50.9841 73.5034 51.0389 74.531 51.4907C75.586 51.9533 76.2911 52.6405 76.63 53.5522C76.9689 54.464 76.8979 55.4605 76.4223 56.5447C76.1189 57.2401 75.709 57.8452 75.1924 58.3709L73.2738 57.2839L73.3066 57.21C74.7141 57.7521 75.7281 57.4236 76.2337 56.2737C76.8377 54.8911 76.0834 53.5659 74.2058 52.7418C73.2164 52.3065 72.309 52.1614 71.4918 52.312C70.6664 52.4571 70.1116 52.8678 69.8164 53.544C69.606 54.0259 69.5732 54.5543 69.7454 54.839L71.3279 55.5345C71.6804 55.6878 71.9537 55.7206 72.1478 55.6275C72.3336 55.5317 72.5687 55.247 72.8392 54.7815L72.9048 54.8089L71.6504 57.6727L71.6476 57.6754Z" fill="#0D1F3D"></path><path d="M71.4672 64.4078C70.0105 66.2477 68.1328 66.5133 66.3919 65.1279C65.5063 64.4243 65.0335 63.6193 64.957 62.7213C64.8887 61.8151 65.2085 60.9061 65.919 60.0109L67.6026 57.8863L67.6573 57.9301C67.343 58.4421 67.3812 58.6666 67.9443 59.1156L71.9318 62.2887C72.4074 62.6666 72.6725 62.6584 73.0852 62.2504L73.1398 62.2942L71.4617 64.4106L71.4672 64.4078ZM66.2415 59.9123C65.6457 60.6652 65.408 61.3688 65.5337 62.0259C65.6512 62.6748 66.1842 63.3702 67.1189 64.1122C69.0184 65.6235 70.3056 65.5605 71.4809 64.0793L71.8334 63.6358L66.5941 59.4688L66.2415 59.9123Z" fill="#0D1F3D"></path><path d="M63.1286 72.6323L63.0821 72.5776C63.4921 72.1368 63.4866 71.7699 63.0083 71.2059L60.8738 68.6789C59.6985 67.2881 59.6821 66.0013 60.9476 64.928C62.2512 63.8219 63.6315 63.967 64.8395 65.3962L67.0724 68.0382C67.4632 68.5009 67.7174 68.5529 68.2176 68.2189L68.264 68.2737L66.1896 70.0341L66.1431 69.9794C66.5777 69.5057 66.5914 69.2538 66.165 68.7528L64.0086 66.2039C62.9837 64.991 61.9479 64.7692 61.0132 65.5605C60.0648 66.3654 60.114 67.3976 61.1799 68.657L63.1723 71.0143C63.6615 71.5947 64.0961 71.6221 64.7301 71.1786L64.7766 71.2333L63.1258 72.6323H63.1286Z" fill="#0D1F3D"></path><path d="M58.4304 75.3729L56.7578 76.3175L56.7223 76.2545C57.0694 76.0245 57.2443 75.5536 57.2306 74.85L57.1869 71.6795L56.0199 69.607C55.7056 69.1333 55.4104 69.1032 54.6724 69.4372L54.6369 69.3743L57.5149 67.748L57.5504 67.811C57.1869 68.0519 56.971 68.2654 56.9026 68.4544C56.8425 68.6378 56.9054 68.8951 57.0858 69.21L58.1435 71.0882L60.8847 72.8048C61.5516 73.2292 61.8741 73.3031 62.2759 73.1114L62.3114 73.1744L59.9336 74.516L59.8981 74.453C60.2753 74.1929 60.3846 73.9355 60.2397 73.6782C60.1741 73.5632 60.0375 73.4427 59.8243 73.3086L57.4137 71.7891L57.4411 74.516C57.4411 74.8062 57.4793 75.017 57.564 75.1676C57.7171 75.4414 57.9959 75.4824 58.3949 75.3045L58.4304 75.3647V75.3729Z" fill="#0D1F3D"></path><path d="M49.2336 74.3161L48.6077 71.7344L53.3933 70.0506L53.4179 70.1163C52.8795 70.3818 52.7921 70.5927 53.0298 71.2716L54.7189 76.0848C54.9211 76.657 55.148 76.7912 55.7165 76.6679L55.7383 76.7337L51.0757 78.3736L50.1328 76.2901L50.1984 76.2655C50.6302 76.9171 51.0374 77.3442 51.4283 77.5386C51.8273 77.7302 52.3192 77.7302 52.9014 77.5249L53.9126 77.169L52.8631 74.1792L52.1662 74.4229C51.3654 74.7049 51.144 75.2005 51.3025 76.1423L51.226 76.1697L50.264 73.4291L50.3405 73.4017C50.8106 74.2559 51.3107 74.5187 52.1033 74.2422L52.8003 73.9985L51.6961 70.8473L50.704 71.195C50.0071 71.4414 49.5698 71.7781 49.3921 72.2162C49.2145 72.6543 49.1762 73.3442 49.3047 74.286L49.2363 74.3107L49.2336 74.3161Z" fill="#0D1F3D"></path><path d="M44.5026 79.6741L42.3435 80.0026L42.3326 79.9342C42.9912 79.7617 43.1853 79.4249 43.076 78.6939L42.1768 72.7583L42.2068 72.7528L47.9108 78.0807L47.2002 73.3852C47.0717 72.5447 46.7711 72.3147 46.0113 72.3476L46.0004 72.2764L48.1978 71.9424L48.2087 72.0136C47.509 72.1915 47.3232 72.5064 47.4489 73.3469L48.206 78.3517C48.5476 78.6583 48.9029 78.839 49.2473 78.8801L49.2582 78.9513L47.4407 79.2278L42.7535 74.8609L43.3274 78.6556C43.4422 79.4167 43.721 79.6303 44.4917 79.6056L44.5026 79.6768V79.6741Z" fill="#0D1F3D"></path><path d="M37.5034 73.6371C37.9872 74.3654 38.1621 75.2771 38.0145 76.3722C37.8614 77.5166 37.4296 78.3982 36.7026 79.017C35.9892 79.6248 35.1201 79.8685 34.1088 79.7316C33.3462 79.6303 32.6247 79.3893 31.9523 79.0033L32.5208 76.6597L32.611 76.6816C32.4798 78.2668 33.0975 79.1566 34.4477 79.3373C35.1283 79.4277 35.7022 79.2607 36.1641 78.8418C36.6288 78.4229 36.913 77.8096 37.0196 77.0047C37.1563 75.9917 37.0032 75.1347 36.5577 74.4311C36.1122 73.7275 35.4726 73.3168 34.6417 73.2045C33.5895 73.0649 32.8843 73.4592 32.5235 74.4037L32.447 74.3736C32.9499 72.8267 33.9175 72.1505 35.3578 72.3421C36.309 72.468 37.0169 72.9006 37.4979 73.6398L37.5034 73.6371Z" fill="#0D1F3D"></path><path d="M24.1767 76.865L24.1986 76.7966C24.7862 76.9171 25.095 76.7199 25.3273 76.019L26.3632 72.876C26.9344 71.1457 28.0222 70.4612 29.5964 70.9814C31.2171 71.518 31.8157 72.7719 31.2281 74.5516L30.143 77.8397C29.9517 78.4174 30.0419 78.6583 30.5858 78.9157L30.5639 78.9841L27.9839 78.1299L28.0058 78.0615C28.6344 78.1847 28.8557 78.067 29.0607 77.44L30.1075 74.2668C30.6049 72.7583 30.2551 71.7562 29.0935 71.3729C27.9128 70.9814 27.0628 71.5646 26.5436 73.1306L25.576 76.0629C25.3383 76.7829 25.5405 77.1717 26.2484 77.4783L26.2265 77.5468L24.174 76.8678L24.1767 76.865Z" fill="#0D1F3D"></path><path d="M25.3164 70.4886C25.5377 71.4222 25.3792 72.3695 24.8381 73.3168C24.2942 74.2641 23.559 74.8801 22.6407 75.1594C21.7251 75.4387 20.8123 75.3209 19.9267 74.8117C19.033 74.297 18.4727 73.566 18.2514 72.6351C18.03 71.7015 18.1967 70.7597 18.7406 69.8096C19.2845 68.8623 20.0115 68.2409 20.9298 67.9643C21.8454 67.6851 22.7582 67.8028 23.6519 68.3175C24.5374 68.8267 25.0977 69.5578 25.3191 70.4914L25.3164 70.4886ZM23.518 68.542C22.8785 68.1751 22.2417 68.1478 21.6158 68.4654C21.0008 68.7884 20.3996 69.4482 19.8311 70.4393C18.6777 72.4489 18.7488 73.8315 20.0552 74.5844C21.3534 75.3291 22.5806 74.694 23.7312 72.6816C24.2997 71.6905 24.5648 70.8391 24.5347 70.1437C24.5019 69.4482 24.1575 68.9116 23.518 68.542Z" fill="#0D1F3D"></path><path d="M12.2468 68.8212L10.6206 67.3592L10.6671 67.3072C11.2192 67.7069 11.6018 67.644 12.0938 67.0937L16.0977 62.6255L16.1196 62.6446L15.6386 70.4448L18.8035 66.9102C19.3692 66.2778 19.3583 65.8972 18.8472 65.3305L18.8937 65.2785L20.5499 66.7651L20.5034 66.8171C19.9213 66.39 19.5605 66.4448 18.992 67.08L15.6167 70.8472C15.5976 71.3072 15.685 71.696 15.8709 71.9889L15.8244 72.0409L14.4551 70.8089L14.8405 64.4051L12.2823 67.2607C11.7685 67.8329 11.7822 68.1833 12.2933 68.7665L12.2468 68.8185V68.8212Z" fill="#0D1F3D"></path><path d="M8.72661 58.6638L8.78401 58.6227C9.19397 59.0635 9.44541 59.08 9.93464 58.7186L11.457 57.5988C12.2496 57.8589 12.9219 58.3681 13.474 59.1183C14.119 59.9999 14.3622 60.9143 14.2119 61.8534C14.0616 62.7925 13.5341 63.5974 12.6295 64.2627C11.7002 64.9444 10.7573 65.2127 9.79798 65.0512C8.83867 64.8897 8.01328 64.3284 7.31361 63.3729C6.86539 62.7596 6.54562 62.1026 6.35157 61.3934L8.25106 60.2737L8.29752 60.3394C7.12503 61.2894 6.90092 62.3353 7.64158 63.3455C8.53257 64.5611 10.0576 64.5721 11.7111 63.3537C12.583 62.7131 13.1624 61.9985 13.4412 61.2155C13.7282 60.427 13.6516 59.7425 13.2143 59.1457C12.9028 58.7213 12.4627 58.4284 12.1293 58.4366L10.7354 59.4605C10.4266 59.6878 10.2626 59.9095 10.2435 60.1231C10.2325 60.3312 10.361 60.6761 10.6288 61.1443L10.5714 61.1854L8.72388 58.6638H8.72661Z" fill="#0D1F3D"></path><path d="M2.99807 55.143C2.13715 52.9581 2.84775 51.1977 4.91669 50.3791C5.96893 49.9629 6.90091 49.9547 7.71536 50.3408C8.53256 50.735 9.15843 51.4688 9.57659 52.5338L10.5687 55.0581L10.5031 55.0827C10.2189 54.5543 10.003 54.4749 9.33608 54.7378L4.59692 56.6077C4.03391 56.8295 3.90818 57.0649 4.05304 57.6289L3.98744 57.6563L2.99807 55.1402V55.143ZM9.49733 52.8596C9.14476 51.9643 8.65554 51.4085 8.0242 51.1868C7.40379 50.965 6.53467 51.0772 5.42504 51.5153C3.16752 52.4051 2.57718 53.555 3.26864 55.3154L3.47636 55.8438L9.70231 53.3853L9.4946 52.8568L9.49733 52.8596Z" fill="#0D1F3D"></path><path d="M0.0654672 43.7973L0.136527 43.7863C0.311444 44.3613 0.631215 44.5393 1.35821 44.4078L4.61058 43.8192C6.40075 43.4961 7.52131 44.1258 7.81648 45.7603C8.11985 47.4441 7.3054 48.5694 5.46603 48.9007L2.06608 49.5167C1.47027 49.6234 1.30082 49.8206 1.33635 50.4202L1.26802 50.4311L0.784267 47.7508L0.852594 47.7371C1.04664 48.3503 1.25436 48.4872 1.9021 48.3695L5.18453 47.7754C6.74511 47.4934 7.45572 46.7049 7.2398 45.5002C7.01842 44.2737 6.10284 43.8028 4.48212 44.0957L1.44841 44.6433C0.702275 44.7774 0.459031 45.1416 0.527358 45.9109L0.459031 45.9246L0.0736665 43.7918L0.0654672 43.7973Z" fill="#0D1F3D"></path><path d="M0.0463268 38.3627L0.0654583 36.4407H0.136518C0.163849 36.8568 0.480887 37.2456 1.09583 37.5851L3.85897 39.132L6.23402 39.1566C6.79977 39.121 6.97468 38.8801 7.05394 38.0724H7.125L7.08947 41.3853H7.01841C6.99382 40.9499 6.91456 40.6542 6.7861 40.5009C6.65491 40.3586 6.40347 40.2846 6.03997 40.2819L3.8863 40.26L1.03024 41.7795C0.327834 42.1464 0.103721 42.3873 0.0681914 42.8336H-0.00286865L0.0244621 40.0985H0.0955222C0.131052 40.5557 0.300503 40.7802 0.592943 40.7829C0.724131 40.7829 0.896315 40.7254 1.12043 40.605L3.64033 39.2744L1.26801 37.9328C1.01657 37.7877 0.814322 37.7165 0.642138 37.7138C0.327834 37.7111 0.15565 37.9301 0.109188 38.3654H0.0463268V38.3627Z" fill="#0D1F3D"></path><path d="M5.55896 30.9102L8.10346 31.6577L7.16875 36.6542L7.10042 36.6406C7.14142 36.041 6.9993 35.8603 6.29416 35.7261L1.28716 34.7843C0.691348 34.672 0.461769 34.8035 0.284119 35.3592L0.215792 35.3456L1.12864 30.4804L3.39983 30.7022L3.38616 30.7706C2.6045 30.8199 2.03329 30.9595 1.66979 31.2004C1.30356 31.4496 1.06031 31.8794 0.945524 32.4845L0.748742 33.5386L3.85899 34.1217L3.99564 33.3962C4.15143 32.5612 3.83439 32.1204 2.94067 31.7863L2.95434 31.7069L5.80494 32.2436L5.79127 32.323C4.8183 32.3038 4.34001 32.6077 4.18422 33.4318L4.04757 34.1573L7.32453 34.7733L7.51858 33.7384C7.65523 33.0129 7.58418 32.4626 7.29174 32.0902C7.00203 31.7152 6.42535 31.3401 5.5453 30.9787L5.55896 30.9075V30.9102Z" fill="#0D1F3D"></path><path d="M3.29595 24.1204L4.09128 22.0834L4.15687 22.108C3.97649 22.7651 4.17054 23.1019 4.85654 23.3729L10.4375 25.5632L10.4266 25.5906L2.96798 27.8712L7.38191 29.6043C8.17177 29.9137 8.5216 29.7685 8.87417 29.0923L8.93976 29.1169L8.12804 31.1922L8.06244 31.1676C8.25922 30.4722 8.07884 30.1518 7.28898 29.8425L2.58262 27.9972C2.14533 28.1423 1.81189 28.3586 1.60418 28.6351L1.53858 28.6104L2.21092 26.8938L8.33029 25.0102L4.76362 23.6111C4.04755 23.3319 3.72505 23.4633 3.35881 24.1477L3.29322 24.1231L3.29595 24.1204Z" fill="#0D1F3D"></path><path d="M37.3991 18.0889V34.0404L29.4233 26.0646L37.3991 18.0889Z" fill="#0D1F3D"></path><path d="M53.5968 22.7621L42.3158 34.0404V22.7621H53.5968Z" fill="#0D1F3D"></path><path d="M61.7477 37.518H45.7962L53.772 29.5422L61.7477 37.518Z" fill="#0D1F3D"></path><path d="M57.0744 42.4375V53.7158L45.7962 42.4375H57.0744Z" fill="#0D1F3D"></path><path d="M50.2916 53.8909L42.3158 61.8667V45.9151L50.2916 53.8909Z" fill="#0D1F3D"></path><path d="M37.399 45.9151V57.1961H26.118L37.399 45.9151Z" fill="#0D1F3D"></path><path d="M33.9188 42.4375L25.943 50.4133L17.97 42.4375H33.9188Z" fill="#0D1F3D"></path><path d="M33.9187 37.518H22.6405V26.2397L33.9187 37.518Z" fill="#0D1F3D"></path><path d="M43.3365 39.9778L45.7962 42.4375L42.3159 42.4375L42.3158 45.9151L39.8589 43.4554L37.399 45.9151L37.3991 42.4375L33.9188 42.4375L36.3785 39.9778L33.9187 37.518L37.3991 37.518L37.3991 34.0404L39.8589 36.5002L42.3158 34.0404L42.3159 37.518L45.7962 37.518L43.3365 39.9778Z" fill="#0D1F3D"></path></g><defs><clipPath id="clip0_568_441"><rect width="80" height="80" fill="white"></rect></clipPath></defs></svg>