<svg xmlns="http://www.w3.org/2000/svg" width="113" height="88" viewBox="0 0 113 88" fill="none"><g clip-path="url(#clip0_76_140)"><path d="M14.1625 86.7379C14.1761 86.5674 14.1829 86.3627 14.1897 86.1206C14.1965 85.8818 14.1999 85.626 14.2033 85.3531C14.2067 85.0803 14.2101 84.7971 14.2101 84.5106C14.2101 84.2241 14.2101 83.941 14.2033 83.6682C14.1999 83.3953 14.1931 83.1395 14.1897 82.9007C14.1829 82.662 14.1761 82.4573 14.1625 82.2833C14.445 82.2833 14.7002 82.2833 14.9283 82.2765C15.1563 82.2731 15.3707 82.2697 15.5716 82.2663C15.7724 82.2663 15.9664 82.2629 16.1536 82.2561C16.3408 82.2527 16.5348 82.2492 16.739 82.2492C17.2257 82.2492 17.658 82.3004 18.0426 82.4027C18.4272 82.5051 18.7505 82.6517 19.0194 82.8427C19.2849 83.0337 19.4891 83.2657 19.6287 83.542C19.7682 83.8182 19.8363 84.132 19.8363 84.4799C19.8363 84.8278 19.7648 85.1519 19.6185 85.435C19.4721 85.7147 19.2611 85.9534 18.982 86.1479C18.7029 86.3423 18.3659 86.4889 17.9677 86.5947C17.5695 86.697 17.1168 86.7516 16.6063 86.7516C16.2216 86.7516 15.82 86.7516 15.4082 86.7447C14.9963 86.7413 14.5777 86.7379 14.1591 86.7379H14.1625ZM15.221 82.9348C15.2142 83.3578 15.2074 83.7739 15.2074 84.1798C15.2074 84.2821 15.2074 84.4868 15.2074 84.7903C15.2074 85.0939 15.2142 85.51 15.221 86.0421C15.3946 86.0489 15.6056 86.0592 15.8438 86.0728C16.0855 86.083 16.3374 86.0899 16.6063 86.0899C16.95 86.0899 17.2563 86.0523 17.5286 85.9807C17.8009 85.9091 18.0324 85.8034 18.2196 85.6669C18.4068 85.5305 18.5497 85.3599 18.6484 85.1621C18.7471 84.9643 18.7982 84.7358 18.7982 84.4868C18.7982 84.2378 18.7505 84.0195 18.6518 83.8216C18.5531 83.6238 18.4136 83.4601 18.2298 83.3237C18.046 83.1872 17.8179 83.0849 17.5525 83.0167C17.287 82.9485 16.9841 82.9109 16.6437 82.9109C16.4429 82.9109 16.2421 82.9144 16.031 82.9212C15.8234 82.928 15.626 82.9348 15.4422 82.9348H15.2142H15.221Z" fill="url(#paint0_linear_76_140)"></path><path d="M25.071 86.7379C25.0166 86.5878 24.9587 86.4344 24.9009 86.2775C24.843 86.1206 24.7817 85.9637 24.7205 85.8033C24.5299 85.7999 24.3223 85.7965 24.101 85.7897C23.8798 85.7829 23.6517 85.7829 23.4237 85.7829C23.1957 85.7829 22.9676 85.7829 22.743 85.7829C22.5183 85.7829 22.3073 85.7863 22.1133 85.7931C22.0452 85.9602 21.9806 86.124 21.9159 86.2809C21.8512 86.4378 21.79 86.5878 21.7321 86.7311H20.5613C20.922 85.9807 21.2726 85.2371 21.6062 84.5038C21.9397 83.7671 22.2631 83.0269 22.5796 82.2765C22.6885 82.2902 22.8144 82.297 22.9642 82.3072C23.114 82.314 23.2671 82.3209 23.4237 82.3209C23.5803 82.3209 23.7334 82.3209 23.8832 82.314C24.0329 82.3072 24.1623 82.2936 24.2678 82.2765C24.5809 83.0269 24.9077 83.7705 25.248 84.5038C25.5884 85.2371 25.9356 85.9807 26.2998 86.7311H25.0779L25.071 86.7379ZM22.3243 81.9525C22.4843 81.7854 22.6204 81.6319 22.7328 81.4954C22.8451 81.359 22.9608 81.2157 23.0765 81.0691C23.291 81.0759 23.5054 81.0759 23.7164 81.0691C23.8423 81.2157 23.9717 81.359 24.0942 81.4954C24.2167 81.6319 24.3699 81.7854 24.5435 81.9525C24.312 81.932 24.0806 81.932 23.8457 81.9525C23.7709 81.8502 23.6994 81.7547 23.6347 81.6694C23.5701 81.5841 23.4952 81.4886 23.4101 81.3863C23.3318 81.4886 23.2569 81.5841 23.1957 81.6694C23.131 81.7547 23.0629 81.8502 22.9914 81.9525C22.7736 81.9354 22.549 81.9354 22.3243 81.9525ZM22.3584 85.1894C22.5183 85.1928 22.6885 85.1962 22.8689 85.1996C23.0493 85.203 23.2331 85.1996 23.4169 85.1996C23.6007 85.1996 23.7811 85.1996 23.9649 85.1996C24.1453 85.1996 24.3154 85.1928 24.4754 85.1894C24.3086 84.7699 24.1351 84.364 23.9547 83.9649C23.7743 83.5658 23.5905 83.1906 23.3999 82.8325C23.3386 82.9485 23.2705 83.0917 23.1922 83.2589C23.114 83.4294 23.0323 83.617 22.9404 83.8216C22.8519 84.0263 22.7566 84.248 22.6579 84.4799C22.5592 84.7119 22.4605 84.9506 22.3584 85.1894ZM24.3154 81.3556C24.3699 81.2908 24.4278 81.2226 24.4856 81.1475C24.5435 81.0725 24.6013 80.994 24.6626 80.9156C24.7239 80.8371 24.7783 80.7621 24.8328 80.6871C24.8872 80.612 24.9349 80.5404 24.9791 80.479C25.0336 80.4858 25.1085 80.4926 25.197 80.4961C25.2855 80.4995 25.3808 80.5029 25.4761 80.5029C25.5714 80.5029 25.6667 80.5029 25.7586 80.4961C25.8505 80.4926 25.9254 80.4858 25.9798 80.479C25.8913 80.5438 25.7994 80.612 25.7007 80.6871C25.602 80.7621 25.5033 80.8406 25.4012 80.9156C25.3025 80.994 25.2072 81.0691 25.1187 81.1475C25.0302 81.2226 24.9519 81.2942 24.8838 81.3556C24.86 81.3522 24.8226 81.3488 24.7715 81.3454C24.7205 81.342 24.666 81.3454 24.6082 81.3454C24.5503 81.3454 24.4958 81.3454 24.4448 81.3454C24.3937 81.3454 24.3529 81.3488 24.3188 81.3556H24.3154Z" fill="url(#paint1_linear_76_140)"></path><path d="M32.4705 84.5209C32.4705 84.8927 32.4092 85.2235 32.2901 85.5134C32.1676 85.8034 31.994 86.0523 31.7694 86.2536C31.5413 86.4548 31.2656 86.6083 30.9355 86.714C30.6053 86.8198 30.2309 86.8744 29.8123 86.8744C29.3936 86.8744 29.0022 86.8198 28.6687 86.714C28.3351 86.6083 28.0594 86.4548 27.8348 86.2536C27.6135 86.0523 27.4434 85.8068 27.3276 85.5134C27.2119 85.2235 27.1541 84.8927 27.1541 84.5209C27.1541 84.0638 27.1541 83.6443 27.1438 83.2657C27.137 82.8871 27.1234 82.5596 27.1064 82.2833C27.1983 82.3004 27.2936 82.3106 27.3889 82.3175C27.4876 82.3243 27.5863 82.3277 27.685 82.3277C27.7769 82.3277 27.8688 82.3277 27.9607 82.3175C28.0526 82.3106 28.1377 82.3004 28.216 82.2833C28.1956 82.5596 28.1819 82.8837 28.1785 83.2589C28.1717 83.634 28.1683 84.0638 28.1683 84.5447C28.1683 85.0632 28.3079 85.4691 28.5836 85.7624C28.8593 86.0558 29.2677 86.2024 29.8089 86.2024C30.3501 86.2024 30.7517 86.0558 31.0308 85.7624C31.3065 85.4691 31.446 85.0632 31.446 84.5447C31.446 84.0638 31.446 83.634 31.4392 83.2589C31.4358 82.8837 31.4222 82.5596 31.4052 82.2833C31.4971 82.3004 31.5924 82.3106 31.6877 82.3175C31.7864 82.3243 31.8851 82.3277 31.9838 82.3277C32.0757 82.3277 32.1676 82.3277 32.2595 82.3175C32.3514 82.3106 32.4365 82.3004 32.5147 82.2833C32.5079 82.4198 32.5011 82.5733 32.4943 82.7472C32.4875 82.9212 32.4841 83.1054 32.4807 83.2998C32.4807 83.4942 32.4773 83.6954 32.4739 83.9035C32.4705 84.1116 32.4739 84.3162 32.4739 84.5209H32.4705Z" fill="url(#paint2_linear_76_140)"></path><path d="M40.0095 86.7379C39.9551 86.5878 39.8972 86.4344 39.8393 86.2775C39.7815 86.1206 39.7202 85.9637 39.6589 85.8033C39.4683 85.7999 39.2607 85.7965 39.0395 85.7897C38.8182 85.7829 38.5902 85.7829 38.3622 85.7829C38.1341 85.7829 37.9061 85.7829 37.6814 85.7829C37.4568 85.7829 37.2458 85.7863 37.0518 85.7931C36.9837 85.9602 36.919 86.124 36.8544 86.2809C36.7897 86.4378 36.7284 86.5878 36.6706 86.7311H35.4997C35.8605 85.9807 36.2111 85.2371 36.5446 84.5038C36.8782 83.7671 37.2015 83.0269 37.5181 82.2765C37.627 82.2902 37.7529 82.297 37.9027 82.3072C38.0524 82.314 38.2056 82.3209 38.3622 82.3209C38.5187 82.3209 38.6719 82.3209 38.8216 82.314C38.9714 82.3072 39.1007 82.2936 39.2063 82.2765C39.5194 83.0269 39.8461 83.7705 40.1865 84.5038C40.5269 85.2371 40.874 85.9807 41.2382 86.7311H40.0163L40.0095 86.7379ZM37.2628 81.9525C37.4228 81.7854 37.5589 81.6319 37.6712 81.4954C37.7835 81.359 37.8993 81.2157 38.015 81.0691C38.2294 81.0759 38.4438 81.0759 38.6549 81.0691C38.7808 81.2157 38.9101 81.359 39.0327 81.4954C39.1552 81.6319 39.3084 81.7854 39.4819 81.9525C39.2505 81.932 39.0191 81.932 38.7842 81.9525C38.7093 81.8502 38.6379 81.7547 38.5732 81.6694C38.5085 81.5841 38.4336 81.4886 38.3485 81.3863C38.2703 81.4886 38.1954 81.5841 38.1341 81.6694C38.0695 81.7547 38.0014 81.8502 37.9299 81.9525C37.7121 81.9354 37.4874 81.9354 37.2628 81.9525ZM37.3002 85.1894C37.4602 85.1928 37.6304 85.1962 37.8108 85.1996C37.9912 85.203 38.175 85.1996 38.3588 85.1996C38.5426 85.1996 38.7229 85.1996 38.9067 85.1996C39.0871 85.1996 39.2573 85.1928 39.4173 85.1894C39.2505 84.7699 39.0769 84.364 38.8965 83.9649C38.7161 83.5658 38.5323 83.1906 38.3417 82.8325C38.2805 82.9485 38.2124 83.0917 38.1341 83.2589C38.0558 83.4294 37.9741 83.617 37.8822 83.8216C37.7938 84.0263 37.6985 84.248 37.5997 84.4799C37.501 84.7119 37.4023 84.9506 37.3002 85.1894ZM39.2573 81.3556C39.3118 81.2908 39.3696 81.2226 39.4275 81.1475C39.4854 81.0725 39.5432 80.994 39.6045 80.9156C39.6657 80.8371 39.7202 80.7621 39.7747 80.6871C39.8291 80.612 39.8768 80.5404 39.921 80.479C39.9755 80.4858 40.0504 80.4926 40.1388 80.4961C40.2273 80.4995 40.3226 80.5029 40.4179 80.5029C40.5132 80.5029 40.6085 80.5029 40.7004 80.4961C40.7923 80.4926 40.8672 80.4858 40.9217 80.479C40.8332 80.5438 40.7413 80.612 40.6426 80.6871C40.5439 80.7621 40.4452 80.8406 40.3431 80.9156C40.2444 80.994 40.1491 81.0691 40.0606 81.1475C39.9721 81.2226 39.8938 81.2942 39.8257 81.3556C39.8019 81.3522 39.7645 81.3488 39.7134 81.3454C39.6623 81.342 39.6079 81.3454 39.55 81.3454C39.4922 81.3454 39.4377 81.3454 39.3866 81.3454C39.3356 81.3454 39.2948 81.3488 39.2607 81.3556H39.2573Z" fill="url(#paint3_linear_76_140)"></path><path d="M46.136 86.7379C45.6663 86.1206 45.1898 85.51 44.7031 84.9063C44.2164 84.3026 43.7194 83.7057 43.2123 83.1122C43.2089 83.4328 43.2055 83.75 43.2055 84.0706C43.2055 84.9609 43.2259 85.8511 43.2668 86.7379H42.1912C42.2151 85.9909 42.2287 85.2474 42.2287 84.5072C42.2287 83.7671 42.2151 83.0235 42.1912 82.2833C42.2933 82.297 42.4159 82.3038 42.5554 82.314C42.695 82.3209 42.8345 82.3277 42.9775 82.3277C43.1034 82.3277 43.2293 82.3277 43.3519 82.3175C43.4744 82.3106 43.5799 82.3004 43.6718 82.2833C44.5908 83.5215 45.5506 84.7392 46.5547 85.9432C46.5581 85.5919 46.5615 85.2406 46.5615 84.8892C46.5615 84.63 46.5615 84.2821 46.5547 83.8489C46.5513 83.4158 46.5342 82.8905 46.5002 82.2833C46.5955 82.3004 46.6908 82.3106 46.7827 82.3175C46.8746 82.3243 46.9699 82.3277 47.0618 82.3277C47.2456 82.3277 47.4124 82.314 47.5621 82.2868C47.5417 82.9416 47.5315 83.5965 47.5315 84.248C47.5315 85.0802 47.5485 85.9125 47.5791 86.7413H46.136V86.7379Z" fill="url(#paint4_linear_76_140)"></path><path d="M53.3585 84.5618C53.5219 84.5789 53.6988 84.6164 53.886 84.6744C54.0732 84.7358 54.2673 84.8108 54.4613 84.9063C54.6553 85.0018 54.8459 85.1144 55.0331 85.2406C55.2203 85.3668 55.3904 85.51 55.547 85.6669C55.7036 85.8238 55.8363 85.9909 55.9486 86.1683C56.061 86.3457 56.1392 86.5367 56.1869 86.7379H54.8935C54.8901 86.639 54.8629 86.523 54.8118 86.3934C54.7608 86.2638 54.6927 86.1308 54.6042 85.9909C54.5157 85.8545 54.4034 85.7181 54.2673 85.5816C54.1311 85.4452 53.9745 85.3258 53.7976 85.2201C53.6206 85.1144 53.4232 85.0291 53.2019 84.9643C52.9807 84.8995 52.739 84.8654 52.477 84.8654H52.3408C52.2932 84.8654 52.2421 84.8688 52.191 84.879C52.1945 85.1792 52.2013 85.4827 52.2115 85.7931C52.2217 86.1035 52.2353 86.4207 52.2489 86.7379H51.1155C51.1291 86.5503 51.1359 86.3354 51.1461 86.0967C51.1529 85.8545 51.1598 85.6021 51.1632 85.3327C51.1666 85.0666 51.17 84.7903 51.17 84.5106C51.17 84.2309 51.17 83.9547 51.1632 83.6886C51.1598 83.4226 51.1529 83.1668 51.1461 82.9246C51.1393 82.6824 51.1291 82.4675 51.1155 82.2799C51.2142 82.297 51.3129 82.3072 51.4082 82.314C51.5035 82.3209 51.5988 82.3243 51.6941 82.3243C51.8881 82.3243 52.0685 82.3106 52.2319 82.2833C52.2149 82.5699 52.2047 82.8734 52.1945 83.194C52.1876 83.5147 52.1808 83.8523 52.1808 84.2037H52.2523C52.6029 84.2037 52.9194 84.1457 53.2019 84.0331C53.4844 83.9206 53.7329 83.7705 53.9507 83.5829C54.1685 83.3953 54.3523 83.1872 54.5021 82.9587C54.6519 82.7302 54.7778 82.5085 54.8731 82.2902C54.9684 82.3072 55.0739 82.3175 55.193 82.3243C55.3122 82.3311 55.4347 82.3345 55.5606 82.3345C55.6797 82.3345 55.8023 82.3345 55.9248 82.3243C56.0473 82.314 56.1665 82.3072 56.2822 82.2902C56.1222 82.546 55.9248 82.795 55.6866 83.0371C55.4483 83.2793 55.1998 83.501 54.9344 83.7023C54.6689 83.9001 54.4 84.0706 54.1243 84.2105C53.8486 84.3503 53.5933 84.4424 53.3551 84.4868V84.5652L53.3585 84.5618Z" fill="url(#paint5_linear_76_140)"></path><path d="M61.3332 86.7379C61.3502 86.5094 61.3604 86.2468 61.3672 85.95C61.374 85.6499 61.3808 85.3327 61.3842 84.9984C61.146 84.9813 60.9043 84.9711 60.666 84.9643C60.4244 84.9575 60.1827 84.9541 59.9343 84.9541C59.662 84.9541 59.3965 84.9575 59.131 84.9677C58.8655 84.9745 58.6035 84.9882 58.3414 85.0052C58.3448 85.3395 58.3516 85.6567 58.3584 85.9568C58.3652 86.257 58.3788 86.5162 58.3992 86.7413H57.3135C57.3271 86.5537 57.3339 86.3389 57.3441 86.1001C57.3509 85.8579 57.3577 85.6055 57.3611 85.3361C57.3645 85.07 57.3679 84.7937 57.3679 84.514C57.3679 84.2344 57.3679 83.9581 57.3611 83.692C57.3577 83.426 57.3509 83.1702 57.3441 82.928C57.3373 82.6858 57.3271 82.4709 57.3135 82.2833C57.4088 82.3004 57.5041 82.3106 57.596 82.3175C57.6879 82.3243 57.7832 82.3277 57.8751 82.3277C57.967 82.3277 58.0487 82.3277 58.1338 82.3175C58.2188 82.3106 58.3039 82.3004 58.389 82.2833C58.372 82.5392 58.3618 82.8427 58.3516 83.194C58.3448 83.5454 58.338 83.9103 58.3346 84.2958C58.5932 84.3128 58.8553 84.323 59.1208 84.3333C59.3863 84.3401 59.6552 84.3469 59.9309 84.3469C60.1725 84.3469 60.4176 84.3469 60.6626 84.3367C60.9077 84.3299 61.1494 84.3196 61.3876 84.3026C61.3842 83.9206 61.3774 83.5522 61.3706 83.2009C61.3638 82.8495 61.3502 82.546 61.3366 82.2868C61.4319 82.3038 61.5272 82.314 61.6191 82.3209C61.711 82.3277 61.8063 82.3311 61.8982 82.3311C61.9901 82.3311 62.0717 82.3311 62.1534 82.3209C62.2385 82.314 62.3202 82.3038 62.4053 82.2868C62.3917 82.4744 62.3849 82.6892 62.3781 82.9314C62.3713 83.1736 62.3679 83.426 62.3645 83.6954C62.361 83.9649 62.3576 84.2412 62.3576 84.5209C62.3576 84.8006 62.3576 85.0768 62.3679 85.3429C62.3747 85.6089 62.3815 85.8647 62.3917 86.1069C62.4019 86.3491 62.4121 86.5606 62.4257 86.7447H61.34L61.3332 86.7379Z" fill="url(#paint6_linear_76_140)"></path><path d="M67.8851 86.7379C67.8307 86.5878 67.7728 86.4344 67.7149 86.2775C67.6571 86.1206 67.5958 85.9637 67.5345 85.8033C67.3439 85.7999 67.1363 85.7965 66.9151 85.7897C66.6938 85.7829 66.4658 85.7829 66.2378 85.7829C66.0097 85.7829 65.7817 85.7829 65.557 85.7829C65.3324 85.7829 65.1214 85.7863 64.9274 85.7931C64.8593 85.9602 64.7946 86.124 64.73 86.2809C64.6653 86.4378 64.604 86.5878 64.5462 86.7311H63.3753C63.7361 85.9807 64.0867 85.2371 64.4202 84.5038C64.7538 83.7671 65.0771 83.0269 65.3937 82.2765C65.5162 82.2902 65.6626 82.3004 65.8293 82.3106C65.9961 82.3209 66.1663 82.3243 66.3433 82.3243C66.4828 82.3243 66.6156 82.3243 66.7449 82.314C66.8742 82.3072 66.9866 82.2936 67.0819 82.2765C67.395 83.0269 67.7217 83.7705 68.0621 84.5038C68.4025 85.2371 68.7496 85.9807 69.1138 86.7311H67.8919L67.8851 86.7379ZM65.1758 85.1894C65.3392 85.1928 65.5094 85.1962 65.6864 85.1996C65.8634 85.1996 66.0472 85.1996 66.2344 85.1996C66.4216 85.1996 66.6054 85.1996 66.7823 85.1996C66.9593 85.1996 67.1295 85.1928 67.2895 85.1894C67.1227 84.7699 66.9491 84.364 66.7687 83.9649C66.5883 83.5658 66.4045 83.1906 66.2139 82.8325C66.1527 82.9485 66.0846 83.0917 66.0063 83.2589C65.928 83.4294 65.8463 83.617 65.7544 83.8216C65.666 84.0263 65.5707 84.248 65.472 84.4799C65.3732 84.7119 65.2745 84.9506 65.1724 85.1894H65.1758ZM65.8429 81.9525C65.8974 81.8877 65.9553 81.8195 66.0131 81.7444C66.071 81.6694 66.1288 81.5909 66.1901 81.5159C66.2514 81.4375 66.3058 81.3624 66.3603 81.284C66.4148 81.2089 66.4624 81.1373 66.5066 81.0759C66.5577 81.0827 66.6258 81.0895 66.7143 81.093C66.7994 81.0964 66.8879 81.0998 66.9798 81.0998C67.0819 81.0998 67.184 81.0998 67.2827 81.093C67.3814 81.0895 67.4563 81.0827 67.5107 81.0759C67.4222 81.1407 67.3303 81.2089 67.2316 81.284C67.1329 81.359 67.0342 81.4375 66.9321 81.5159C66.8334 81.5944 66.7381 81.6694 66.6496 81.7444C66.5611 81.8195 66.4828 81.8911 66.4147 81.9525C66.3909 81.9491 66.3535 81.9457 66.3024 81.9423C66.2514 81.9423 66.1969 81.9423 66.1391 81.9423C66.0812 81.9423 66.0267 81.9423 65.9757 81.9423C65.9246 81.9423 65.8838 81.9457 65.8498 81.9525H65.8429Z" fill="url(#paint7_linear_76_140)"></path><path d="M72.8986 86.8403C72.4085 86.8403 71.9729 86.7857 71.5916 86.6765C71.2104 86.5674 70.8871 86.4105 70.625 86.2058C70.3629 86.0012 70.1621 85.7556 70.0294 85.4657C69.8932 85.1758 69.8252 84.8517 69.8252 84.4868C69.8252 84.1218 69.9001 83.7739 70.0498 83.484C70.1996 83.194 70.4106 82.9519 70.6863 82.7575C70.962 82.563 71.2921 82.413 71.6835 82.314C72.075 82.2151 72.5106 82.164 72.9973 82.164C73.3445 82.164 73.7189 82.1981 74.1205 82.2629C74.5222 82.3277 74.9612 82.4607 75.4411 82.662C75.4207 82.8359 75.4105 82.9962 75.4105 83.1361C75.4105 83.2759 75.4207 83.4362 75.4411 83.6102C75.2029 83.4669 74.9714 83.3475 74.7502 83.2554C74.529 83.1633 74.3145 83.0883 74.1137 83.0303C73.9129 82.9757 73.7223 82.9348 73.5453 82.9144C73.3683 82.8939 73.205 82.8802 73.0518 82.8802C72.7182 82.8802 72.4153 82.9144 72.1464 82.986C71.8776 83.0542 71.6495 83.1599 71.4555 83.293C71.2649 83.4294 71.1185 83.5965 71.0164 83.7944C70.9143 83.9922 70.8633 84.2241 70.8633 84.4834C70.8633 84.7255 70.9075 84.9472 70.996 85.1485C71.0845 85.3463 71.2207 85.5202 71.3976 85.6635C71.578 85.8068 71.7993 85.9193 72.0682 85.9944C72.337 86.0728 72.6502 86.1103 73.0076 86.1103C73.433 86.1103 73.8482 86.0387 74.2567 85.8989C74.6651 85.759 75.0565 85.51 75.4309 85.1587C75.4241 85.244 75.4173 85.3258 75.4173 85.4111C75.4173 85.4964 75.4241 85.6021 75.4411 85.7249C75.4582 85.8477 75.4752 85.9671 75.4956 86.0865C75.3288 86.2092 75.1518 86.3184 74.968 86.4105C74.7842 86.5026 74.5868 86.581 74.3724 86.6424C74.1614 86.7072 73.9333 86.755 73.6917 86.7857C73.45 86.8164 73.1811 86.8334 72.8918 86.8334L72.8986 86.8403Z" fill="url(#paint8_linear_76_140)"></path><path d="M78.8447 86.7379C78.8584 86.5503 78.8652 86.3354 78.8754 86.0967C78.8822 85.8545 78.889 85.5987 78.8924 85.3292C78.8958 85.0598 78.8992 84.7835 78.8992 84.5038C78.8992 84.2241 78.8992 83.9478 78.8924 83.6784C78.889 83.4089 78.8822 83.1531 78.8754 82.9144C78.8686 82.6722 78.8584 82.4573 78.8447 82.2697C79.049 82.2697 79.2498 82.2697 79.4472 82.2697C79.6446 82.2697 79.8556 82.2663 80.0701 82.2629C80.2845 82.2595 80.5159 82.2595 80.7576 82.2561C80.9992 82.2561 81.2613 82.2561 81.5438 82.2561C82.2484 82.2561 82.7861 82.3447 83.1605 82.5187C83.5349 82.6926 83.7221 82.9792 83.7221 83.3748C83.7221 83.5488 83.6847 83.7023 83.6132 83.8251C83.5417 83.9478 83.4396 84.0536 83.3137 84.132C83.1878 84.2105 83.0414 84.2719 82.8678 84.3128C82.6976 84.3537 82.5173 84.3776 82.3232 84.3844V84.4629C82.5615 84.4663 82.7827 84.4936 82.9904 84.5379C83.198 84.5823 83.3716 84.6505 83.5213 84.7426C83.6711 84.8313 83.7868 84.9438 83.8719 85.0803C83.957 85.2167 83.9978 85.3804 83.9978 85.5714C83.9978 85.7522 83.9604 85.9057 83.8855 86.0353C83.8106 86.1649 83.7085 86.274 83.5792 86.3627C83.4498 86.4514 83.3001 86.523 83.1299 86.5776C82.9597 86.6322 82.7793 86.6731 82.5921 86.7038C82.4049 86.7345 82.2143 86.755 82.0203 86.7652C81.8263 86.7754 81.6391 86.7789 81.4587 86.7789C81.149 86.7789 80.8767 86.7789 80.6419 86.772C80.407 86.7652 80.1926 86.7652 79.9952 86.7584C79.7978 86.7516 79.6106 86.7516 79.4302 86.7447C79.2498 86.7413 79.0592 86.7379 78.8516 86.7379H78.8447ZM79.8965 84.2344C80.1517 84.2378 80.4172 84.2412 80.6963 84.2446C80.9754 84.248 81.2579 84.2446 81.5506 84.2446C82.279 84.2446 82.6432 84.0263 82.6432 83.5863C82.6432 83.3509 82.5479 83.1872 82.3607 83.0917C82.1735 82.9996 81.9012 82.9519 81.5506 82.9519H80.584C80.3015 82.9519 80.0769 82.9519 79.9101 82.9587C79.9033 83.1599 79.8965 83.3271 79.8965 83.4703C79.8965 83.6136 79.8965 83.7193 79.8965 83.7909C79.8965 83.9342 79.8965 84.0809 79.9033 84.2344H79.8965ZM79.8965 84.8313C79.8965 85.0359 79.8965 85.2406 79.9033 85.452C79.9067 85.6601 79.9135 85.8613 79.9203 86.0523C80.0394 86.0558 80.1551 86.0592 80.2641 86.0626C80.373 86.066 80.4887 86.066 80.6112 86.0694C80.7338 86.0694 80.8665 86.0728 81.0129 86.0762C81.1592 86.0762 81.3226 86.0762 81.5098 86.0762C81.7787 86.0762 82.0033 86.0592 82.1769 86.0216C82.3505 85.9875 82.4866 85.9364 82.5853 85.875C82.684 85.8136 82.7555 85.742 82.7929 85.6601C82.8338 85.5782 82.8542 85.493 82.8542 85.4043C82.8542 85.3258 82.8338 85.2508 82.7963 85.1792C82.7589 85.1109 82.6908 85.0461 82.5887 84.995C82.4866 84.9438 82.3573 84.8995 82.1871 84.8688C82.0169 84.8381 81.8059 84.8244 81.5472 84.8244H80.6929C80.4138 84.8244 80.1483 84.8244 79.8931 84.8313H79.8965Z" fill="url(#paint9_linear_76_140)"></path><path d="M85.138 86.7379C85.1516 86.5503 85.1585 86.3354 85.1687 86.0967C85.1755 85.8545 85.1823 85.6021 85.1857 85.3327C85.1891 85.0666 85.1925 84.7903 85.1925 84.5106C85.1925 84.2309 85.1925 83.9547 85.1857 83.6886C85.1789 83.4226 85.1755 83.1668 85.1687 82.9246C85.1619 82.6824 85.1516 82.4675 85.138 82.2799C85.2367 82.297 85.3354 82.3072 85.4342 82.314C85.5329 82.3209 85.6282 82.3243 85.7235 82.3243C85.9175 82.3243 86.0979 82.3106 86.2612 82.2833C86.2476 82.4709 86.2408 82.6858 86.2306 82.928C86.2238 83.1702 86.217 83.4226 86.2136 83.692C86.2102 83.9615 86.2068 84.2378 86.2068 84.5175C86.2068 84.7971 86.2068 85.0734 86.217 85.3395C86.2238 85.6055 86.2306 85.8613 86.2408 86.1035C86.251 86.3457 86.2612 86.5571 86.2748 86.7413H85.1414L85.138 86.7379Z" fill="url(#paint10_linear_76_140)"></path><path d="M87.6669 86.7379C87.6805 86.5503 87.6873 86.3354 87.6975 86.0933C87.7044 85.8511 87.7112 85.5953 87.7146 85.3258C87.718 85.0564 87.7214 84.7801 87.7214 84.5004C87.7214 84.2207 87.7214 83.9444 87.7146 83.6784C87.7112 83.4123 87.7044 83.1565 87.6975 82.9178C87.6907 82.679 87.6805 82.4675 87.6669 82.2833C87.7895 82.297 87.9698 82.3038 88.2013 82.314C88.4327 82.3209 88.6982 82.3277 88.9875 82.3345C89.2802 82.3413 89.59 82.3447 89.9201 82.3482C90.2503 82.3516 90.5736 82.3482 90.8867 82.3482C91.1999 82.3482 91.496 82.3413 91.7683 82.3345C92.0406 82.3277 92.2686 82.3175 92.4524 82.3004C92.4286 82.5903 92.4286 82.8905 92.4524 83.1975C92.2448 83.1531 91.9861 83.1156 91.6798 83.0883C91.3701 83.0576 91.0467 83.0337 90.7063 83.0133C90.366 82.9928 90.0256 82.9792 89.6819 82.9689C89.3381 82.9587 89.0284 82.9553 88.7459 82.9553C88.7391 83.1702 88.7323 83.3816 88.7323 83.5931C88.7323 83.8012 88.7323 84.0161 88.7323 84.2309C89.0114 84.2344 89.3007 84.2344 89.6036 84.2309C89.9065 84.2275 90.2026 84.2207 90.4953 84.2139C90.788 84.2071 91.0637 84.1968 91.3292 84.1832C91.5947 84.1696 91.8261 84.1593 92.0269 84.1491C92.0031 84.4049 92.0031 84.6539 92.0269 84.9029C91.8227 84.8892 91.5913 84.879 91.3258 84.8688C91.0603 84.8585 90.7812 84.8517 90.4919 84.8449C90.1992 84.8381 89.9031 84.8347 89.6036 84.8313C89.3041 84.8278 89.0148 84.8313 88.7357 84.8313C88.7357 85.0359 88.7357 85.2406 88.7357 85.4452C88.7357 85.6499 88.7459 85.8579 88.7561 86.066C89.0386 86.0694 89.3517 86.066 89.6921 86.0558C90.0358 86.0455 90.3762 86.0319 90.7166 86.0114C91.0569 85.9909 91.3803 85.9671 91.6832 85.933C91.9861 85.9023 92.2448 85.8647 92.449 85.8238C92.4252 86.1274 92.4252 86.4309 92.449 86.7379H87.6601H87.6669ZM88.9263 81.9525C89.0862 81.7854 89.2224 81.6319 89.3347 81.4954C89.447 81.359 89.5627 81.2157 89.6785 81.0691C89.8929 81.0759 90.1073 81.0759 90.3183 81.0691C90.4443 81.2157 90.5736 81.359 90.6961 81.4954C90.8187 81.6319 90.9718 81.7854 91.1454 81.9525C90.914 81.932 90.6825 81.932 90.4477 81.9525C90.3728 81.8502 90.3013 81.7547 90.2366 81.6694C90.172 81.5841 90.0971 81.4886 90.012 81.3863C89.9337 81.4886 89.8623 81.5841 89.7976 81.6694C89.7329 81.7547 89.6648 81.8502 89.5934 81.9525C89.3755 81.9354 89.1509 81.9354 88.9263 81.9525ZM89.961 87.8567C89.8146 87.8567 89.7023 87.8328 89.6308 87.7851C89.5559 87.7373 89.5219 87.6589 89.5219 87.5531C89.5219 87.3451 89.6682 87.2427 89.9644 87.2427C90.2877 87.2427 90.4477 87.3451 90.4477 87.5531C90.4477 87.6623 90.4102 87.7373 90.332 87.7851C90.2537 87.8328 90.1311 87.8567 89.9644 87.8567H89.961Z" fill="url(#paint11_linear_76_140)"></path><path d="M95.3319 86.7379C95.3489 86.5026 95.3591 86.2331 95.3659 85.9227C95.3727 85.6158 95.3795 85.3361 95.3795 85.0837C95.3795 84.8313 95.3795 84.6164 95.3795 84.4458C95.3795 84.2753 95.3795 84.0638 95.3795 83.8046C95.3795 83.5454 95.3727 83.2623 95.3659 82.9553C94.9268 82.9587 94.5388 82.9758 94.1985 83.003C93.8581 83.0303 93.5313 83.0678 93.2216 83.1156C93.2454 82.9757 93.2591 82.8359 93.2591 82.6961C93.2591 82.5562 93.2454 82.4164 93.2216 82.2765C93.7186 82.2902 94.1848 82.297 94.6171 82.3038C95.0494 82.3106 95.4748 82.314 95.8969 82.314C96.3189 82.314 96.7512 82.314 97.1834 82.3038C97.6157 82.297 98.0786 82.2902 98.5721 82.2765C98.5483 82.4164 98.5381 82.5562 98.5381 82.6961C98.5381 82.8359 98.5517 82.9757 98.5721 83.1156C98.259 83.0678 97.9322 83.0303 97.5919 83.003C97.2515 82.9758 96.8601 82.9587 96.4176 82.9553C96.4108 83.2623 96.404 83.5317 96.404 83.7603C96.404 83.9888 96.404 84.1627 96.404 84.2787C96.404 84.5072 96.404 84.7596 96.4108 85.0427C96.4142 85.3224 96.421 85.6192 96.4312 85.9261C96.4414 86.2331 96.4551 86.506 96.4687 86.7413H95.3353L95.3319 86.7379Z" fill="url(#paint12_linear_76_140)"></path><path d="M99.7361 62.0196C98.8069 61.8047 98.0615 61.4705 97.5306 61.1396C97.0166 61.4875 96.2712 61.8047 95.342 62.0196L95.1583 61.9037C95.8696 61.6376 96.5503 60.8395 97.0166 60.3415L97.8948 60.1914C98.3747 60.6553 99.1201 61.6035 99.8995 61.9037L99.7327 62.0196H99.7361Z" fill="url(#paint13_linear_76_140)"></path><path d="M69.7401 65.8807C69.2772 64.9495 68.6305 64.2367 67.766 63.6534C66.9219 63.0872 65.9076 62.8075 64.7504 62.8075H59.9274L60.3597 63.3567C60.5571 63.6057 60.7069 63.9229 60.8226 64.3185C60.9383 64.7176 60.9894 65.2497 60.9894 65.9148V71.9623C60.9894 72.6444 60.9383 73.1595 60.8226 73.5585C60.7069 73.9576 60.5571 74.2885 60.3597 74.5375L59.9274 75.0866H64.7504C66.5066 75.0354 67.9157 74.4215 68.9096 73.2413C69.9034 72.0782 70.4174 70.632 70.4174 68.9539C70.4514 67.8419 70.2029 66.7948 69.7367 65.8807H69.7401ZM66.9525 72.9105C66.3569 73.3095 65.6251 73.5074 64.764 73.5074H62.5925V64.4209H64.747C66.0574 64.455 67.0512 64.8847 67.7626 65.7511C68.4909 66.614 68.8551 67.6953 68.8551 68.9744C68.8551 69.8373 68.6883 70.5843 68.3582 71.2664C68.028 71.9486 67.5617 72.4807 66.9491 72.9105H66.9525Z" fill="url(#paint14_linear_76_140)"></path><path d="M77.8815 62.8246L78.2967 63.3567C78.5112 63.6227 78.6609 63.9536 78.7596 64.3356C78.8754 64.7688 78.9434 65.2975 78.9434 65.9319V70.9151C78.9434 72.8252 77.616 73.5074 76.3567 73.5074C74.8659 73.5074 73.7699 72.4261 73.7699 70.9151V65.9319C73.7699 64.7176 73.9673 63.9399 74.3996 63.3567L74.8148 62.8246H71.1355L71.5508 63.3567C71.7652 63.6227 71.915 63.9536 72.0137 64.3356C72.1294 64.7517 72.1805 65.2497 72.1805 65.9319V70.9151C72.1805 73.3232 73.9367 75.0832 76.3567 75.0832C78.7767 75.0832 80.5159 73.2891 80.5159 70.9151V65.9319C80.5159 64.7176 80.7133 63.9399 81.1456 63.3567L81.5608 62.8246H77.8815Z" fill="url(#paint15_linear_76_140)"></path><path d="M88.8752 62.8246L89.1747 63.3226C89.3074 63.5375 89.3721 63.7864 89.3721 64.0525C89.3721 64.3526 89.2904 64.6323 89.1577 64.8677L87.3027 67.743L85.4614 64.8847C85.2946 64.6016 85.1959 64.3185 85.1959 64.0695C85.1959 63.8376 85.2776 63.5886 85.4273 63.3396L85.7439 62.8246H82.0475L82.5785 63.3908C82.7759 63.6057 83.3749 64.5027 83.6881 64.9871C83.7868 65.1542 83.8855 65.2872 83.9365 65.352L86.5233 69.5542V72.0782C86.5063 73.2243 86.3089 73.9883 85.8766 74.5545L85.4614 75.0866H89.1236L88.7424 74.5545C88.528 74.2544 88.3612 73.9235 88.2625 73.5756C88.1638 73.1765 88.1128 72.6956 88.0958 72.0816V69.5747L90.6825 65.3554C90.8969 64.9905 91.7921 63.6432 92.0405 63.3942L92.5715 62.828H88.8752V62.8246Z" fill="url(#paint16_linear_76_140)"></path><path d="M101.458 73.0264C100.927 73.3437 100.247 73.5415 99.4196 73.5926C98.3917 73.6745 97.728 73.6916 97.3468 73.6916C97.163 73.6916 96.9996 73.6916 96.8499 73.6745H96.5674C96.2678 73.6575 96.0024 73.6745 95.7539 73.6745V69.7554H96.9656C97.5782 69.7554 98.0922 69.7725 98.4393 69.8202C98.7048 69.8714 98.9533 69.9703 99.2018 70.1682L99.7327 70.5672V67.3269L99.1847 67.7601C98.9533 67.9579 98.7048 68.0602 98.4393 68.0909C98.1262 68.1421 97.6259 68.1728 96.9656 68.1728H95.7539V64.4175H98.0922C98.7048 64.4175 99.2698 64.4345 99.7327 64.4823C100.114 64.5334 100.43 64.6494 100.679 64.8302L101.21 65.2122V62.8348H93.1025L93.5347 63.384C93.7321 63.633 93.8819 63.9638 93.9976 64.3629C94.1133 64.779 94.1814 65.3111 94.1814 65.9421V71.9895C94.1814 72.6717 94.1304 73.1868 94.0146 73.5858C93.9159 73.9678 93.7492 74.2987 93.5347 74.5647L93.1025 75.1139H94.6954C96.2883 75.1139 97.4148 75.1309 98.0445 75.148C98.5755 75.1821 99.1711 75.1821 99.8178 75.1821C100.43 75.1821 100.897 75.0661 101.227 74.8513C101.543 74.6364 101.758 74.3533 101.84 74.0531C101.921 73.77 101.955 73.5381 101.955 73.3232V72.7399L101.458 73.023V73.0264Z" fill="url(#paint17_linear_76_140)"></path><path d="M111.853 73.5722C111.737 73.139 111.686 72.641 111.686 71.9623V65.9319C111.686 64.7176 111.884 63.9399 112.316 63.3567L112.731 62.8246H109.035L109.45 63.3567C109.664 63.6227 109.814 63.9536 109.913 64.3356C110.029 64.7688 110.097 65.2975 110.097 65.9319V71.3961C109.566 70.4342 108.837 69.37 108.123 68.357C106.795 66.4469 105.42 64.4686 105.42 63.1725V62.8416H102.302L102.718 63.3737C102.932 63.6398 103.082 63.9706 103.181 64.3526C103.296 64.7517 103.347 65.2838 103.347 65.9489V71.9964C103.347 73.2106 103.15 74.0054 102.718 74.5716L102.302 75.1037H105.982L105.567 74.5716C105.352 74.3055 105.202 73.9747 105.104 73.5926C104.988 73.1595 104.937 72.6615 104.937 71.9827V66.6004C105.502 67.5964 106.264 68.6776 106.993 69.7077C108.32 71.5837 109.695 73.5278 109.695 74.7592V75.09H110.723L110.757 75.206V75.09H112.714L112.299 74.5579C112.101 74.2919 111.952 73.961 111.85 73.579L111.853 73.5722Z" fill="url(#paint18_linear_76_140)"></path><path d="M9.18636 71.379L8.93789 71.8429C8.63837 72.392 8.25717 72.7911 7.74322 73.0708C7.24629 73.3539 6.59961 73.4869 5.82018 73.4869C4.94205 73.4869 4.21368 73.2891 3.59762 72.873C2.95093 72.4398 2.47102 71.9111 2.13747 71.2119C1.77328 70.5126 1.60651 69.7657 1.60651 68.9027C1.60651 68.0398 1.77328 67.2757 2.12045 66.5595C2.43699 65.8773 2.9169 65.3316 3.54657 64.9154C4.15922 64.5164 4.90461 64.3185 5.75211 64.3185C6.41581 64.3185 7.04548 64.4857 7.64111 64.7995C8.21973 65.1167 8.61795 65.5635 8.88343 66.1604L9.16593 66.8255L10.1598 64.7995L10.01 64.6323C9.53012 64.0832 8.93108 63.6364 8.18569 63.2544C7.47434 62.8894 6.64386 62.7052 5.7487 62.7052C4.57105 62.7052 3.56018 62.9883 2.69907 63.5511C1.83795 64.1309 1.17425 64.8643 0.711355 65.7954C0.231446 66.7266 0 67.7737 0 68.9027C0 70.0317 0.231446 71.0447 0.697741 71.993C1.17765 72.9241 1.84136 73.6882 2.68545 74.2509C3.52955 74.8171 4.55744 75.0968 5.73509 75.0968C6.69491 75.0968 7.55943 74.9126 8.2878 74.5818C9.01618 74.2509 9.63223 73.7837 10.1428 73.1526L10.3095 72.9548L9.18295 71.3756L9.18636 71.379Z" fill="url(#paint19_linear_76_140)"></path><path d="M43.1919 73.6063C43.0761 73.1902 43.0251 72.6922 43.0251 72.0271V66.0785C43.0251 64.8813 43.2225 64.1002 43.6548 63.5545L44.07 63.0224H40.4213L40.8366 63.5545C41.034 63.8206 41.2008 64.1343 41.2995 64.5164C41.4152 64.9495 41.4833 65.4646 41.4833 66.0785V71.4609C40.9523 70.499 40.2409 69.4689 39.5432 68.4525C38.2328 66.5765 36.8748 64.6323 36.8748 63.3533V63.0224H33.7911L34.2063 63.5545C34.4037 63.8206 34.5705 64.1343 34.6692 64.5164C34.7849 64.9154 34.836 65.4305 34.836 66.0785V72.0271C34.836 73.2243 34.6386 74.0054 34.2063 74.5681L33.7911 75.1002H37.4227L37.0075 74.5681C36.8101 74.3021 36.6433 73.9883 36.5446 73.6063C36.4289 73.1902 36.3778 72.6922 36.3778 72.0271V66.7437C36.9428 67.7226 37.6712 68.7868 38.3996 69.7998C39.71 71.645 41.051 73.5722 41.051 74.766V75.0968H44.036L43.6207 74.5647C43.4369 74.2987 43.2906 73.9849 43.1885 73.6029L43.1919 73.6063Z" fill="url(#paint20_linear_76_140)"></path><path d="M21.3883 61.4978L21.3713 61.5967C21.6027 62.0128 21.6368 62.5449 21.47 63.0088C21.3543 63.3089 21.1535 63.5409 20.905 63.708C20.888 63.708 20.871 63.725 20.871 63.725C20.8539 63.725 20.8539 63.7421 20.8369 63.7421C20.7416 63.7899 20.6157 63.841 20.4591 63.8854C20.5238 63.7694 20.5919 63.6602 20.6736 63.5613L21.0888 63.0292H17.4435L17.8588 63.5613C18.0562 63.8274 18.223 64.1412 18.3217 64.5232C18.4374 64.9564 18.5055 65.4714 18.5055 66.0854V71.0038C18.5055 72.8798 17.1951 73.5449 15.9698 73.5449C14.496 73.5449 13.4341 72.4807 13.4341 71.0038V66.0854C13.4341 64.8882 13.6315 64.1071 14.0637 63.5613L14.479 63.0292H10.7997L11.2149 63.5613C11.4123 63.8274 11.5791 64.1412 11.6778 64.5232C11.7935 64.9223 11.8446 65.4202 11.8446 66.0854V71.0038C11.8446 73.3778 13.5702 75.1071 15.9561 75.1071C18.3421 75.1071 20.0507 73.3471 20.0507 71.0038V66.0854C20.0507 65.2702 20.1426 64.646 20.34 64.1582C20.6191 64.1241 20.9254 64.0832 21.1637 64.0423C21.2147 64.0423 21.2624 64.0252 21.3134 64.0082C21.3781 63.9911 21.4292 63.9911 21.4802 63.974C22.8076 63.6432 23.0731 62.6438 23.1548 61.7809V61.7638L21.3985 61.4978H21.3883Z" fill="url(#paint21_linear_76_140)"></path><path d="M31.0171 64.0491C31.0376 64.0491 31.0546 64.0423 31.075 64.0388C31.1261 64.0388 31.1737 64.0218 31.2248 64.0047C31.2894 63.9877 31.3405 63.9877 31.3915 63.9706C32.7189 63.6398 32.9844 62.6404 33.0661 61.7775V61.7604L31.3099 61.4943L31.2928 61.5933C31.5243 62.0094 31.5583 62.5415 31.3915 63.0054C31.2758 63.3055 31.075 63.5375 30.8265 63.7046C30.8095 63.7046 30.7925 63.7216 30.7925 63.7216C30.7755 63.7216 30.7755 63.7387 30.7585 63.7387C30.7346 63.7523 30.704 63.766 30.6768 63.7762C29.7578 63.1043 28.6176 62.7223 27.3446 62.7223C24.0125 62.7223 21.6095 65.3316 21.6095 68.9027C21.6095 72.4739 24.0295 75.0832 27.3446 75.0832C30.6598 75.0832 33.0797 72.4739 33.0797 68.9027C33.0797 66.8699 32.3003 65.1508 31.0171 64.0457V64.0491ZM27.3446 73.4903C24.9076 73.4903 23.2161 71.5973 23.2161 68.9061C23.2161 66.215 24.9076 64.3219 27.3446 64.3219C29.7816 64.3219 31.4902 66.215 31.4902 68.9061C31.4902 71.5973 29.7816 73.4903 27.3446 73.4903Z" fill="url(#paint22_linear_76_140)"></path><path d="M51.0678 68.125C49.5941 68.224 48.9304 69.868 48.9304 69.868C49.1618 69.8032 49.4613 69.752 49.8085 69.7009C50.1557 69.6668 50.5369 69.6361 50.9521 69.6668C51.5648 69.7179 51.8813 69.7827 52.1127 69.8168C52.3952 69.8816 52.5586 69.9157 53.0079 69.8509V72.3443C52.7764 72.6274 52.4599 72.8423 52.0311 73.0264C51.5818 73.2243 51.0032 73.3266 50.3224 73.3266C49.4783 73.3266 48.7806 73.1288 48.185 72.7433C47.5723 72.3443 47.0924 71.8292 46.7759 71.1641C46.4457 70.499 46.2789 69.7691 46.2789 68.9368C46.2789 68.1046 46.4457 67.3576 46.7759 66.6959C47.0924 66.0308 47.5383 65.5157 48.1339 65.1167C48.7125 64.7347 49.4103 64.5505 50.2544 64.5505C50.884 64.5505 51.4797 64.7006 52.0787 65.0144C52.6267 65.3145 53.0249 65.7443 53.2564 66.3105L53.6035 67.1086L53.9847 66.3275L54.5497 65.1815L54.6655 64.9325L54.4817 64.7347C53.9847 64.1685 53.3721 63.7387 52.6743 63.3737C51.946 63.0088 51.1325 62.8416 50.2544 62.8416C49.1108 62.8416 48.0999 63.1077 47.2388 63.6739C46.3776 64.2401 45.731 64.97 45.2647 65.9012C44.8018 66.8323 44.5669 67.8454 44.5669 68.9573C44.5669 70.0692 44.7984 71.0686 45.2647 71.9964C45.7276 72.9275 46.3742 73.6745 47.2388 74.2237C48.0999 74.7899 49.1108 75.0559 50.2544 75.0559C50.9181 75.0559 51.5137 74.974 52.0277 74.8069C52.5246 74.6568 52.9739 74.459 53.338 74.21C53.6852 73.9951 53.9677 73.7768 54.1992 73.5619C54.3966 73.3778 54.5633 73.214 54.6484 73.0981L54.7131 72.9992V68.3809C53.2223 68.93 52.5586 68.0159 51.0644 68.1319L51.0678 68.125Z" fill="url(#paint23_linear_76_140)"></path><path d="M53.3074 0V19.8853L43.3858 9.94263L53.3074 0Z" fill="url(#paint24_linear_76_140)"></path><path d="M73.4602 5.82233L59.4271 19.8853V5.82233H73.4602Z" fill="url(#paint25_linear_76_140)"></path><path d="M83.5961 24.2205H63.7531L73.6746 14.2778L83.5961 24.2205Z" fill="url(#paint26_linear_76_140)"></path><path d="M77.7862 30.3532V44.4127L63.7531 30.3532H77.7862Z" fill="url(#paint27_linear_76_140)"></path><path d="M69.3486 44.631L59.4271 54.5736V34.6884L69.3486 44.631Z" fill="url(#paint28_linear_76_140)"></path><path d="M53.3074 34.6884V48.7513H39.2777L53.3074 34.6884Z" fill="url(#paint29_linear_76_140)"></path><path d="M48.9814 30.3532L39.0598 40.2958L29.1383 30.3532H48.9814Z" fill="url(#paint30_linear_76_140)"></path><path d="M48.9814 24.2205H34.9517V10.1609L48.9814 24.2205Z" fill="url(#paint31_linear_76_140)"></path><path d="M60.6966 27.2868L63.7531 30.3532H59.4271V34.6884L56.3672 31.622L53.3074 34.6884V30.3532H48.9814L52.0412 27.2868L48.9814 24.2205H53.3074V19.8853L56.3672 22.9516L59.4271 19.8853V24.2205H63.7531L60.6966 27.2868Z" fill="url(#paint32_linear_76_140)"></path></g><defs><linearGradient id="paint0_linear_76_140" x1="56.3656" y1="80.479" x2="56.3656" y2="87.8567" gradientUnits="userSpaceOnUse"><stop stop-color="#FFDE9D"></stop><stop offset="1" stop-color="#D2AA5C"></stop></linearGradient><linearGradient id="paint1_linear_76_140" x1="56.3656" y1="80.479" x2="56.3656" y2="87.8567" gradientUnits="userSpaceOnUse"><stop stop-color="#FFDE9D"></stop><stop offset="1" stop-color="#D2AA5C"></stop></linearGradient><linearGradient id="paint2_linear_76_140" x1="56.3656" y1="80.479" x2="56.3656" y2="87.8567" gradientUnits="userSpaceOnUse"><stop stop-color="#FFDE9D"></stop><stop offset="1" stop-color="#D2AA5C"></stop></linearGradient><linearGradient id="paint3_linear_76_140" x1="56.3656" y1="80.479" x2="56.3656" y2="87.8567" gradientUnits="userSpaceOnUse"><stop stop-color="#FFDE9D"></stop><stop offset="1" stop-color="#D2AA5C"></stop></linearGradient><linearGradient id="paint4_linear_76_140" x1="56.3656" y1="80.479" x2="56.3656" y2="87.8567" gradientUnits="userSpaceOnUse"><stop stop-color="#FFDE9D"></stop><stop offset="1" stop-color="#D2AA5C"></stop></linearGradient><linearGradient id="paint5_linear_76_140" x1="56.3656" y1="80.479" x2="56.3656" y2="87.8567" gradientUnits="userSpaceOnUse"><stop stop-color="#FFDE9D"></stop><stop offset="1" stop-color="#D2AA5C"></stop></linearGradient><linearGradient id="paint6_linear_76_140" x1="56.3656" y1="80.479" x2="56.3656" y2="87.8567" gradientUnits="userSpaceOnUse"><stop stop-color="#FFDE9D"></stop><stop offset="1" stop-color="#D2AA5C"></stop></linearGradient><linearGradient id="paint7_linear_76_140" x1="56.3656" y1="80.479" x2="56.3656" y2="87.8567" gradientUnits="userSpaceOnUse"><stop stop-color="#FFDE9D"></stop><stop offset="1" stop-color="#D2AA5C"></stop></linearGradient><linearGradient id="paint8_linear_76_140" x1="56.3656" y1="80.479" x2="56.3656" y2="87.8567" gradientUnits="userSpaceOnUse"><stop stop-color="#FFDE9D"></stop><stop offset="1" stop-color="#D2AA5C"></stop></linearGradient><linearGradient id="paint9_linear_76_140" x1="56.3656" y1="80.479" x2="56.3656" y2="87.8567" gradientUnits="userSpaceOnUse"><stop stop-color="#FFDE9D"></stop><stop offset="1" stop-color="#D2AA5C"></stop></linearGradient><linearGradient id="paint10_linear_76_140" x1="56.3656" y1="80.479" x2="56.3656" y2="87.8567" gradientUnits="userSpaceOnUse"><stop stop-color="#FFDE9D"></stop><stop offset="1" stop-color="#D2AA5C"></stop></linearGradient><linearGradient id="paint11_linear_76_140" x1="56.3656" y1="80.479" x2="56.3656" y2="87.8567" gradientUnits="userSpaceOnUse"><stop stop-color="#FFDE9D"></stop><stop offset="1" stop-color="#D2AA5C"></stop></linearGradient><linearGradient id="paint12_linear_76_140" x1="56.3656" y1="80.479" x2="56.3656" y2="87.8567" gradientUnits="userSpaceOnUse"><stop stop-color="#FFDE9D"></stop><stop offset="1" stop-color="#D2AA5C"></stop></linearGradient><linearGradient id="paint13_linear_76_140" x1="56.3656" y1="60.1914" x2="56.3656" y2="75.206" gradientUnits="userSpaceOnUse"><stop stop-color="#FFDE9D"></stop><stop offset="1" stop-color="#D2AA5C"></stop></linearGradient><linearGradient id="paint14_linear_76_140" x1="56.3656" y1="60.1914" x2="56.3656" y2="75.206" gradientUnits="userSpaceOnUse"><stop stop-color="#FFDE9D"></stop><stop offset="1" stop-color="#D2AA5C"></stop></linearGradient><linearGradient id="paint15_linear_76_140" x1="56.3656" y1="60.1914" x2="56.3656" y2="75.206" gradientUnits="userSpaceOnUse"><stop stop-color="#FFDE9D"></stop><stop offset="1" stop-color="#D2AA5C"></stop></linearGradient><linearGradient id="paint16_linear_76_140" x1="56.3656" y1="60.1914" x2="56.3656" y2="75.206" gradientUnits="userSpaceOnUse"><stop stop-color="#FFDE9D"></stop><stop offset="1" stop-color="#D2AA5C"></stop></linearGradient><linearGradient id="paint17_linear_76_140" x1="56.3656" y1="60.1914" x2="56.3656" y2="75.206" gradientUnits="userSpaceOnUse"><stop stop-color="#FFDE9D"></stop><stop offset="1" stop-color="#D2AA5C"></stop></linearGradient><linearGradient id="paint18_linear_76_140" x1="56.3656" y1="60.1914" x2="56.3656" y2="75.206" gradientUnits="userSpaceOnUse"><stop stop-color="#FFDE9D"></stop><stop offset="1" stop-color="#D2AA5C"></stop></linearGradient><linearGradient id="paint19_linear_76_140" x1="56.3656" y1="60.1914" x2="56.3656" y2="75.206" gradientUnits="userSpaceOnUse"><stop stop-color="#FFDE9D"></stop><stop offset="1" stop-color="#D2AA5C"></stop></linearGradient><linearGradient id="paint20_linear_76_140" x1="56.3656" y1="60.1914" x2="56.3656" y2="75.206" gradientUnits="userSpaceOnUse"><stop stop-color="#FFDE9D"></stop><stop offset="1" stop-color="#D2AA5C"></stop></linearGradient><linearGradient id="paint21_linear_76_140" x1="56.3656" y1="60.1914" x2="56.3656" y2="75.206" gradientUnits="userSpaceOnUse"><stop stop-color="#FFDE9D"></stop><stop offset="1" stop-color="#D2AA5C"></stop></linearGradient><linearGradient id="paint22_linear_76_140" x1="56.3656" y1="60.1914" x2="56.3656" y2="75.206" gradientUnits="userSpaceOnUse"><stop stop-color="#FFDE9D"></stop><stop offset="1" stop-color="#D2AA5C"></stop></linearGradient><linearGradient id="paint23_linear_76_140" x1="56.3656" y1="60.1914" x2="56.3656" y2="75.206" gradientUnits="userSpaceOnUse"><stop stop-color="#FFDE9D"></stop><stop offset="1" stop-color="#D2AA5C"></stop></linearGradient><linearGradient id="paint24_linear_76_140" x1="56.3672" y1="0" x2="56.3672" y2="54.5736" gradientUnits="userSpaceOnUse"><stop stop-color="#FFDE9D"></stop><stop offset="1" stop-color="#D2AA5C"></stop></linearGradient><linearGradient id="paint25_linear_76_140" x1="56.3672" y1="0" x2="56.3672" y2="54.5736" gradientUnits="userSpaceOnUse"><stop stop-color="#FFDE9D"></stop><stop offset="1" stop-color="#D2AA5C"></stop></linearGradient><linearGradient id="paint26_linear_76_140" x1="56.3672" y1="0" x2="56.3672" y2="54.5736" gradientUnits="userSpaceOnUse"><stop stop-color="#FFDE9D"></stop><stop offset="1" stop-color="#D2AA5C"></stop></linearGradient><linearGradient id="paint27_linear_76_140" x1="56.3672" y1="0" x2="56.3672" y2="54.5736" gradientUnits="userSpaceOnUse"><stop stop-color="#FFDE9D"></stop><stop offset="1" stop-color="#D2AA5C"></stop></linearGradient><linearGradient id="paint28_linear_76_140" x1="56.3672" y1="0" x2="56.3672" y2="54.5736" gradientUnits="userSpaceOnUse"><stop stop-color="#FFDE9D"></stop><stop offset="1" stop-color="#D2AA5C"></stop></linearGradient><linearGradient id="paint29_linear_76_140" x1="56.3672" y1="0" x2="56.3672" y2="54.5736" gradientUnits="userSpaceOnUse"><stop stop-color="#FFDE9D"></stop><stop offset="1" stop-color="#D2AA5C"></stop></linearGradient><linearGradient id="paint30_linear_76_140" x1="56.3672" y1="0" x2="56.3672" y2="54.5736" gradientUnits="userSpaceOnUse"><stop stop-color="#FFDE9D"></stop><stop offset="1" stop-color="#D2AA5C"></stop></linearGradient><linearGradient id="paint31_linear_76_140" x1="56.3672" y1="0" x2="56.3672" y2="54.5736" gradientUnits="userSpaceOnUse"><stop stop-color="#FFDE9D"></stop><stop offset="1" stop-color="#D2AA5C"></stop></linearGradient><linearGradient id="paint32_linear_76_140" x1="56.3672" y1="0" x2="56.3672" y2="54.5736" gradientUnits="userSpaceOnUse"><stop stop-color="#FFDE9D"></stop><stop offset="1" stop-color="#D2AA5C"></stop></linearGradient><clipPath id="clip0_76_140"><rect width="113" height="88" fill="white"></rect></clipPath></defs></svg>