<svg xmlns="http://www.w3.org/2000/svg" width="8" height="12" viewBox="0 0 8 12" fill="none"><path d="M0.969402 6.5306L5.9694 11.5306C6.1103 11.6715 6.30139 11.7506 6.50065 11.7506C6.69991 11.7506 6.89101 11.6715 7.0319 11.5306C7.1728 11.3897 7.25195 11.1986 7.25195 10.9993C7.25195 10.8001 7.1728 10.609 7.0319 10.4681L2.56253 5.99997L7.03065 1.5306C7.10042 1.46083 7.15576 1.37801 7.19351 1.28686C7.23127 1.19571 7.2507 1.09801 7.2507 0.999348C7.2507 0.900686 7.23127 0.802989 7.19351 0.711837C7.15576 0.620685 7.10042 0.537863 7.03065 0.468098C6.96089 0.398333 6.87806 0.342993 6.78691 0.305236C6.69576 0.26748 6.59806 0.248047 6.4994 0.248047C6.40074 0.248047 6.30304 0.26748 6.21189 0.305236C6.12074 0.342993 6.03792 0.398333 5.96815 0.468098L0.968153 5.4681C0.898315 5.53786 0.842934 5.62072 0.805187 5.71193C0.76744 5.80313 0.74807 5.9009 0.748186 5.99961C0.748302 6.09832 0.767903 6.19603 0.805864 6.28715C0.843825 6.37827 0.8994 6.461 0.969402 6.5306Z" fill="#0D1F3D"></path></svg>