<svg xmlns="http://www.w3.org/2000/svg" width="22" height="22" viewBox="0 0 22 22" fill="none"><path d="M11 0.875C8.99747 0.875 7.0399 1.46882 5.37486 2.58137C3.70981 3.69392 2.41206 5.27523 1.64572 7.12533C0.879387 8.97543 0.678878 11.0112 1.06955 12.9753C1.46023 14.9393 2.42454 16.7435 3.84055 18.1595C5.25656 19.5755 7.06066 20.5398 9.02471 20.9305C10.9888 21.3211 13.0246 21.1206 14.8747 20.3543C16.7248 19.5879 18.3061 18.2902 19.4186 16.6251C20.5312 14.9601 21.125 13.0025 21.125 11C21.122 8.3156 20.0543 5.74199 18.1562 3.84383C16.258 1.94567 13.6844 0.877978 11 0.875ZM11 18.875C9.44248 18.875 7.91993 18.4131 6.62489 17.5478C5.32985 16.6825 4.32049 15.4526 3.72445 14.0136C3.12841 12.5747 2.97246 10.9913 3.27632 9.46366C3.58018 7.93606 4.3302 6.53287 5.43154 5.43153C6.53288 4.3302 7.93607 3.58017 9.46367 3.27632C10.9913 2.97246 12.5747 3.12841 14.0136 3.72445C15.4526 4.32049 16.6825 5.32985 17.5478 6.62488C18.4131 7.91992 18.875 9.44247 18.875 11C18.8728 13.0879 18.0424 15.0896 16.566 16.566C15.0896 18.0424 13.0879 18.8728 11 18.875ZM15.5459 8.70406C15.6508 8.80858 15.734 8.93277 15.7908 9.06952C15.8476 9.20626 15.8768 9.35287 15.8768 9.50094C15.8768 9.649 15.8476 9.79561 15.7908 9.93236C15.734 10.0691 15.6508 10.1933 15.5459 10.2978L11.7959 14.0478C11.6914 14.1527 11.5672 14.2359 11.4305 14.2927C11.2937 14.3495 11.1471 14.3787 10.9991 14.3787C10.851 14.3787 10.7044 14.3495 10.5676 14.2927C10.4309 14.2359 10.3067 14.1527 10.2022 14.0478L6.45219 10.2978C6.24085 10.0865 6.12212 9.79982 6.12212 9.50094C6.12212 9.20205 6.24085 8.91541 6.45219 8.70406C6.66354 8.49272 6.95018 8.37399 7.24907 8.37399C7.54795 8.37399 7.8346 8.49272 8.04594 8.70406L11 11.6562L13.9541 8.70125C14.0587 8.59684 14.183 8.51408 14.3196 8.4577C14.4563 8.40133 14.6027 8.37245 14.7506 8.37271C14.8984 8.37297 15.0448 8.40237 15.1812 8.45922C15.3177 8.51608 15.4416 8.59928 15.5459 8.70406Z" fill="#0D1F3D" fill-opacity="0.24"></path></svg>