<svg xmlns="http://www.w3.org/2000/svg" width="20" height="20" viewBox="0 0 20 20" fill="none"><path d="M10 0.25C8.07164 0.25 6.18657 0.821828 4.58319 1.89317C2.97982 2.96451 1.73013 4.48726 0.992179 6.26884C0.254225 8.05042 0.061142 10.0108 0.437348 11.9021C0.813554 13.7934 1.74215 15.5307 3.10571 16.8943C4.46928 18.2579 6.20656 19.1865 8.09787 19.5627C9.98919 19.9389 11.9496 19.7458 13.7312 19.0078C15.5127 18.2699 17.0355 17.0202 18.1068 15.4168C19.1782 13.8134 19.75 11.9284 19.75 10C19.7473 7.41498 18.7192 4.93661 16.8913 3.10872C15.0634 1.28084 12.585 0.25273 10 0.25ZM14.2806 12.0306C14.211 12.1004 14.1283 12.1557 14.0372 12.1934C13.9462 12.2312 13.8486 12.2506 13.75 12.2506C13.6514 12.2506 13.5538 12.2312 13.4628 12.1934C13.3718 12.1557 13.289 12.1004 13.2194 12.0306L10 8.81031L6.78063 12.0306C6.71095 12.1003 6.62822 12.1556 6.53718 12.1933C6.44613 12.231 6.34855 12.2504 6.25 12.2504C6.15146 12.2504 6.05388 12.231 5.96283 12.1933C5.87179 12.1556 5.78906 12.1003 5.71938 12.0306C5.6497 11.9609 5.59442 11.8782 5.55671 11.7872C5.519 11.6961 5.49959 11.5985 5.49959 11.5C5.49959 11.4015 5.519 11.3039 5.55671 11.2128C5.59442 11.1218 5.6497 11.0391 5.71938 10.9694L9.46938 7.21937C9.53903 7.14964 9.62175 7.09432 9.7128 7.05658C9.80385 7.01884 9.90144 6.99941 10 6.99941C10.0986 6.99941 10.1962 7.01884 10.2872 7.05658C10.3783 7.09432 10.461 7.14964 10.5306 7.21937L14.2806 10.9694C14.3504 11.039 14.4057 11.1217 14.4434 11.2128C14.4812 11.3038 14.5006 11.4014 14.5006 11.5C14.5006 11.5986 14.4812 11.6962 14.4434 11.7872C14.4057 11.8783 14.3504 11.961 14.2806 12.0306Z" fill="#183870"></path></svg>