<svg xmlns="http://www.w3.org/2000/svg" width="18" height="20" viewBox="0 0 18 20" fill="none"><path d="M4.55344 7.96875C4.59024 7.87718 4.64476 7.79377 4.71386 7.7233C4.78296 7.65284 4.8653 7.59671 4.95613 7.55812C5.04697 7.51954 5.14454 7.49927 5.24323 7.49846C5.34192 7.49766 5.43979 7.51634 5.53125 7.55344L8.25 8.64188V6C8.25 5.80109 8.32902 5.61032 8.46967 5.46967C8.61032 5.32902 8.80109 5.25 9 5.25C9.19891 5.25 9.38968 5.32902 9.53033 5.46967C9.67098 5.61032 9.75 5.80109 9.75 6V8.64188L12.4688 7.55344C12.5602 7.5165 12.6581 7.49795 12.7567 7.49883C12.8554 7.49971 12.9529 7.52002 13.0437 7.55858C13.1345 7.59715 13.2168 7.65322 13.2859 7.7236C13.355 7.79397 13.4096 7.87728 13.4466 7.96875C13.4835 8.06022 13.5021 8.15808 13.5012 8.25672C13.5003 8.35537 13.48 8.45287 13.4414 8.54367C13.4029 8.63447 13.3468 8.71678 13.2764 8.78591C13.206 8.85504 13.1227 8.90963 13.0312 8.94656L10.1897 10.0828L11.85 12.3C11.9693 12.4591 12.0206 12.6592 11.9925 12.8561C11.9643 13.053 11.8591 13.2307 11.7 13.35C11.5409 13.4693 11.3408 13.5206 11.1439 13.4925C10.947 13.4643 10.7693 13.3591 10.65 13.2L9 10.9997L7.35 13.2C7.29091 13.2788 7.21687 13.3452 7.13212 13.3954C7.04737 13.4455 6.95357 13.4785 6.85607 13.4925C6.75856 13.5064 6.65927 13.501 6.56386 13.4765C6.46845 13.4521 6.37879 13.4091 6.3 13.35C6.22121 13.2909 6.15482 13.2169 6.10464 13.1321C6.05446 13.0474 6.02147 12.9536 6.00754 12.8561C5.99361 12.7586 5.99902 12.6593 6.02346 12.5639C6.04791 12.4685 6.09091 12.3788 6.15 12.3L7.81312 10.0828L4.96875 8.94656C4.87718 8.90976 4.79377 8.85524 4.7233 8.78614C4.65284 8.71704 4.59671 8.6347 4.55812 8.54387C4.51954 8.45303 4.49927 8.35546 4.49846 8.25677C4.49766 8.15808 4.51634 8.06021 4.55344 7.96875ZM18 2.25V7.5C18 12.4425 15.6075 15.4378 13.6003 17.0803C11.4384 18.8484 9.28781 19.4494 9.19406 19.4738C9.06516 19.5088 8.92922 19.5088 8.80031 19.4738C8.70656 19.4494 6.55875 18.8484 4.39406 17.0803C2.3925 15.4378 0 12.4425 0 7.5V2.25C0 1.85218 0.158035 1.47064 0.43934 1.18934C0.720644 0.908035 1.10218 0.75 1.5 0.75H16.5C16.8978 0.75 17.2794 0.908035 17.5607 1.18934C17.842 1.47064 18 1.85218 18 2.25ZM16.5 2.25H1.5V7.5C1.5 10.9969 2.79562 13.8291 5.35031 15.9197C6.43805 16.8093 7.6733 17.5013 9 17.9644C10.3443 17.4931 11.595 16.7886 12.6947 15.8831C15.2194 13.7962 16.5 10.9753 16.5 7.5V2.25Z" fill="#0D1F3D"></path></svg>